<?xml version="1.0" encoding="utf-8"?>
<!-- Generator: Adobe Illustrator 16.0.0, SVG Export Plug-In . SVG Version: 6.00 Build 0)  -->
<!DOCTYPE svg PUBLIC "-//W3C//DTD SVG 1.1//EN" "http://www.w3.org/Graphics/SVG/1.1/DTD/svg11.dtd">
<svg version="1.1" id="图层_1" xmlns="http://www.w3.org/2000/svg" xmlns:xlink="http://www.w3.org/1999/xlink" x="0px" y="0px"
	 width="48px" height="48px" viewBox="0 0 48 48" enable-background="new 0 0 48 48" xml:space="preserve">
<g>
	<g>
		<path fill-rule="evenodd" clip-rule="evenodd" fill="#42B035" d="M7.527,45.618V27.893H9.83v15.424h28.349V27.893h2.303v17.726
			H7.527L7.527,45.618z M15.528,30.408c-1.021-1.205-1.562-2.627-1.562-4.114c0-3.408,2.774-6.183,6.186-6.183
			c1.355,0,2.692,0.449,3.759,1.264l0.087,0.066l0.089-0.066c1.067-0.814,2.402-1.264,3.759-1.264c3.412,0,6.186,2.774,6.186,6.183
			c0,1.462-0.513,2.883-1.445,3.998l-5.333,4.85l-1.622-1.632l5.3-4.811l0.009-0.009c0.479-0.593,0.787-1.533,0.787-2.396
			c0-2.14-1.742-3.88-3.883-3.88c-1.153,0-2.236,0.498-2.965,1.368l-0.883,1.045l-0.881-1.045c-0.727-0.87-1.808-1.368-2.965-1.368
			c-2.142,0-3.885,1.74-3.885,3.88c0,0.905,0.336,1.825,0.918,2.525l0.007,0.007l8.075,7.48l-1.564,1.688L15.528,30.408
			L15.528,30.408z M23.999,5.752L4.044,27.036l-1.682-1.575L23.999,2.382l21.638,23.079l-1.682,1.575L23.999,5.752L23.999,5.752z"/>
	</g>
</g>
</svg>
