<?xml version="1.0" encoding="utf-8"?>
<!-- Generator: Adobe Illustrator 16.0.0, SVG Export Plug-In . SVG Version: 6.00 Build 0)  -->
<!DOCTYPE svg PUBLIC "-//W3C//DTD SVG 1.1//EN" "http://www.w3.org/Graphics/SVG/1.1/DTD/svg11.dtd">
<svg version="1.1" id="图层_1" xmlns="http://www.w3.org/2000/svg" xmlns:xlink="http://www.w3.org/1999/xlink" x="0px" y="0px"
	 width="48px" height="48px" viewBox="0 0 48 48" enable-background="new 0 0 48 48" xml:space="preserve">
<g>
	<g>
		<path fill-rule="evenodd" clip-rule="evenodd" fill="#1EA58C" d="M41.091,38.246c-2.021-4.45-6.807-8.309-13.504-9.344
			c3.643-1.869,6.271-6.193,6.125-12.166c-0.064-2.721-1.346-6.383-2.971-8.238c-0.305-0.349-4.178-1.181-7.377-1.181
			c-3.033,0-6.84,0.767-7.275,1.181c-1.914,1.828-2.988,5.328-3.031,8.232c-0.086,6.068,2.66,10.535,6.459,12.332
			c-6.674,1.315-11.336,5.416-12.666,9.264c-0.305,0.878-0.281,1.935,0.145,2.884c0.852,1.894,2.277,1.913,2.277,1.913
			s7.117,0.221,14.283,0.221c0.139,0,0.279,0,0.416,0c5.734,0,13.793-0.111,13.793-0.111s2.115-0.096,3.082-1.807
			C41.565,40.155,41.396,38.914,41.091,38.246L41.091,38.246z M14.847,16.832c0.037-2.645,1.004-5.486,2.322-6.884
			c0.801-0.281,3.709-0.845,6.197-0.845c2.574,0,5.363,0.563,6.246,0.836c1.223,1.595,2.26,4.654,2.314,6.915
			c0.008,0.37-0.002,0.732-0.018,1.091c-1.566-0.461-4.568-1.139-8.543-1.139c-4.043,0-6.875,0.502-8.496,0.902
			C14.858,17.419,14.843,17.13,14.847,16.832L14.847,16.832z M18.034,25.898c-1.586-1.609-2.619-3.809-3.012-6.419
			c1.414-0.372,4.205-0.903,8.344-0.903c4.143,0,7.154,0.758,8.367,1.137c-0.393,2.471-1.371,4.567-2.879,6.112
			c-1.508,1.544-3.457,2.32-5.49,2.32H23.36C21.374,28.146,19.534,27.42,18.034,25.898L18.034,25.898z M39.278,40.639
			c-0.445,0.791-1.223,0.844-1.701,0.944c-1.082,0.03-8.369,0.229-13.609,0.239l-0.412,0.002c-6.1,0-12.232-0.336-13.807-0.336
			c-0.682,0-0.971-0.666-1.066-0.873c-0.234-0.681-0.285-1.291-0.143-1.705c1.43-4.121,7.332-8.501,15.457-8.501
			c8.543,0,13.672,4.619,15.467,8.575C39.548,39.171,39.704,39.879,39.278,40.639L39.278,40.639z"/>
		<path fill-rule="evenodd" clip-rule="evenodd" fill="#1EA58C" d="M25.106,13.842h1.355c0.24,0,0.434-0.194,0.434-0.434v-0.027
			c0-0.239-0.193-0.434-0.434-0.434h-1.355v-1.355c0-0.238-0.193-0.432-0.432-0.432h-0.027c-0.24,0-0.434,0.193-0.434,0.432v1.355
			h-1.355c-0.238,0-0.434,0.194-0.434,0.434v0.027c0,0.239,0.195,0.434,0.434,0.434h1.355v1.355c0,0.238,0.193,0.432,0.432,0.432
			h0.027c0.24,0,0.434-0.193,0.434-0.432V13.842L25.106,13.842z"/>
	</g>
</g>
</svg>
