<?xml version="1.0" encoding="utf-8"?>
<!-- Generator: Adobe Illustrator 16.0.0, SVG Export Plug-In . SVG Version: 6.00 Build 0)  -->
<!DOCTYPE svg PUBLIC "-//W3C//DTD SVG 1.1//EN" "http://www.w3.org/Graphics/SVG/1.1/DTD/svg11.dtd">
<svg version="1.1" id="图层_1" xmlns="http://www.w3.org/2000/svg" xmlns:xlink="http://www.w3.org/1999/xlink" x="0px" y="0px"
	 width="48px" height="48px" viewBox="0 0 48 48" enable-background="new 0 0 48 48" xml:space="preserve">
<g>
	<path fill-rule="evenodd" clip-rule="evenodd" fill="#E85F95" stroke="#D85C8C" stroke-width="0.5" stroke-miterlimit="10" d="
		M32.083,35.283h-1.725v-1.731c0-0.245-0.197-0.444-0.441-0.444s-0.441,0.199-0.441,0.444v1.731h-1.725
		c-0.244,0-0.441,0.198-0.441,0.443s0.197,0.443,0.441,0.443h1.725v1.732c0,0.244,0.197,0.443,0.441,0.443s0.441-0.199,0.441-0.443
		v-1.732h1.725c0.246,0,0.443-0.198,0.443-0.443S32.329,35.283,32.083,35.283L32.083,35.283z"/>
	<path fill-rule="evenodd" clip-rule="evenodd" fill="#E85F95" stroke="#D85C8C" stroke-width="0.5" stroke-miterlimit="10" d="
		M39.669,36.822c-0.568-2.49-3.785-4.816-9.061-6.551c-1.219-0.401-2.229-0.822-2.998-1.252c-0.162-0.09-0.354-0.066-0.49,0.043
		c-0.025,0.011-0.049,0.023-0.072,0.039c-1.238,0.852-3.295,3.342-4.223,5.311c-1.057-2.438-3.715-4.775-3.848-4.892
		c-0.004-0.002-0.006-0.004-0.01-0.007c1.393-0.886,1.814-1.746,1.951-2.567c0.582,0.259,1.203,0.398,1.848,0.398
		c3.35,0,6.075-3.768,6.075-8.397c0-0.451-0.027-0.905-0.084-1.378c-0.02-0.116-0.563-2.855-4.583-3.095
		c-3.09-0.186-4.332-1.814-4.631-2.459h8.854c2.359,1.115,5.105,4.465,5.207,10.324c0.033,1.938-0.189,3.709-0.66,5.264
		c-0.059,0.191-0.117,0.373-0.18,0.547c-0.082,0.23,0.039,0.484,0.268,0.566c0.23,0.082,0.482-0.037,0.564-0.27
		c0.066-0.186,0.131-0.381,0.193-0.586c0.498-1.643,0.732-3.506,0.697-5.537c-0.084-4.88-1.932-8.153-3.969-9.943
		c0.008-0.032,0.012-0.066,0.012-0.101V8.103c0-1.274-1.031-2.312-2.301-2.312H17.303c-1.268,0-2.301,1.038-2.301,2.312v4.175
		c0,0.05,0.008,0.098,0.023,0.142c-2.018,1.798-3.838,5.059-3.922,9.901c-0.08,4.699,1.295,7.406,2.123,8.602
		c0.002,0.004,0.006,0.007,0.01,0.011c-4.018,1.61-6.672,3.744-7.23,5.874c-0.102,0.387-0.045,2.498-0.016,3.389
		c0.008,0.238,0.203,0.428,0.441,0.428h16.324h0.158h16.325c0.238,0,0.434-0.19,0.441-0.43
		C39.708,39.308,39.757,37.205,39.669,36.822L39.669,36.822z M24.122,15.358c3.301,0.198,3.75,2.284,3.764,2.342
		c0.047,0.411,0.072,0.831,0.072,1.247c0,4.141-2.33,7.51-5.192,7.51c-2.861,0-5.189-3.369-5.189-7.51
		c0-2.213,0.361-5.07,1.166-6.583C19.18,13.282,20.676,15.151,24.122,15.358L24.122,15.358z M15.885,8.103
		c0-0.786,0.637-1.425,1.418-1.425h10.926c0.781,0,1.418,0.639,1.418,1.425v3.606c-0.326-0.218-0.652-0.399-0.973-0.543
		c-0.057-0.025-0.117-0.039-0.182-0.039H17.098c-0.063,0-0.125,0.014-0.182,0.039c-0.338,0.153-0.684,0.347-1.031,0.583V8.103
		L15.885,8.103z M13.952,30.416c-0.766-1.106-2.041-3.628-1.965-8.078c0.102-5.86,2.848-9.208,5.207-10.324h0.734
		c-0.908,1.771-1.234,4.805-1.234,6.933c0,3.313,1.393,6.182,3.414,7.548c-0.02,0.042-0.033,0.085-0.037,0.134
		c-0.076,0.672-0.234,2.071-5.008,3.643c-0.354,0.115-0.697,0.235-1.033,0.359C14.022,30.556,13.999,30.482,13.952,30.416
		L13.952,30.416z M38.81,39.738H22.915h-0.158H6.86c-0.033-1.234-0.043-2.495,0-2.703c0.555-2.114,3.803-4.384,8.479-5.922
		c1.215-0.4,2.166-0.796,2.914-1.187c0.016,0.099,0.064,0.192,0.146,0.263c0.035,0.033,3.699,3.252,3.957,5.779
		c0.002,0.012,0.004,0.021,0.004,0.033c0.002,0.003,0.002,0.006,0.002,0.01c0.002,0.006,0.004,0.012,0.006,0.019
		c0,0.007,0.004,0.015,0.006,0.022c0,0.005,0.002,0.01,0.004,0.014c0.004,0.01,0.006,0.018,0.01,0.026
		c0.002,0.005,0.004,0.009,0.006,0.013c0.004,0.009,0.008,0.018,0.012,0.025c0.002,0.004,0.004,0.009,0.008,0.014
		c0.004,0.008,0.008,0.015,0.014,0.021c0.002,0.006,0.006,0.01,0.01,0.015c0.004,0.006,0.01,0.013,0.014,0.019
		s0.008,0.01,0.012,0.016c0.006,0.005,0.01,0.01,0.014,0.016c0.006,0.006,0.012,0.01,0.018,0.016
		c0.004,0.004,0.008,0.008,0.014,0.012c0.006,0.006,0.012,0.01,0.018,0.016c0.004,0.004,0.008,0.006,0.014,0.01
		c0.006,0.005,0.014,0.01,0.021,0.014c0.002,0.004,0.008,0.006,0.012,0.009c0.008,0.005,0.016,0.009,0.021,0.013
		c0.006,0.002,0.012,0.004,0.016,0.007c0.008,0.003,0.016,0.007,0.021,0.009c0.008,0.003,0.014,0.006,0.018,0.008
		c0.008,0.002,0.014,0.005,0.023,0.007c0.006,0.002,0.014,0.004,0.02,0.005c0.008,0.002,0.014,0.004,0.02,0.005
		c0.008,0.003,0.018,0.003,0.025,0.004c0.006,0.001,0.01,0.003,0.016,0.003c0.002,0,0.002,0,0.002,0
		c0.014,0.002,0.027,0.002,0.043,0.002l0,0l0,0c0.016,0,0.029,0,0.043-0.002h0.002c0.006,0,0.012-0.002,0.016-0.003
		c0.01-0.001,0.018-0.001,0.025-0.004c0.006-0.001,0.014-0.003,0.02-0.005c0.008-0.001,0.014-0.003,0.021-0.005
		s0.014-0.005,0.021-0.007c0.006-0.002,0.012-0.005,0.018-0.008c0.008-0.002,0.014-0.006,0.021-0.009
		c0.006-0.003,0.01-0.005,0.016-0.007c0.006-0.004,0.014-0.008,0.021-0.013c0.004-0.003,0.01-0.005,0.014-0.009
		c0.006-0.004,0.014-0.009,0.021-0.014c0.004-0.003,0.008-0.006,0.012-0.01c0.008-0.006,0.012-0.01,0.018-0.016
		c0.006-0.004,0.01-0.008,0.014-0.012c0.006-0.006,0.012-0.01,0.018-0.016c0.004-0.005,0.008-0.011,0.014-0.016
		c0.004-0.006,0.008-0.01,0.012-0.015c0.004-0.007,0.01-0.014,0.014-0.019c0.004-0.006,0.008-0.01,0.01-0.016
		c0.006-0.006,0.01-0.014,0.014-0.021c0.004-0.005,0.006-0.01,0.008-0.014c0.004-0.008,0.008-0.016,0.012-0.025
		c0.002-0.004,0.004-0.008,0.006-0.013c0.004-0.008,0.006-0.017,0.01-0.024c0.002-0.005,0.004-0.01,0.004-0.016
		c0.004-0.008,0.004-0.014,0.006-0.021c0.002-0.006,0.004-0.014,0.006-0.02c0-0.003,0-0.005,0-0.008
		c0.002-0.012,0.004-0.023,0.006-0.035c0.15-1.465,2.663-4.904,4.186-6.045c0.783,0.411,1.76,0.811,2.914,1.189
		c4.895,1.611,7.984,3.764,8.473,5.904C38.849,37.226,38.841,38.494,38.81,39.738L38.81,39.738z"/>
</g>
</svg>
