<?xml version="1.0" encoding="utf-8"?>
<!-- Generator: Adobe Illustrator 16.0.0, SVG Export Plug-In . SVG Version: 6.00 Build 0)  -->
<!DOCTYPE svg PUBLIC "-//W3C//DTD SVG 1.1//EN" "http://www.w3.org/Graphics/SVG/1.1/DTD/svg11.dtd">
<svg version="1.1" id="图层_1" xmlns="http://www.w3.org/2000/svg" xmlns:xlink="http://www.w3.org/1999/xlink" x="0px" y="0px"
	 width="48px" height="48px" viewBox="0 0 48 48" enable-background="new 0 0 48 48" xml:space="preserve">
<g>
	<path fill-rule="evenodd" clip-rule="evenodd" fill="#18A0B0" d="M42.758,47.458H5.316c-0.788,0-1.471-0.339-1.872-0.932
		c-0.402-0.598-0.466-1.36-0.175-2.09l4.24-10.605c0.462-1.164,1.763-2.05,3.017-2.055l4.101-0.011
		c0.17-1.657,0.589-5.071,1.537-12.351c0.177-1.375,1.4-2.446,2.787-2.446h10.521c1.372,0,2.604,1.061,2.804,2.42l1.931,13.066
		c0.103,0.716-0.391,1.385-1.108,1.493c-0.717,0.109-1.385-0.391-1.488-1.112l-1.931-13.062c-0.013-0.072-0.139-0.18-0.207-0.18
		H18.951c-0.064,0-0.175,0.098-0.183,0.16c-0.61,4.695-1.581,12.366-1.63,13.263c0.011,0.293-0.071,0.586-0.247,0.828
		c-0.246,0.34-0.641,0.546-1.063,0.546l-5.293,0.016c-0.188,0-0.518,0.221-0.584,0.396L5.941,44.833h35.957l-5.12-9.751
		c-0.337-0.639-0.089-1.437,0.553-1.771c0.641-0.339,1.434-0.093,1.773,0.551l5.52,10.513c0.381,0.721,0.381,1.488,0.008,2.111
		C44.259,47.104,43.574,47.458,42.758,47.458L42.758,47.458L42.758,47.458z"/>
	<path fill-rule="evenodd" clip-rule="evenodd" fill="#18A0B0" d="M25.196,43.798h-1.761c-1.403,0-2.618-1.138-2.705-2.539
		l-0.958-15.198c-0.046-0.726,0.506-1.349,1.226-1.396c0.733-0.041,1.349,0.504,1.396,1.231l0.961,15.198
		c0,0.026,0.053,0.078,0.081,0.078h1.761c0.047,0,0.126-0.072,0.131-0.119l1.445-15.198c0.065-0.727,0.715-1.251,1.428-1.184
		c0.724,0.066,1.258,0.71,1.188,1.431l-1.444,15.203C27.813,42.701,26.604,43.798,25.196,43.798L25.196,43.798z"/>
	<path fill-rule="evenodd" clip-rule="evenodd" fill="#18A0B0" d="M24.063,16.167c-4.286,0-7.773-3.486-7.773-7.769
		c0-4.289,3.487-7.774,7.773-7.774c4.28,0,7.771,3.485,7.771,7.774C31.835,12.681,28.344,16.167,24.063,16.167L24.063,16.167z
		 M24.063,3.022c-2.963,0-5.375,2.415-5.375,5.375s2.412,5.37,5.375,5.37c2.961,0,5.369-2.409,5.369-5.37S27.024,3.022,24.063,3.022
		L24.063,3.022z"/>
</g>
</svg>
