<?xml version="1.0" encoding="utf-8"?>
<!-- Generator: Adobe Illustrator 16.0.0, SVG Export Plug-In . SVG Version: 6.00 Build 0)  -->
<!DOCTYPE svg PUBLIC "-//W3C//DTD SVG 1.1//EN" "http://www.w3.org/Graphics/SVG/1.1/DTD/svg11.dtd">
<svg version="1.1" id="图层_1" xmlns="http://www.w3.org/2000/svg" xmlns:xlink="http://www.w3.org/1999/xlink" x="0px" y="0px"
	 width="48px" height="48px" viewBox="0 0 48 48" enable-background="new 0 0 48 48" xml:space="preserve">
<g>
	<path fill-rule="evenodd" clip-rule="evenodd" fill="#57A3D6" d="M45.506,29.017c-1.18,0-2.131-0.958-2.131-2.133L43.355,5.528
		L11.449,5.547c-1.175,0-2.129-0.955-2.129-2.129c0-1.18,0.954-2.134,2.129-2.134L41.175,1.27v0.014h2.265
		c2.063,0,3.783,1.467,4.176,3.413l0.016,22.187C47.633,28.059,46.678,29.017,45.506,29.017L45.506,29.017z M41.246,11.304
		l0.016,13.469c0,0.056-0.012,0.108-0.016,0.16l0.016,8.798c-0.244,2.119-2.027,3.773-4.213,3.773h-2.265v0.005l-11.822,0.014
		l-7.995,7.934c-0.832,0.832-2.18,0.832-3.012,0c-0.832-0.832-0.832-2.181,0-3.013l8.285-8.22c0.381-0.577,1.034-0.958,1.774-0.958
		h0.056c0.01,0,0.021,0,0.029,0l14.9-0.019l-0.004-3.351c-0.002,0.155-0.004,0.31-0.007,0.451l0.007-0.78l-0.012-7.007
		c0-0.056,0.012-0.108,0.016-0.16l-0.011-7.19c-0.044-2.806-0.392-3.205-2.832-3.262l2.813,0.019l0.019,3.098l-0.002-3.121h-3.139
		c0.106,0,0.214,0.004,0.31,0.004l-0.676-0.004L7.758,11.958c-2.23,0.075-2.656,0.479-2.73,2.514l0.014,16.745
		c0.11,1.688,0.616,1.974,2.883,2.021l-2.881-0.019v0.042l8.533-0.014c1.177,0,2.129,0.954,2.129,2.129
		c0,1.175-0.952,2.128-2.129,2.128l-6.29,0.015v-0.015H5.024c-2.291,0-4.145-1.809-4.243-4.074L0.765,11.915
		C0.776,9.641,2.579,7.798,4.834,7.7l32.233-0.019C39.195,7.689,40.938,9.26,41.246,11.304L41.246,11.304z M5.024,11.958
		l0.003,1.466l0.009-1.457L6.4,11.958H5.024L5.024,11.958z M34.353,33.237c2.24-0.056,2.587-0.427,2.635-2.89l-0.019,2.872
		L34.353,33.237L34.353,33.237z M34.353,33.237c-0.458,0.01-0.987,0.01-1.619,0.01L34.353,33.237L34.353,33.237z M7.925,33.237
		l1.409,0.01C8.801,33.247,8.336,33.247,7.925,33.237L7.925,33.237z M40.414,5.556l2.882,0.019l0.016,2.392
		C43.249,5.932,42.841,5.608,40.414,5.556L40.414,5.556z M40.414,5.556l-1.419-0.009C39.532,5.547,40,5.547,40.414,5.556
		L40.414,5.556z M43.323,9.81l-0.012-1.842C43.323,8.47,43.323,9.072,43.323,9.81L43.323,9.81z"/>
</g>
</svg>
