<?xml version="1.0" encoding="utf-8"?>
<!-- Generator: Adobe Illustrator 16.0.0, SVG Export Plug-In . SVG Version: 6.00 Build 0)  -->
<!DOCTYPE svg PUBLIC "-//W3C//DTD SVG 1.1//EN" "http://www.w3.org/Graphics/SVG/1.1/DTD/svg11.dtd">
<svg version="1.1" id="图层_1" xmlns="http://www.w3.org/2000/svg" xmlns:xlink="http://www.w3.org/1999/xlink" x="0px" y="0px"
	 width="48px" height="48px" viewBox="0 0 48 48" enable-background="new 0 0 48 48" xml:space="preserve">
<g>
	<path fill-rule="evenodd" clip-rule="evenodd" fill="#4EB390" d="M39.878,19.983c-1.288-4.616-3.861-7.199-7.261-7.326V8.87
		c0-0.926-0.75-1.671-1.674-1.671c-0.921,0-1.672,0.746-1.672,1.671v3.773H18.682V8.87c0-0.926-0.748-1.671-1.674-1.671
		c-0.923,0-1.672,0.746-1.672,1.671v3.783c-3.441,0.117-5.888,2.578-7.262,7.296L2.008,38.666c-0.054,0.166-0.083,0.34-0.083,0.512
		C1.925,43.491,5.332,47,9.519,47h28.906c4.184,0,7.591-3.509,7.591-7.823c0-0.171-0.029-0.346-0.083-0.512L39.878,19.983
		L39.878,19.983z M38.425,43.657H9.519c-2.264,0-4.121-1.877-4.24-4.231l5.992-18.493c1.29-4.436,3.081-4.947,4.313-4.947h16.77
		c1.348,0,3.183,0.858,4.309,4.923c0.007,0.024,0.015,0.049,0.022,0.073l5.978,18.444C42.544,41.78,40.689,43.657,38.425,43.657
		L38.425,43.657z"/>
	<path fill-rule="evenodd" clip-rule="evenodd" fill="#4EB390" d="M17.446,20.953c-0.926,0-1.671,0.746-1.671,1.672v1.632
		c0,0.921,0.746,1.671,1.671,1.671c0.921,0,1.67-0.75,1.67-1.671v-1.632C19.116,21.698,18.368,20.953,17.446,20.953L17.446,20.953z"
		/>
	<path fill-rule="evenodd" clip-rule="evenodd" fill="#4EB390" d="M30.497,20.953c-0.923,0-1.674,0.746-1.674,1.672v1.632
		c0,0.921,0.75,1.671,1.674,1.671c0.921,0,1.671-0.75,1.671-1.671v-1.632C32.168,21.698,31.418,20.953,30.497,20.953L30.497,20.953z
		"/>
	<path fill-rule="evenodd" clip-rule="evenodd" fill="#4EB390" d="M28.082,28.503c-0.778-0.497-1.811-0.273-2.313,0.507
		c-0.005,0.01-0.714,1.043-1.816,1.043c-1.072,0-1.737-0.97-1.782-1.038c-0.492-0.775-1.514-1.009-2.293-0.521
		c-0.785,0.487-1.026,1.516-0.536,2.3c0.597,0.965,2.244,2.603,4.611,2.603c2.352,0,4.021-1.624,4.635-2.583
		C29.086,30.038,28.861,29.004,28.082,28.503L28.082,28.503z"/>
	<path fill-rule="evenodd" clip-rule="evenodd" fill="#4EB390" d="M47.778,11.059c-0.107-0.229-2.7-5.645-6.768-7.892
		c-2.676-1.482-12.217-1.876-16.889-1.876c-5.549,0-14.707,0.502-17.191,1.876c-4.065,2.247-6.66,7.662-6.77,7.892
		c-0.395,0.837-0.037,1.833,0.797,2.227c0.836,0.4,1.831,0.039,2.228-0.794c0.614-1.292,2.766-4.962,5.367-6.4
		c1.24-0.688,8.161-1.457,15.57-1.457c7.45,0,14.023,0.77,15.271,1.457c3.114,1.726,5.342,6.356,5.366,6.4
		c0.283,0.604,0.885,0.956,1.511,0.956c0.236,0,0.48-0.049,0.712-0.161C47.819,12.891,48.173,11.896,47.778,11.059L47.778,11.059z"
		/>
</g>
</svg>
