<?xml version="1.0" encoding="utf-8"?>
<!-- Generator: Adobe Illustrator 16.0.0, SVG Export Plug-In . SVG Version: 6.00 Build 0)  -->
<!DOCTYPE svg PUBLIC "-//W3C//DTD SVG 1.1//EN" "http://www.w3.org/Graphics/SVG/1.1/DTD/svg11.dtd">
<svg version="1.1" id="图层_1" xmlns="http://www.w3.org/2000/svg" xmlns:xlink="http://www.w3.org/1999/xlink" x="0px" y="0px"
	 width="48px" height="48px" viewBox="0 0 48 48" enable-background="new 0 0 48 48" xml:space="preserve">
<g>
	<path fill-rule="evenodd" clip-rule="evenodd" fill="#DA6339" d="M40.037,20.461H31.18c-0.225,0-0.426,0.079-0.637,0.129V10.053
		c0-2.276-1.852-4.127-4.127-4.127H9.217c-2.275,0-4.127,1.851-4.127,4.127v31.555h7.455h10.543h5.283h2.172h12.301V23.271
		C42.844,21.723,41.586,20.461,40.037,20.461L40.037,20.461z M14.717,39.435v-5.937h6.197v5.937H14.717L14.717,39.435z
		 M28.371,39.435h-5.283v-6.288c0-1.004-0.818-1.822-1.822-1.822h-6.898c-1.006,0-1.822,0.818-1.822,1.822v6.288H7.262V10.053
		c0-1.078,0.879-1.955,1.955-1.955h17.199c1.078,0,1.955,0.877,1.955,1.955v13.218V39.435L28.371,39.435z M40.672,39.435H30.543
		v-4.58h7.223c0.6,0,1.086-0.486,1.086-1.086c0-0.601-0.486-1.087-1.086-1.087h-7.223v-3.168h7.223c0.6,0,1.086-0.484,1.086-1.086
		c0-0.6-0.486-1.086-1.086-1.086h-7.223v-4.071c0-0.345,0.291-0.637,0.637-0.637h8.857c0.344,0,0.635,0.292,0.635,0.637V39.435
		L40.672,39.435z"/>
	<path fill-rule="evenodd" clip-rule="evenodd" fill="#DA6339" d="M22.479,18.471h-3.576v-3.576c0-0.601-0.484-1.086-1.084-1.086
		c-0.602,0-1.086,0.485-1.086,1.086v3.576h-3.578c-0.602,0-1.086,0.485-1.086,1.086c0,0.6,0.484,1.086,1.086,1.086h3.578v3.576
		c0,0.602,0.484,1.087,1.086,1.087c0.6,0,1.084-0.485,1.084-1.087v-3.576h3.576c0.6,0,1.088-0.486,1.088-1.086
		C23.566,18.957,23.078,18.471,22.479,18.471L22.479,18.471z"/>
</g>
</svg>
