<?xml version="1.0" encoding="utf-8"?>
<!-- Generator: Adobe Illustrator 16.0.0, SVG Export Plug-In . SVG Version: 6.00 Build 0)  -->
<!DOCTYPE svg PUBLIC "-//W3C//DTD SVG 1.1//EN" "http://www.w3.org/Graphics/SVG/1.1/DTD/svg11.dtd">
<svg version="1.1" id="图层_1" xmlns="http://www.w3.org/2000/svg" xmlns:xlink="http://www.w3.org/1999/xlink" x="0px" y="0px"
	 width="48px" height="48px" viewBox="0 0 48 48" enable-background="new 0 0 48 48" xml:space="preserve">
<g>
	<path fill-rule="evenodd" clip-rule="evenodd" fill="#D99516" d="M27.831,44.572c-1.35,0-2.7,0-4.05,0c-2.001,0-4.002,0-6.004,0
		c-0.523,0-1.048,0.01-1.571-0.019c-0.185-0.01-0.368-0.023-0.551-0.042c-0.097-0.01-0.193-0.022-0.289-0.034
		c-0.188-0.022,0.093,0.012,0.106,0.015c-0.063-0.012-0.127-0.018-0.19-0.028c-0.378-0.06-0.752-0.139-1.123-0.234
		c-0.366-0.094-0.728-0.207-1.083-0.336c-0.176-0.063-0.349-0.137-0.524-0.204c0.012,0.004,0.263,0.114,0.096,0.039
		c-0.038-0.017-0.076-0.033-0.114-0.051c-0.095-0.042-0.189-0.085-0.283-0.13c-0.679-0.326-1.328-0.715-1.934-1.161
		c-0.07-0.052-0.316-0.26-0.043-0.03c-0.063-0.053-0.13-0.102-0.193-0.154c-0.151-0.122-0.3-0.249-0.445-0.379
		c-0.283-0.254-0.554-0.52-0.813-0.799c-0.111-0.12-0.221-0.242-0.328-0.367c-0.067-0.079-0.132-0.157-0.197-0.237
		c-0.056-0.069-0.256-0.363-0.053-0.063c-0.208-0.308-0.436-0.598-0.633-0.913c-0.198-0.315-0.381-0.639-0.548-0.972
		c-0.08-0.157-0.155-0.316-0.228-0.477c-0.036-0.078-0.159-0.386-0.024-0.046c-0.039-0.098-0.079-0.194-0.117-0.291
		c-0.273-0.707-0.479-1.44-0.614-2.187c-0.017-0.095-0.033-0.189-0.047-0.284c-0.008-0.052-0.012-0.107-0.024-0.159
		c0.003,0.013,0.037,0.294,0.015,0.107c-0.022-0.194-0.043-0.387-0.059-0.581c-0.023-0.306-0.034-0.612-0.035-0.919
		c-0.001-0.308,0-0.616,0-0.925c0-1.747,0-3.492,0-5.238c0-2.178,0-4.356,0-6.536c0-1.324,0-2.649,0-3.972
		c0-0.201,0.001-0.401,0.009-0.602c0.007-0.184,0.019-0.369,0.034-0.553c0.008-0.097,0.018-0.194,0.028-0.291
		c0.01-0.094,0.07-0.461,0.008-0.085c0.063-0.379,0.125-0.755,0.216-1.129c0.089-0.368,0.195-0.731,0.319-1.089
		c0.061-0.177,0.126-0.353,0.196-0.528c0.015-0.038,0.031-0.077,0.047-0.116c0.068-0.17-0.035,0.084-0.041,0.096
		c0.047-0.092,0.083-0.192,0.127-0.286c0.315-0.685,0.695-1.34,1.132-1.953c0.054-0.075,0.109-0.15,0.164-0.226
		c0.024-0.032,0.052-0.064,0.075-0.098c-0.167,0.246-0.108,0.138-0.063,0.081c0.122-0.152,0.245-0.304,0.374-0.451
		C8.798,9.46,9.053,9.192,9.319,8.935c0.274-0.263,0.56-0.513,0.857-0.75c0.032-0.025,0.066-0.05,0.097-0.077
		c-0.01,0.009-0.226,0.17-0.08,0.063c0.074-0.055,0.148-0.11,0.223-0.165c0.159-0.115,0.32-0.225,0.484-0.332
		c0.312-0.202,0.633-0.389,0.962-0.563c0.156-0.083,0.313-0.16,0.473-0.235c0.084-0.039,0.169-0.079,0.255-0.116
		c0.039-0.017,0.077-0.032,0.114-0.05c-0.315,0.145-0.105,0.045-0.038,0.017c0.702-0.284,1.43-0.501,2.173-0.646
		c0.188-0.038,0.378-0.068,0.568-0.099c0.071-0.011,0.215-0.023-0.107,0.013c0.042-0.005,0.085-0.01,0.128-0.015
		c0.107-0.014,0.214-0.025,0.322-0.035c0.369-0.034,0.74-0.05,1.111-0.051c0.116,0,0.231,0,0.347,0c0.732,0,1.465,0,2.197,0
		c2.123,0,4.244,0,6.366,0c0.634,0,1.267,0,1.9,0c0.293,0,0.587,0.004,0.88,0.022c0.195,0.012,0.389,0.027,0.583,0.049
		c0.086,0.008,0.171,0.02,0.256,0.03c-0.376-0.043-0.012,0.001,0.083,0.017c0.376,0.062,0.75,0.142,1.12,0.239
		c0.365,0.097,0.726,0.21,1.08,0.341c0.088,0.033,0.176,0.066,0.263,0.101c0.08,0.032,0.381,0.169,0.049,0.018
		c0.18,0.082,0.36,0.16,0.538,0.247c0.667,0.327,1.304,0.715,1.9,1.158c0.041,0.03,0.081,0.064,0.124,0.092
		c-0.011-0.007-0.222-0.174-0.081-0.062c0.064,0.052,0.129,0.103,0.192,0.154c0.158,0.13,0.314,0.265,0.466,0.403
		c0.273,0.248,0.536,0.509,0.785,0.781c0.119,0.128,0.234,0.26,0.346,0.393c0.059,0.07,0.118,0.142,0.176,0.214
		c0.025,0.032,0.051,0.065,0.076,0.097c0.144,0.179-0.161-0.217-0.024-0.032c0.22,0.299,0.433,0.601,0.628,0.916
		c0.196,0.317,0.377,0.642,0.544,0.975c0.083,0.167,0.162,0.335,0.238,0.506c0.017,0.039,0.032,0.077,0.05,0.115
		c-0.005-0.012-0.109-0.266-0.041-0.096c0.039,0.096,0.078,0.193,0.115,0.291c0.27,0.709,0.472,1.444,0.603,2.191
		c0.017,0.095,0.032,0.19,0.046,0.286c0.013,0.082,0.022,0.253-0.009-0.076c0.004,0.042,0.011,0.086,0.016,0.128
		c0.023,0.194,0.042,0.388,0.056,0.581c0.02,0.286,0.029,0.572,0.03,0.857c0,0.092,0,0.185,0,0.277c0,1.443,0,2.885,0,4.328
		c0,2.199,0,4.398,0,6.598c0,1.651,0,3.303,0,4.954c0,0.393,0.005,0.787-0.012,1.179c-0.008,0.195-0.021,0.39-0.039,0.585
		c-0.008,0.085-0.017,0.171-0.027,0.257c-0.005,0.042-0.011,0.085-0.016,0.128c-0.026,0.228,0.038-0.255,0.006-0.043
		c-0.059,0.378-0.13,0.753-0.223,1.126c-0.09,0.368-0.199,0.73-0.324,1.087c-0.063,0.177-0.129,0.353-0.199,0.526
		c-0.016,0.039-0.033,0.077-0.048,0.116c0.107-0.288,0.069-0.161,0.04-0.096c-0.042,0.095-0.084,0.19-0.128,0.284
		c-0.319,0.683-0.702,1.335-1.142,1.948c-0.055,0.074-0.11,0.148-0.165,0.223c-0.042,0.058-0.133,0.152,0.063-0.08
		c-0.026,0.031-0.051,0.064-0.076,0.097c-0.122,0.153-0.247,0.302-0.375,0.449c-0.25,0.285-0.514,0.559-0.79,0.82
		c-0.269,0.255-0.55,0.494-0.839,0.724c-0.057,0.046-0.166,0.105,0.081-0.062c-0.034,0.022-0.066,0.05-0.099,0.074
		c-0.074,0.056-0.149,0.11-0.224,0.164c-0.16,0.113-0.321,0.223-0.486,0.328c-0.313,0.202-0.635,0.388-0.965,0.558
		c-0.165,0.086-0.333,0.169-0.502,0.246c-0.075,0.035-0.151,0.068-0.228,0.102c-0.167,0.075,0.084-0.034,0.096-0.039
		c-0.058,0.022-0.116,0.047-0.173,0.07c-0.684,0.272-1.393,0.482-2.115,0.625c-0.178,0.035-0.357,0.066-0.536,0.093
		c-0.047,0.007-0.197,0.026-0.01,0.002c0.209-0.026-0.008,0-0.042,0.005c-0.086,0.01-0.171,0.018-0.257,0.027
		C28.616,44.553,28.224,44.571,27.831,44.572c-0.587,0.001-1.149,0.515-1.122,1.123c0.027,0.606,0.493,1.124,1.122,1.122
		c3.343-0.009,6.581-1.308,9.019-3.59c2.425-2.271,3.893-5.425,4.126-8.733c0.081-1.141,0.03-2.301,0.03-3.444
		c0-2.117,0-4.234,0-6.352c0-2.005,0-4.01,0-6.016c0-1.472,0.027-2.921-0.248-4.378c-0.613-3.249-2.525-6.116-5.151-8.087
		c-2.268-1.704-5.08-2.564-7.905-2.564c-1.685,0-3.368,0-5.052,0c-1.826,0-3.651,0-5.477,0c-2.634,0-5.211,0.656-7.432,2.103
		c-2.751,1.794-4.81,4.584-5.635,7.773c-0.287,1.108-0.42,2.26-0.42,3.404c0,0.461,0,0.923,0,1.384c0,1.933,0,3.867,0,5.8
		c0,2.155,0,4.311,0,6.467c0,1.02-0.002,2.039,0,3.06c0.008,3.341,1.308,6.58,3.591,9.018c2.272,2.425,5.425,3.892,8.732,4.127
		c0.57,0.041,1.143,0.031,1.713,0.031c0.899,0,1.799,0,2.698,0c2.083,0,4.167,0,6.251,0c0.387,0,0.773,0,1.159,0
		c0.587,0,1.15-0.517,1.123-1.123C28.927,45.086,28.46,44.572,27.831,44.572L27.831,44.572z"/>
	<path fill-rule="evenodd" clip-rule="evenodd" fill="#D99516" d="M13.585,15.9 M12.124,15.9"/>
	<path fill-rule="evenodd" clip-rule="evenodd" fill="#D99516" d="M22.354,15.9 M20.893,15.9"/>
	<path fill-rule="evenodd" clip-rule="evenodd" fill="#D99516" d="M31.123,15.9 M29.661,15.9"/>
	<path fill-rule="evenodd" clip-rule="evenodd" fill="#D99516" d="M13.585,24.331c0.583,0,1.165,0,1.747,0c1.398,0,2.796,0,4.194,0
		c1.683,0,3.366,0,5.049,0c1.462,0,2.924,0,4.386,0c0.709,0,1.422,0.017,2.132,0c0.01-0.001,0.02,0,0.03,0
		c0.586,0,1.149-0.517,1.122-1.123c-0.027-0.608-0.493-1.123-1.122-1.123c-0.583,0-1.165,0-1.747,0c-1.398,0-2.796,0-4.194,0
		c-1.683,0-3.366,0-5.049,0c-1.461,0-2.924,0-4.386,0c-0.71,0-1.422-0.018-2.132,0c-0.01,0-0.02,0-0.03,0
		c-0.587,0-1.149,0.517-1.123,1.123C12.49,23.816,12.956,24.331,13.585,24.331L13.585,24.331L13.585,24.331z"/>
	<path fill-rule="evenodd" clip-rule="evenodd" fill="#D99516" d="M13.585,30.176c1.321,0,2.643,0,3.963,0c2.096,0,4.191,0,6.286,0
		c0.481,0,0.961,0,1.442,0c0.587,0,1.149-0.516,1.122-1.123c-0.027-0.608-0.493-1.122-1.122-1.122c-1.321,0-2.643,0-3.964,0
		c-2.095,0-4.191,0-6.286,0c-0.48,0-0.961,0-1.441,0c-0.587,0-1.149,0.515-1.123,1.122C12.49,29.662,12.956,30.176,13.585,30.176
		L13.585,30.176L13.585,30.176z"/>
	<path fill-rule="evenodd" clip-rule="evenodd" fill="#D99516" d="M13.585,36.022c0.583,0,1.165,0,1.747,0c1.398,0,2.796,0,4.194,0
		c1.683,0,3.366,0,5.049,0c1.462,0,2.924,0,4.386,0c0.709,0,1.422,0.018,2.132,0c0.01,0,0.02,0,0.03,0
		c0.586,0,1.149-0.516,1.122-1.123c-0.027-0.608-0.493-1.123-1.122-1.123c-0.583,0-1.165,0-1.747,0c-1.398,0-2.796,0-4.194,0
		c-1.683,0-3.366,0-5.049,0c-1.461,0-2.924,0-4.386,0c-0.71,0-1.422-0.018-2.132,0c-0.01,0.001-0.02,0-0.03,0
		c-0.587,0-1.149,0.516-1.123,1.123C12.49,35.507,12.956,36.022,13.585,36.022L13.585,36.022L13.585,36.022z"/>
</g>
</svg>
