<?xml version="1.0" encoding="utf-8"?>
<!-- Generator: Adobe Illustrator 16.0.0, SVG Export Plug-In . SVG Version: 6.00 Build 0)  -->
<!DOCTYPE svg PUBLIC "-//W3C//DTD SVG 1.1//EN" "http://www.w3.org/Graphics/SVG/1.1/DTD/svg11.dtd">
<svg version="1.1" id="图层_1" xmlns="http://www.w3.org/2000/svg" xmlns:xlink="http://www.w3.org/1999/xlink" x="0px" y="0px"
	 width="48px" height="48px" viewBox="0 0 48 48" enable-background="new 0 0 48 48" xml:space="preserve">
<g>
	<g>
		<path fill="#76CAE3" d="M34.006,0.724c-4.783,0-7.929,2.117-9.745,3.875l-0.12,0.12l-0.125-0.12
			c-1.875-1.758-5.144-3.875-9.864-3.875c-7.508,0-11.563,6.964-11.563,13.56c0,9.326,7.022,17.856,20.764,25.424l0.788,0.426
			l0.783-0.426c13.861-7.568,20.889-16.161,20.889-25.544C45.813,7.569,41.392,0.724,34.006,0.724L34.006,0.724z M24.261,36.321
			l-0.063,0.058l-0.057-0.058C12.03,29.534,5.919,22.096,5.919,14.222c0-3.989,2.239-10.288,8.291-10.288
			c5.69,0,8.536,3.932,8.658,4.119l1.394,2.054l1.334-2.054c0-0.063,2.658-4.063,8.473-4.063c6.171,0,8.474,6.299,8.474,10.231
			C42.542,21.971,36.183,29.602,24.261,36.321L24.261,36.321z M24.261,36.321"/>
		<path fill="#76CAE3" d="M13.484,41.83h0.12v5.446h3.334v-8.593h-1.636c-0.12,0-10.715-0.125-11.079-5.451l-3.269,0.12
			C1.258,40.071,9.851,41.528,13.484,41.83L13.484,41.83z M13.484,41.83"/>
		<path fill="#76CAE3" d="M47.443,33.29l-3.269-0.12c-0.364,5.326-10.954,5.451-11.079,5.451h-1.636v8.655h3.27V41.83h0.122
			C38.547,41.528,47.139,40.071,47.443,33.29L47.443,33.29z M47.443,33.29"/>
		<path fill="#76CAE3" d="M9.188,12.713c0,1.086,0.242,6.236,5.204,8.957l1.516-2.903c-3.207-1.758-3.454-5.086-3.454-5.935
			L9.188,12.713L9.188,12.713z M9.188,12.713"/>
	</g>
</g>
</svg>
