<?xml version="1.0" encoding="utf-8"?>
<!-- Generator: Adobe Illustrator 16.0.0, SVG Export Plug-In . SVG Version: 6.00 Build 0)  -->
<!DOCTYPE svg PUBLIC "-//W3C//DTD SVG 1.1//EN" "http://www.w3.org/Graphics/SVG/1.1/DTD/svg11.dtd">
<svg version="1.1" id="图层_1" xmlns="http://www.w3.org/2000/svg" xmlns:xlink="http://www.w3.org/1999/xlink" x="0px" y="0px"
	 width="48px" height="48px" viewBox="0 0 48 48" enable-background="new 0 0 48 48" xml:space="preserve">
<g>
	<path fill-rule="evenodd" clip-rule="evenodd" fill="#D06539" d="M41.793,4.146h-5.724V2.24c0-1.053-0.854-1.906-1.905-1.906
		c-1.053,0-1.906,0.854-1.906,1.906v1.906H17.007V2.24c0-1.053-0.854-1.906-1.906-1.906c-1.055,0-1.905,0.854-1.905,1.906v1.906
		H7.475c-3.164,0-5.722,2.566-5.722,5.724v32.413C1.753,45.439,4.311,48,7.475,48h34.318c3.16,0,5.719-2.561,5.719-5.718V9.869
		C47.512,6.711,44.953,4.146,41.793,4.146L41.793,4.146z M45.604,42.282c0,2.1-1.709,3.812-3.812,3.812H7.475
		c-2.107,0-3.815-1.712-3.815-3.812V9.869c0-2.105,1.708-3.813,3.815-3.813h5.721v3.813c0,1.052,0.851,1.9,1.905,1.9
		c1.053,0,1.906-0.848,1.906-1.9V6.057h15.251v3.813c0,1.052,0.854,1.9,1.906,1.9c1.052,0,1.905-0.848,1.905-1.9V6.057h5.724
		c2.103,0,3.812,1.708,3.812,3.813V42.282L45.604,42.282L45.604,42.282z"/>
	<path fill-rule="evenodd" clip-rule="evenodd" fill="#D06539" d="M33.002,18.493L22.215,29.28l-4.045-4.048
		c-0.744-0.738-1.954-0.738-2.694,0c-0.746,0.749-0.746,1.954,0,2.702l5.393,5.389c0.743,0.748,1.951,0.748,2.691,0L35.697,21.19
		c0.746-0.744,0.746-1.953,0-2.697S33.745,17.75,33.002,18.493L33.002,18.493z"/>
</g>
</svg>
