<?xml version="1.0" encoding="utf-8"?>
<!-- Generator: Adobe Illustrator 16.0.0, SVG Export Plug-In . SVG Version: 6.00 Build 0)  -->
<!DOCTYPE svg PUBLIC "-//W3C//DTD SVG 1.1//EN" "http://www.w3.org/Graphics/SVG/1.1/DTD/svg11.dtd">
<svg version="1.1" id="图层_1" xmlns="http://www.w3.org/2000/svg" xmlns:xlink="http://www.w3.org/1999/xlink" x="0px" y="0px"
	 width="48px" height="48px" viewBox="0 0 48 48" enable-background="new 0 0 48 48" xml:space="preserve">
<g>
	<g>
		<path fill-rule="evenodd" clip-rule="evenodd" fill="#B2B2B2" d="M42.21,43.417L31.757,33.134
			c2.737-2.973,4.419-6.904,4.419-11.232c0-9.254-7.623-16.757-17.029-16.757c-9.406,0-17.029,7.503-17.029,16.757
			c0,9.256,7.624,16.76,17.029,16.76c4.063,0,7.791-1.406,10.717-3.745l10.492,10.325c0.512,0.503,1.34,0.503,1.854,0
			C42.72,44.736,42.72,43.922,42.21,43.417L42.21,43.417 M19.146,36.081c-7.957,0-14.409-6.348-14.409-14.18
			c0-7.831,6.452-14.179,14.409-14.179c7.959,0,14.407,6.348,14.407,14.179C33.554,29.733,27.105,36.081,19.146,36.081
			L19.146,36.081 M19.146,36.081"/>
	</g>
</g>
</svg>
