<?xml version="1.0" encoding="utf-8"?>
<!-- Generator: Adobe Illustrator 16.0.0, SVG Export Plug-In . SVG Version: 6.00 Build 0)  -->
<!DOCTYPE svg PUBLIC "-//W3C//DTD SVG 1.1//EN" "http://www.w3.org/Graphics/SVG/1.1/DTD/svg11.dtd">
<svg version="1.1" id="图层_1" xmlns="http://www.w3.org/2000/svg" xmlns:xlink="http://www.w3.org/1999/xlink" x="0px" y="0px"
	 width="48px" height="48px" viewBox="0 0 48 48" enable-background="new 0 0 48 48" xml:space="preserve">
<g>
	<polygon fill-rule="evenodd" clip-rule="evenodd" fill="#C68982" points="9.624,10.37 35.483,10.37 35.483,13.243 9.624,13.243 
		9.624,10.37 	"/>
	<polygon fill-rule="evenodd" clip-rule="evenodd" fill="#C68982" points="9.624,16.119 35.483,16.119 35.483,18.992 9.624,18.992 
		9.624,16.119 	"/>
	<polygon fill-rule="evenodd" clip-rule="evenodd" fill="#C68982" points="9.624,21.864 21.118,21.864 21.118,24.736 9.624,24.736 
		9.624,21.864 	"/>
	<polygon fill-rule="evenodd" clip-rule="evenodd" fill="#C68982" points="32.608,41.136 25.85,34.372 27.877,32.343 32.608,37.072 
		40.217,29.471 42.247,31.5 32.608,41.136 	"/>
	<polygon fill-rule="evenodd" clip-rule="evenodd" fill="#C68982" points="1,1.749 1,44.852 15.371,30.485 11.328,30.485 
		3.875,37.926 3.875,4.621 38.358,4.621 38.358,18.992 41.233,18.992 41.233,1.749 1,1.749 	"/>
	<path fill-rule="evenodd" clip-rule="evenodd" fill="#C68982" d="M34.048,24.736c2.685,0,5.212,1.05,7.112,2.948
		c1.897,1.898,2.945,4.421,2.945,7.113c0,2.685-1.048,5.208-2.945,7.111c-1.9,1.898-4.428,2.943-7.112,2.943
		c-2.688,0-5.215-1.045-7.113-2.943c-1.899-1.903-2.945-4.426-2.945-7.111c0-2.691,1.046-5.215,2.945-7.113
		C28.833,25.786,31.359,24.736,34.048,24.736L34.048,24.736z M34.048,21.864c-7.144,0-12.93,5.79-12.93,12.933
		c0,7.142,5.786,12.932,12.93,12.932c7.143,0,12.93-5.79,12.93-12.932C46.978,27.654,41.19,21.864,34.048,21.864L34.048,21.864"/>
</g>
</svg>
