<svg xmlns="http://www.w3.org/2000/svg" style="width:0; height:0; visibility:hidden;">
    <symbol id="icon_nav_activity" viewBox="0 0 48 48">
       <g> <path fill="#DA506C" d="M45.419,22.753H2.301c-0.584,0-1.06-0.471-1.06-1.053v-8.667c0-0.587,0.476-1.055,1.06-1.055h43.118
		c0.583,0,1.058,0.468,1.058,1.055V21.7C46.477,22.282,46.002,22.753,45.419,22.753L45.419,22.753z M3.358,20.641h41.008v-6.554
		H3.358V20.641L3.358,20.641z M3.358,20.641"/> <path fill="#DA506C" d="M42.883,45.744H4.942c-0.583,0-1.058-0.478-1.058-1.058V22.12c0-0.584,0.475-1.058,1.058-1.058
		s1.057,0.474,1.057,1.058v21.508h35.825V22.12c0-0.584,0.476-1.058,1.059-1.058c0.584,0,1.058,0.474,1.058,1.058v22.566
		C43.94,45.267,43.467,45.744,42.883,45.744L42.883,45.744z M42.883,45.744"/> <path fill="#DA506C" d="M23.999,45.054c-0.583,0-1.057-0.472-1.057-1.056V6.322c0-0.584,0.474-1.058,1.057-1.058
		c0.586,0,1.059,0.474,1.059,1.058v37.676C25.058,44.582,24.585,45.054,23.999,45.054L23.999,45.054z M23.999,45.054"/> <path fill="#DA506C" d="M33.309,13.547c-0.29,0-0.578-0.112-0.782-0.342c-0.399-0.428-0.363-1.102,0.066-1.491
		c0.963-0.88,1.517-2.135,1.517-3.438c0-2.652-1.997-4.648-4.65-4.648c-1.869,0-3.552,1.11-4.281,2.835
		c-0.229,0.541-0.851,0.791-1.387,0.566C23.253,6.8,23,6.18,23.228,5.642c1.061-2.51,3.508-4.13,6.231-4.13
		c1.863,0,3.585,0.706,4.847,1.989c1.239,1.258,1.919,2.956,1.919,4.775c0,1.897-0.806,3.718-2.208,4.999
		C33.812,13.462,33.561,13.547,33.309,13.547L33.309,13.547z M33.309,13.547"/> <path fill="#DA506C" d="M14.756,13.547c-0.252,0-0.508-0.085-0.711-0.271c-1.404-1.281-2.209-3.102-2.209-4.999
		c0-1.819,0.684-3.518,1.922-4.775c1.259-1.283,2.979-1.989,4.842-1.989c2.724,0,5.171,1.62,6.234,4.13
		c0.224,0.538-0.028,1.158-0.565,1.388c-0.534,0.225-1.157-0.025-1.385-0.566c-0.727-1.725-2.411-2.835-4.284-2.835
		c-2.651,0-4.649,1.996-4.649,4.648c0,1.303,0.553,2.558,1.516,3.438c0.433,0.39,0.464,1.063,0.071,1.491
		C15.329,13.435,15.045,13.547,14.756,13.547L14.756,13.547z M14.756,13.547"/> </g> 
    </symbol>
    <symbol id="icon_nav_circle" viewBox="0 0 48 48">
       <g> <g> <path fill="#DDA872" d="M24,1.631c-12.782,0-23.181,10.403-23.181,23.184S11.217,48,24,48c12.784,0,23.182-10.405,23.182-23.186
			S36.784,1.631,24,1.631L24,1.631z M24,45.559c-11.438,0-20.741-9.308-20.741-20.744S12.562,4.074,24,4.074
			c11.437,0,20.741,9.304,20.741,20.74S35.436,45.559,24,45.559L24,45.559z M24,45.559"/> <path fill="#DDA872" d="M18.272,23.145c0.673,0,1.221-0.549,1.221-1.223c0-0.676-0.548-1.223-1.221-1.223
			c-1.921,0-3.487-1.572-3.487-3.511c0-1.941,1.566-3.516,3.487-3.516c0.476,0,0.936,0.096,1.367,0.278
			c0.62,0.271,1.336-0.017,1.602-0.632c0.265-0.624-0.019-1.342-0.64-1.607c-0.74-0.318-1.523-0.479-2.33-0.479
			c-3.266,0-5.926,2.674-5.926,5.955c0,1.512,0.568,2.885,1.495,3.939c-5.975,2.825-6.229,8.417-6.236,8.673
			c-0.023,0.676,0.506,1.241,1.18,1.262c0.013,0,0.026,0,0.039,0c0.656,0,1.198-0.521,1.22-1.187c0-0.048,0.232-5.126,6.226-7.091
			C16.896,23.014,17.568,23.145,18.272,23.145L18.272,23.145z M18.272,23.145"/> <path fill="#DDA872" d="M38.32,30.035c-0.991-1.896-2.898-4.323-6.466-5.966c1.361-1.302,2.212-3.123,2.212-5.145
			c0-3.936-3.219-7.136-7.171-7.136c-3.955,0-7.172,3.2-7.172,7.136c0,1.963,0.799,3.741,2.09,5.032
			c-7.756,3.421-8.083,10.668-8.087,10.745c-0.021,0.671,0.501,1.23,1.172,1.256c0.017,0,0.033,0,0.048,0
			c0.65,0,1.192-0.518,1.22-1.173c0.009-0.274,0.371-6.717,8.2-9.189c0.788,0.296,1.638,0.466,2.529,0.466
			c0.824,0,1.612-0.144,2.354-0.399c7.633,2.519,7.999,8.838,8.012,9.123c0.025,0.655,0.564,1.177,1.218,1.177
			c0.012,0,0.029,0,0.037,0c0.676-0.025,1.201-0.589,1.186-1.26C39.698,34.612,39.612,32.495,38.32,30.035L38.32,30.035z
			 M26.896,23.623c-2.607,0-4.729-2.106-4.729-4.702c0-2.585,2.122-4.695,4.729-4.695c2.608,0,4.729,2.11,4.729,4.695
			C31.625,21.517,29.504,23.623,26.896,23.623L26.896,23.623z M26.896,23.623"/> <path fill="#DDA872" d="M29.99,19.258c-0.312-0.124-0.665,0.027-0.789,0.341c-0.303,0.758-0.932,1.655-2.247,1.655
			c-1.303,0-1.934-0.886-2.237-1.628c-0.128-0.313-0.482-0.468-0.797-0.341c-0.311,0.131-0.461,0.484-0.335,0.794
			c0.617,1.524,1.844,2.394,3.369,2.394c1.535,0,2.77-0.88,3.381-2.421C30.46,19.738,30.305,19.383,29.99,19.258L29.99,19.258z
			 M29.99,19.258"/> </g> </g> 
    </symbol>
    <symbol id="icon_nav_disease_info" viewBox="0 0 48 48">
       <g> <path fill-rule="evenodd" clip-rule="evenodd" fill="#3BA7C1" d="M47.599,45.376l-1.715,1.726c-0.679,0.676-1.775,0.676-2.452,0
		l-6.914-6.942c-1.663,0.975-3.6,1.537-5.669,1.537c-6.216,0-11.604-5.405-11.604-11.647c0-6.241,5.04-11.298,11.257-11.298
		c6.22,0,11.606,5.404,11.606,11.647c0,2.147-0.596,4.155-1.633,5.863l6.876,6.902C48.029,43.848,48.275,44.698,47.599,45.376
		L47.599,45.376 M30.502,22.226c-4.302,0-7.793,3.502-7.793,7.824c0,4.323,3.836,8.171,8.14,8.171c4.305,0,7.797-3.505,7.797-7.823
		C38.646,26.076,34.809,22.226,30.502,22.226L30.502,22.226 M6.587,32.917v-1.859h8.385c0.019,0.629,0.078,1.25,0.171,1.859H6.587
		L6.587,32.917 M6.587,25.484h9.253c-0.216,0.603-0.402,1.22-0.541,1.858H6.587V25.484L6.587,25.484 M6.587,21.77v-1.858h12.71
		c-0.563,0.576-1.077,1.198-1.54,1.858H6.587L6.587,21.77 M6.587,8.764h18.578v1.858H6.587V8.764L6.587,8.764 M25.165,16.156
		c-0.033,0.014-0.067,0.025-0.103,0.039H6.587v-1.859h18.578V16.156L25.165,16.156 M28.882,15.335V5.047H2.871V36.63h13.314
		c0.579,1.347,1.344,2.601,2.266,3.717H2.871c-1.027,0-1.857-0.831-1.857-1.859V3.189c0-1.028,0.83-1.858,1.857-1.858h26.011
		c1.025,0,1.857,0.831,1.857,1.858v12.099c-0.154-0.004-0.309-0.022-0.464-0.022C29.806,15.266,29.342,15.296,28.882,15.335
		L28.882,15.335 M28.882,15.335L28.882,15.335z"/> </g> 
    </symbol>
    <symbol id="icon_nav_health-manage" viewBox="0 0 48 48">
       <g> <path fill="#86C6A0" d="M12.825,32.145h10.436c0.864,0,1.565-0.697,1.565-1.562s-0.701-1.567-1.565-1.567H12.825
		c-0.864,0-1.565,0.703-1.565,1.567S11.961,32.145,12.825,32.145L12.825,32.145z M12.825,32.145"/> <path fill="#86C6A0" d="M30.563,37.419H12.825c-0.864,0-1.565,0.703-1.565,1.567c0,0.862,0.701,1.563,1.565,1.563h17.738
		c0.867,0,1.568-0.701,1.568-1.563C32.132,38.122,31.431,37.419,30.563,37.419L30.563,37.419z M30.563,37.419"/> <path fill="#86C6A0" d="M41.521,1.382H8.13C6.401,1.382,5,2.783,5,4.512v39.627c0,1.728,1.401,3.129,3.13,3.129h33.391
		c1.729,0,3.13-1.401,3.13-3.129V4.512C44.65,2.783,43.25,1.382,41.521,1.382L41.521,1.382z M41.521,8.378v34.721
		c0,0.573-0.468,1.04-1.044,1.04H9.175c-0.577,0-1.045-0.467-1.045-1.04V5.552c0-0.574,0.468-1.04,1.045-1.04h31.302
		c0.576,0,1.044,0.466,1.044,1.04V8.378L41.521,8.378z M41.521,8.378"/> <path fill="#86C6A0" d="M32.891,7.656c-1.41,0-2.822,0.533-3.892,1.604c-1.071-1.071-2.483-1.604-3.895-1.604
		c-1.409,0-2.822,0.533-3.891,1.604c-2.139,2.14-2.139,5.64,0,7.782l0,0l7.785,7.78l0,0l0,0l0,0l7.786-7.78
		c2.14-2.143,2.14-5.643,0-7.782C35.713,8.189,34.302,7.656,32.891,7.656L32.891,7.656z M34.569,14.83l-5.57,5.566l-5.574-5.566
		c-0.923-0.926-0.923-2.433,0.003-3.356c0.441-0.443,1.038-0.691,1.677-0.691c0.642,0.003,1.235,0.248,1.683,0.691l2.212,2.209
		l2.211-2.209c0.446-0.443,1.042-0.691,1.681-0.691s1.234,0.248,1.679,0.691c0.444,0.441,0.688,1.037,0.688,1.676
		C35.258,13.789,35.014,14.386,34.569,14.83L34.569,14.83z M34.569,14.83"/> </g> 
    </symbol>
    <symbol id="icon_nav_ill_info" viewBox="0 0 48 48">
       <g> <path fill-rule="evenodd" clip-rule="evenodd" fill="#DA506C" d="M44.229,14.881c-0.008-0.092-0.021-0.181-0.055-0.268
		c-0.008-0.029-0.018-0.059-0.029-0.086c-0.047-0.103-0.107-0.202-0.191-0.287L30.361,0.65c-0.084-0.084-0.184-0.144-0.287-0.192
		c-0.029-0.013-0.055-0.019-0.082-0.029c-0.09-0.032-0.182-0.051-0.273-0.055c-0.02-0.002-0.039-0.012-0.059-0.012H11.542
		c-4.294,0-7.784,3.49-7.784,7.782v31.713c0,4.29,3.49,7.781,7.784,7.781h24.915c4.289,0,7.783-3.491,7.783-7.781V14.939
		C44.24,14.918,44.229,14.901,44.229,14.881 M30.648,3.729l10.223,10.222L30.648,3.729z M41.225,15.925v23.93
		c0,3.204-1.564,5.102-4.768,5.102H11.542c-3.204,0-4.866-1.898-4.866-5.102V8.142c0-3.202,1.662-5.146,4.866-5.146h17.135
		L41.225,15.925z M35.324,23.014h-6.941v-6.942c0-0.544-0.441-0.987-0.986-0.987h-6.795c-0.545,0-0.986,0.443-0.986,0.987v6.942
		h-6.943c-0.544,0-0.988,0.442-0.988,0.987v6.794c0,0.546,0.443,0.986,0.988,0.986h6.943v6.943c0,0.545,0.441,0.986,0.986,0.986
		h6.795c0.545,0,0.986-0.441,0.986-0.986v-6.943h6.941c0.545,0,0.986-0.44,0.986-0.986V24
		C36.311,23.456,35.869,23.014,35.324,23.014 M34.338,29.807h-6.941c-0.543,0-0.984,0.442-0.984,0.988v6.942h-4.823v-6.94
		c0-0.548-0.441-0.988-0.985-0.988h-6.943v-4.822h6.943c0.543,0,0.985-0.442,0.985-0.986v-6.944h4.823v6.942
		c0,0.544,0.441,0.986,0.984,0.986h6.941V29.807"/> </g> 
    </symbol>
    <symbol id="icon_nav_inquiry" viewBox="0 0 48 48">
       <g> <path fill="#E4715D" d="M24.239,41.919c12.349,0,22.393-9.036,22.393-20.145S36.588,1.631,24.239,1.631
		c-12.35,0-22.396,9.035-22.396,20.144c0,6.522,3.533,12.668,9.451,16.441l0.136,0.088L11.427,48l8.539-6.442l0.122,0.021
		C21.446,41.807,22.846,41.919,24.239,41.919L24.239,41.919z M19.247,39.242l-5.188,3.696l0.026-5.557
		C7.83,34.154,3.949,28.178,3.949,21.774c0-9.947,9.102-18.043,20.29-18.043c11.184,0,20.288,8.096,20.288,18.043
		c0,9.95-9.104,18.042-20.288,18.042C22.604,39.816,20.927,39.622,19.247,39.242L19.247,39.242z M19.247,39.242"/> <path fill="#E4715D" d="M33.354,25.546H15.346c-0.458,0-0.829,0.545-0.829,1.224v0.534c0,0.669,0.371,1.217,0.829,1.217h18.009
		c0.458,0,0.83-0.548,0.83-1.217V26.77C34.185,26.091,33.813,25.546,33.354,25.546L33.354,25.546z M33.354,25.546"/> <path fill="#E4715D" d="M36.266,15.85H12.43c-0.618,0-1.118,0.544-1.118,1.22v0.535c0,0.676,0.5,1.222,1.118,1.222h23.836
		c0.619,0,1.119-0.546,1.119-1.222v-0.535C37.385,16.394,36.885,15.85,36.266,15.85L36.266,15.85z M36.266,15.85"/> </g> 
    </symbol>
    <symbol id="icon_nav_med" viewBox="0 0 48 48">
       <g> <path fill-rule="evenodd" clip-rule="evenodd" fill="#76CAE3" d="M42.993,5.299c-2.558-2.559-5.957-3.968-9.574-3.968
		c-3.616,0-7.018,1.409-9.575,3.968L4.648,24.494c-2.557,2.557-3.965,5.958-3.965,9.574c0,3.616,1.408,7.017,3.965,9.574
		c2.558,2.558,5.958,3.967,9.575,3.967c3.617,0,7.018-1.407,9.575-3.967l19.195-19.194c2.56-2.558,3.968-5.959,3.968-9.576
		C46.96,11.256,45.552,7.856,42.993,5.299L42.993,5.299z M22.294,42.14c-2.156,2.154-5.022,3.343-8.071,3.343
		c-3.049,0-5.915-1.188-8.071-3.343c-4.449-4.452-4.449-11.692,0-16.143l8.848-8.847l16.142,16.142L22.294,42.14L22.294,42.14z
		 M41.489,22.944l-8.844,8.845L16.503,15.646l8.845-8.844c2.156-2.157,5.023-3.345,8.072-3.345s5.915,1.188,8.069,3.345
		c2.157,2.155,3.345,5.022,3.345,8.069C44.834,17.92,43.646,20.788,41.489,22.944L41.489,22.944z"/> <path fill-rule="evenodd" clip-rule="evenodd" fill="#76CAE3" d="M33.419,5.171c-2.59,0-5.027,1.009-6.861,2.842l-6.149,6.149
		c-0.415,0.415-0.415,1.088,0,1.503c0.208,0.207,0.479,0.311,0.752,0.311c0.271,0,0.544-0.104,0.75-0.311l6.148-6.148
		c1.434-1.432,3.336-2.22,5.358-2.22c2.022,0,3.925,0.788,5.355,2.22c0.415,0.415,1.088,0.415,1.504,0
		c0.415-0.416,0.415-1.088,0-1.504C38.446,6.18,36.009,5.171,33.419,5.171L33.419,5.171z"/> </g> 
    </symbol>
    <symbol id="icon_nav_service" viewBox="0 0 48 48">
       <g> <g> <path fill="#76CAE3" d="M33.656,1.076c-4.708,0-7.81,2.084-9.597,3.816L23.94,5.011l-0.122-0.118
			c-1.846-1.732-5.067-3.816-9.716-3.816c-7.392,0-11.386,6.858-11.386,13.356c0,9.181,6.915,17.585,20.449,25.04l0.774,0.416
			l0.773-0.416c13.653-7.455,20.574-15.918,20.574-25.163C45.288,7.815,40.935,1.076,33.656,1.076L33.656,1.076z M24.059,36.131
			L24,36.195l-0.059-0.064C12.016,29.454,5.994,22.122,5.994,14.372c0-3.935,2.206-10.137,8.167-10.137
			c5.604,0,8.406,3.874,8.526,4.055l1.372,2.027l1.312-2.027c0-0.057,2.621-3.999,8.347-3.999c6.081,0,8.35,6.205,8.35,10.081
			C42.067,22.002,35.803,29.515,24.059,36.131L24.059,36.131z M24.059,36.131"/> <path fill="#76CAE3" d="M13.446,41.561h0.118v5.362h3.281v-8.465h-1.608c-0.121,0-10.555-0.119-10.913-5.367l-3.218,0.118
			C1.405,39.826,9.868,41.263,13.446,41.561L13.446,41.561z M13.446,41.561"/> <path fill="#76CAE3" d="M46.894,33.149l-3.217-0.114c-0.358,5.242-10.792,5.362-10.916,5.362h-1.609v8.525h3.221v-5.362h0.119
			C38.13,41.263,46.595,39.826,46.894,33.149L46.894,33.149z M46.894,33.149"/> <path fill="#76CAE3" d="M9.214,12.884c0,1.07,0.239,6.138,5.127,8.82l1.492-2.861c-3.162-1.729-3.4-5.009-3.4-5.841L9.214,12.884
			L9.214,12.884z M9.214,12.884"/> </g> </g> 
    </symbol>
    <symbol id="icon_nav_shop" viewBox="0 0 48 48">
       <g> <path fill="#36B7A6" d="M37.372,10.465H9.073c-0.549,0-0.998,0.449-0.998,1c0,0.553,0.449,1.004,0.998,1.004h28.299
		c0.555,0,1.004-0.451,1.004-1.004C38.376,10.914,37.927,10.465,37.372,10.465L37.372,10.465z M37.372,10.465"/> <path fill="#36B7A6" d="M39.981,4.411c-0.447-0.347-0.977-0.528-1.529-0.528H7.995c-0.553,0-1.082,0.182-1.52,0.524
		C6.065,4.713,5.761,5.142,5.571,5.65l-5.598,11.287v0.239c0,5.419,4.033,9.823,8.994,9.823c2.881,0,5.498-1.473,7.176-3.916
		C17.825,25.527,20.438,27,23.321,27c2.805,0,5.391-1.425,7.076-3.785c1.688,2.36,4.273,3.785,7.08,3.785c4.963,0,9-4.404,9-9.823
		v-0.239L40.876,5.65C40.694,5.149,40.386,4.717,39.981,4.411L39.981,4.411z M37.478,25c-2.586,0-4.953-1.587-6.176-4.141
		c-0.02-0.046-0.055-0.07-0.076-0.11c-0.041-0.06-0.074-0.11-0.127-0.16c-0.051-0.054-0.107-0.091-0.164-0.127
		c-0.041-0.022-0.064-0.058-0.107-0.077c-0.012-0.008-0.029-0.008-0.045-0.014c-0.07-0.027-0.137-0.038-0.213-0.051
		c-0.057-0.01-0.111-0.024-0.172-0.024c-0.057,0-0.117,0.015-0.178,0.027c-0.072,0.013-0.135,0.021-0.203,0.048
		c-0.014,0.006-0.037,0.006-0.051,0.014c-0.037,0.02-0.064,0.055-0.104,0.077c-0.055,0.036-0.115,0.073-0.168,0.127
		c-0.047,0.05-0.082,0.101-0.117,0.16c-0.029,0.04-0.061,0.064-0.08,0.11C28.274,23.413,25.907,25,23.321,25
		c-2.67,0-5.066-1.66-6.266-4.326c-0.018-0.045-0.055-0.072-0.08-0.12c-0.037-0.059-0.072-0.118-0.131-0.177
		c-0.051-0.05-0.111-0.081-0.168-0.123c-0.045-0.026-0.076-0.066-0.125-0.085c-0.006-0.004-0.016-0.004-0.027-0.008
		c-0.066-0.027-0.143-0.034-0.211-0.05c-0.057-0.009-0.115-0.025-0.17-0.025c-0.051,0-0.107,0.017-0.17,0.025
		c-0.068,0.016-0.145,0.022-0.209,0.05c-0.01,0.004-0.02,0.004-0.031,0.008c-0.045,0.019-0.078,0.059-0.123,0.088
		c-0.059,0.039-0.117,0.07-0.166,0.12c-0.059,0.059-0.092,0.118-0.131,0.177c-0.027,0.048-0.063,0.075-0.084,0.12
		C14.036,23.34,11.636,25,8.968,25c-3.783,0-6.883-3.384-6.992-7.593l5.42-10.925l0.051-0.123C7.485,6.252,7.554,6.1,7.698,5.992
		C7.792,5.921,7.89,5.884,7.995,5.884h30.457c0.105,0,0.207,0.031,0.307,0.112c0.137,0.107,0.203,0.253,0.242,0.355l5.475,11.056
		C44.366,21.616,41.269,25,37.478,25L37.478,25z M37.478,25"/> <path fill="#36B7A6" d="M40.856,29.762c-0.551,0-0.996,0.449-0.996,1.002v13.688c0,0.208-0.076,0.405-0.217,0.547
		c-0.131,0.136-0.305,0.208-0.486,0.208H7.294c-0.184,0-0.355-0.072-0.486-0.208c-0.141-0.147-0.219-0.339-0.219-0.547V30.764
		c0-0.553-0.449-1.002-1-1.002c-0.557,0-1,0.449-1,1.002v13.688c0,0.728,0.277,1.421,0.779,1.937
		c0.512,0.532,1.195,0.821,1.926,0.821h31.863c0.729,0,1.41-0.289,1.926-0.821c0.502-0.519,0.775-1.209,0.775-1.937V30.764
		C41.858,30.211,41.413,29.762,40.856,29.762L40.856,29.762z M40.856,29.762"/> </g> 
    </symbol></svg>