<svg xmlns="http://www.w3.org/2000/svg" style="width:0; height:0; visibility:hidden;">
    <symbol id="icon_cell_address" viewBox="0 0 48 48">
       <g> <path fill="#57A2D7" d="M42.712,36.826c0,4.027-9.986,6.133-19.855,6.133S3,40.854,3,36.826c0-3.573,7.697-5.062,11.004-5.537
		c0.493-0.068,0.947,0.272,1.018,0.765c0.071,0.493-0.27,0.947-0.763,1.021C7.371,34.06,4.801,35.9,4.801,36.826
		c0,1.769,7.035,4.332,18.056,4.332c11.024,0,18.058-2.563,18.058-4.332c0-0.935-2.596-2.782-9.551-3.767
		c-0.493-0.071-0.835-0.527-0.766-1.018c0.071-0.493,0.525-0.832,1.018-0.765C34.952,31.75,42.712,33.234,42.712,36.826
		L42.712,36.826z M19.052,15.45c0-2.102,1.706-3.807,3.805-3.807c2.101,0,3.809,1.705,3.809,3.807c0,2.099-1.708,3.809-3.809,3.809
		C20.758,19.259,19.052,17.549,19.052,15.45L19.052,15.45z M28.467,15.45c0-3.091-2.517-5.605-5.61-5.605
		c-3.091,0-5.607,2.517-5.607,5.605c0,3.093,2.517,5.607,5.607,5.607C25.95,21.058,28.467,18.543,28.467,15.45L28.467,15.45z
		 M22.857,5.784c5.537,0,10.042,4.507,10.042,10.039c0,7.674-7.779,16.294-10.049,18.647c-2.277-2.31-10.033-10.759-10.033-18.647
		C12.818,10.291,17.32,5.784,22.857,5.784L22.857,5.784z M22.245,36.4l0.621,0.579l0.616-0.588
		c0.455-0.438,11.219-10.858,11.219-20.566c0-6.528-5.313-11.842-11.844-11.842c-6.531,0-11.84,5.313-11.84,11.842
		C11.017,25.798,21.786,35.974,22.245,36.4L22.245,36.4z M22.245,36.4"/> </g> 
    </symbol>
    <symbol id="icon_cell_book" viewBox="0 0 48 48">
       <g> <path fill="#87538A" d="M32.499,31.73H16.475c-0.335,0-0.617,0.111-0.841,0.335c-0.224,0.225-0.335,0.495-0.335,0.822
		c0,0.321,0.111,0.604,0.335,0.837c0.224,0.24,0.506,0.359,0.841,0.359h-0.001h16.023c0.222,0,0.418-0.056,0.587-0.169
		c0.168-0.109,0.304-0.259,0.398-0.439c0.098-0.181,0.148-0.37,0.148-0.566c0-0.337-0.105-0.619-0.315-0.844
		C33.108,31.842,32.833,31.73,32.499,31.73L32.499,31.73z M32.499,31.73"/> <path fill="#87538A" d="M32.499,24.666H16.475H16.47c-0.337,0-0.615,0.112-0.841,0.338c-0.222,0.222-0.337,0.502-0.337,0.841
		c0,0.198,0.058,0.386,0.17,0.566c0.111,0.183,0.252,0.329,0.422,0.441c0.167,0.113,0.364,0.169,0.59,0.169h16.023
		c0.165,0,0.32-0.035,0.459-0.105c0.141-0.07,0.259-0.154,0.357-0.252c0.098-0.099,0.176-0.219,0.234-0.36
		c0.055-0.137,0.083-0.293,0.083-0.461c0-0.337-0.105-0.619-0.315-0.839C33.108,24.777,32.833,24.666,32.499,24.666L32.499,24.666z
		 M32.499,24.666"/> <path fill="#87538A" d="M32.499,17.6H16.475c-0.335,0-0.617,0.113-0.841,0.34c-0.224,0.22-0.335,0.496-0.335,0.816
		c0,0.322,0.111,0.603,0.335,0.844c0.224,0.236,0.506,0.355,0.841,0.355h16.023c0.335,0,0.61-0.119,0.817-0.355
		c0.209-0.241,0.315-0.521,0.315-0.844c0-0.32-0.105-0.597-0.315-0.816C33.108,17.713,32.833,17.6,32.499,17.6L32.499,17.6z
		 M32.499,17.6"/> <path fill="#87538A" d="M22.487,12.531c0.111,0.1,0.235,0.186,0.376,0.256c0.143,0.07,0.282,0.104,0.423,0.104h9.212
		c0.335,0,0.61-0.119,0.817-0.359c0.209-0.237,0.315-0.518,0.315-0.842c0-0.32-0.105-0.593-0.315-0.814
		c-0.207-0.227-0.482-0.34-0.817-0.34h-9.212l0,0c-0.085,0-0.196,0.013-0.338,0.041c-0.534,0.168-0.8,0.547-0.8,1.136
		c0,0.17,0.03,0.322,0.085,0.463C22.292,12.313,22.374,12.435,22.487,12.531L22.487,12.531z M22.487,12.531"/> <path fill="#87538A" d="M42.585,11.962c-0.111-0.279-0.272-0.524-0.482-0.734c-0.211-0.211-0.456-0.379-0.738-0.505
		c-0.278-0.126-0.574-0.189-0.882-0.189l0.001,0.002h-2.27V8.18c0-0.644-0.227-1.195-0.673-1.66c-0.451-0.46-0.982-0.691-1.6-0.693
		H13.108c-0.615,0-1.151,0.233-1.598,0.693c-0.452,0.467-0.674,1.017-0.674,1.66v28.26c0,0.647,0.222,1.199,0.674,1.662
		c0.447,0.46,0.982,0.693,1.598,0.693h2.313v2.355c0,0.644,0.218,1.199,0.652,1.658c0.434,0.464,0.973,0.695,1.618,0.697h22.793
		c0.308,0,0.604-0.064,0.882-0.191c0.28-0.126,0.526-0.294,0.738-0.506c0.211-0.211,0.371-0.461,0.482-0.756
		c0.111-0.295,0.17-0.597,0.17-0.904V12.891C42.756,12.554,42.696,12.246,42.585,11.962L42.585,11.962z M13.082,36.579
		L13.082,36.579V7.916l0,0H36.14h0.004v1.24v26.181v1.242H36.14H13.082L13.082,36.579z M40.485,41.15L40.485,41.15H17.693v-2.355
		h18.25c0.393,0,0.765-0.105,1.116-0.315c0.348-0.211,0.63-0.496,0.841-0.863c0.209-0.363,0.315-0.756,0.315-1.177V12.891h2.27
		V41.15L40.485,41.15z M40.485,41.15"/> </g> 
    </symbol>
    <symbol id="icon_cell_collect" viewBox="0 0 48 48">
       <g> <path fill="#DA506C" d="M43.07,17.383l-11.492-2.82l-0.289-0.07L24.842,3.521h-0.024c-0.358-0.485-0.892-0.816-1.521-0.816
		c-0.646,0-1.188,0.346-1.544,0.85H21.73l-6.413,10.954l-0.029,0.005L3.592,17.421C2.688,17.6,2,18.429,2,19.434
		c0,0.466,0.154,0.887,0.417,1.229l0,0l0.024,0.036c0.014,0.014,0.023,0.031,0.038,0.043l7.7,9.593l0.066,0.089
		c0,0-0.833,12.691-0.833,12.829c0,1.13,0.875,2.044,1.952,2.044c0.331,0,0.627-0.104,0.897-0.254l11.063-4.801l11.008,4.751
		c0.287,0.177,0.608,0.304,0.971,0.304c1.075,0,1.955-0.914,1.955-2.044c0-0.164-0.946-12.856-0.946-12.856l7.604-9.458
		c0.429-0.375,0.712-0.917,0.712-1.546C44.63,18.402,43.961,17.575,43.07,17.383L43.07,17.383z M41.619,20.271
		c-0.383,0.453-7.727,9.17-7.727,9.17l0.752,12.569c0,0,0.136,0.837-0.948,0.348c-1.079-0.487-10.396-4.691-10.396-4.691
		s-9.858,4.392-10.646,4.741c-0.789,0.351-0.804-0.404-0.804-0.404l0.958-12.462c0,0-7.328-8.797-7.711-9.255
		s-0.313-0.566-0.089-0.623c0.142-0.039,11.842-2.835,11.842-2.835s5.929-10.934,6.11-11.267c0.182-0.338,0.492-0.344,0.693,0.017
		c0.205,0.358,6.359,11.258,6.359,11.258l11.616,2.909C41.63,19.746,42.003,19.818,41.619,20.271L41.619,20.271z M41.619,20.271"/> </g> 
    </symbol>
    <symbol id="icon_cell_package" viewBox="0 0 48 48">
       <g> <path fill="#1FA096" d="M3.417,7.758C3.177,8.175,3.041,8.662,3.041,9.179v11.494c0,1.585,1.286,2.868,2.869,2.868h11.496
		c1.583,0,2.869-1.283,2.869-2.868V9.179c0.016-1.585-1.269-2.871-2.869-2.871H5.91C4.841,6.308,3.912,6.892,3.417,7.758
		 M16.397,21.235h-9.45c-0.799,0-1.6-0.801-1.6-1.601v-9.448c0-0.801,0.801-1.604,1.6-1.604h9.45c0.8,0,1.601,0.803,1.601,1.604
		v9.448C17.999,20.435,17.198,21.235,16.397,21.235L16.397,21.235z M16.397,21.235"/> <path fill="#1FA096" d="M25.954,7.718c-0.241,0.421-0.378,0.903-0.378,1.423v11.491c0,1.586,1.288,2.869,2.869,2.869H39.94
		c1.585,0,2.869-1.283,2.869-2.869V9.141c0.018-1.586-1.268-2.871-2.869-2.871H28.444C27.378,6.27,26.446,6.851,25.954,7.718
		 M38.934,21.195h-9.452c-0.797,0-1.598-0.801-1.598-1.598v-9.451c0-0.801,0.801-1.602,1.598-1.602h9.452
		c0.801,0,1.598,0.801,1.598,1.602v9.451C40.532,20.395,39.735,21.195,38.934,21.195L38.934,21.195z M38.934,21.195"/> <path fill="#1FA096" d="M3.433,30.225c-0.241,0.419-0.378,0.903-0.378,1.421v11.495c0,1.582,1.288,2.867,2.871,2.867h11.498
		c1.582,0,2.867-1.285,2.867-2.867V31.646c0.016-1.582-1.271-2.873-2.867-2.873H5.925C4.857,28.772,3.926,29.355,3.433,30.225
		 M16.414,43.7H6.961c-0.796,0-1.597-0.801-1.597-1.602v-9.447c0-0.799,0.801-1.6,1.597-1.6h9.452c0.8,0,1.597,0.801,1.597,1.6
		v9.447C18.011,42.899,17.214,43.7,16.414,43.7L16.414,43.7z M16.414,43.7"/> <path fill="#1FA096" d="M25.97,30.185c-0.241,0.418-0.38,0.905-0.38,1.42v11.494c0,1.583,1.288,2.873,2.871,2.873h11.496
		c1.585,0,2.871-1.29,2.871-2.873V31.604c0.014-1.581-1.27-2.87-2.871-2.87H28.46C27.394,28.734,26.46,29.319,25.97,30.185
		 M38.95,43.66h-9.452c-0.801,0-1.6-0.797-1.6-1.6v-9.45c0-0.796,0.799-1.599,1.6-1.599h9.452c0.799,0,1.598,0.803,1.598,1.599v9.45
		C40.548,42.863,39.749,43.66,38.95,43.66L38.95,43.66z M38.95,43.66"/> </g> 
    </symbol>
    <symbol id="icon_cell_password" viewBox="0 0 48 48">
       <g> <path fill="#E4715D" d="M39.616,19.166h-0.353V14.6c0-6.927-5.773-12.561-12.867-12.561S13.53,7.673,13.53,14.6v4.566h-0.354
		c-2.128,0-3.861,1.704-3.861,3.8v17.245c0,2.093,1.733,3.801,3.861,3.801h26.44c2.13,0,3.865-1.708,3.865-3.801V22.966
		C43.481,20.87,41.746,19.166,39.616,19.166L39.616,19.166L39.616,19.166z M16.597,14.6c0-5.23,4.399-9.491,9.8-9.491
		c5.406,0,9.801,4.261,9.801,9.491v4.566H16.597V14.6L16.597,14.6L16.597,14.6z M40.411,40.211c0,0.399-0.353,0.724-0.795,0.724
		h-26.44c-0.437,0-0.792-0.324-0.792-0.724V22.966c0-0.403,0.355-0.728,0.792-0.728h26.44c0.437,0,0.795,0.324,0.795,0.728V40.211
		L40.411,40.211L40.411,40.211z M40.411,40.211"/> <path fill="#E4715D" d="M26.396,24.61c-2.39,0-4.331,1.942-4.331,4.332c0,1.848,1.168,3.417,2.795,4.04v2.849
		c0,0.848,0.69,1.536,1.536,1.536s1.535-0.688,1.535-1.536v-2.849c1.628-0.623,2.795-2.192,2.795-4.04
		C30.727,26.553,28.787,24.61,26.396,24.61L26.396,24.61L26.396,24.61z M26.396,27.68c0.694,0,1.264,0.567,1.264,1.263
		c0,0.693-0.569,1.261-1.264,1.261c-0.697,0-1.263-0.567-1.263-1.261C25.134,28.247,25.699,27.68,26.396,27.68L26.396,27.68
		L26.396,27.68z M26.396,27.68"/> </g> 
    </symbol>
    <symbol id="icon_cell_phone" viewBox="0 0 48 48">
       <g> <path fill="#ABC576" d="M34.434,44.312c-0.277,0-0.543-0.028-0.795-0.088l-5.014-1.173c-1.06-0.247-2.404-1.045-3.127-1.856
		L7.531,21.017c-0.695-0.779-1.388-2.142-1.605-3.166l-0.664-3.085c-0.154-0.722,0.305-1.434,1.027-1.589
		c0.724-0.153,1.434,0.304,1.591,1.026l0.661,3.087c0.123,0.568,0.604,1.516,0.989,1.948l17.968,20.173
		c0.363,0.408,1.205,0.91,1.734,1.032l5.018,1.173c0.352,0.08,1.012-0.104,1.27-0.351l4.517-4.38
		c0.073-0.069,0.077-0.219,0.013-0.294l-3.93-4.428c-0.09-0.102-0.322-0.128-0.433-0.053l-1.073,0.751
		c-0.849,0.592-2.26,1.139-3.283,1.269l-0.649,0.086c-1.24,0.159-2.799-0.424-3.63-1.358l-10.623-11.97
		c-0.813-0.916-1.244-2.514-1.004-3.715l0.156-0.771c0.209-1.049,0.93-2.42,1.676-3.187l0.9-0.927
		c0.08-0.081,0.084-0.268,0.008-0.353l-4.886-5.505c-0.075-0.083-0.253-0.1-0.343-0.03L9.002,9.425
		C8.418,9.878,7.578,9.768,7.125,9.182C6.676,8.597,6.784,7.756,7.369,7.305l3.934-3.025c1.191-0.918,2.977-0.751,3.979,0.376
		l4.885,5.504c1.016,1.143,0.975,2.897-0.09,3.995l-0.9,0.926c-0.389,0.402-0.862,1.302-0.973,1.849l-0.155,0.773
		c-0.079,0.39,0.116,1.113,0.382,1.409l10.623,11.97c0.244,0.275,0.918,0.528,1.283,0.479l0.652-0.082
		c0.601-0.077,1.598-0.465,2.091-0.812l1.073-0.749c1.229-0.858,2.971-0.654,3.966,0.468l3.934,4.431
		c1.012,1.139,0.942,2.93-0.151,3.991l-4.517,4.378C36.662,43.885,35.498,44.312,34.434,44.312L34.434,44.312z M34.434,44.312"/> <path fill="#ABC576" d="M29.611,24.115c-0.077,0-0.158-0.007-0.238-0.021c-0.727-0.131-1.21-0.828-1.079-1.555
		c0.397-2.208-1.051-4.329-3.229-4.729c-0.729-0.135-1.208-0.832-1.075-1.559c0.134-0.727,0.832-1.208,1.559-1.075
		c3.625,0.667,6.038,4.185,5.38,7.839C30.812,23.662,30.248,24.115,29.611,24.115L29.611,24.115z M29.611,24.115"/> <path fill="#ABC576" d="M34.752,22.45c-0.082,0-0.159-0.008-0.24-0.022c-0.727-0.131-1.209-0.826-1.078-1.555
		c0.633-3.521-2.006-6.967-5.887-7.681c-0.727-0.133-1.207-0.831-1.072-1.557c0.134-0.729,0.832-1.21,1.559-1.075
		c5.323,0.979,8.93,5.818,8.033,10.788C35.951,21.995,35.389,22.45,34.752,22.45L34.752,22.45z M34.752,22.45"/> <path fill="#ABC576" d="M39.746,20.842c-0.078,0-0.154-0.009-0.236-0.021c-0.727-0.131-1.212-0.828-1.082-1.555
		c0.895-4.938-2.791-9.763-8.204-10.76c-0.726-0.133-1.208-0.83-1.073-1.559c0.135-0.727,0.832-1.21,1.559-1.073
		c6.862,1.263,11.506,7.483,10.355,13.865C40.945,20.389,40.383,20.842,39.746,20.842L39.746,20.842z M39.746,20.842"/> </g> 
    </symbol>
    <symbol id="icon_cell_problem" viewBox="0 0 48 48">
       <g> <path fill="#1EAEC0" d="M38.033,46.274H10.681c-2.515,0-4.559-2.044-4.559-4.558V11.333c0-2.515,2.044-4.559,4.559-4.559h21.268
		c0.84,0,1.519,0.679,1.519,1.52c0,0.842-0.679,1.52-1.519,1.52H10.681c-0.834,0-1.52,0.685-1.52,1.519v30.384
		c0,0.842,0.686,1.519,1.52,1.519h27.343c0.843,0,1.52-0.677,1.52-1.519V17.402c0-0.842,0.676-1.519,1.519-1.519
		c0.844,0,1.521,0.677,1.521,1.519v24.305C42.591,44.224,40.538,46.274,38.033,46.274L38.033,46.274L38.033,46.274z M38.033,46.274"/> <path fill="#1EAEC0" d="M29.104,21.958c-0.39,0-0.774-0.145-1.075-0.45c-0.597-0.597-0.597-1.551,0-2.147L43.13,4.268
		c0.596-0.596,1.551-0.596,2.147,0c0.596,0.597,0.596,1.551,0,2.147L30.176,21.517C29.883,21.813,29.49,21.958,29.104,21.958
		L29.104,21.958L29.104,21.958z M29.104,21.958"/> <path fill="#1EAEC0" d="M22.833,21.958h-9.116c-0.841,0-1.517-0.679-1.517-1.518c0-0.842,0.676-1.519,1.517-1.519h9.116
		c0.841,0,1.52,0.677,1.52,1.519C24.354,21.279,23.674,21.958,22.833,21.958L22.833,21.958L22.833,21.958z M22.833,21.958"/> <path fill="#1EAEC0" d="M31.955,31.074H13.718c-0.841,0-1.517-0.676-1.517-1.519c0-0.843,0.676-1.52,1.517-1.52h18.231
		c0.84,0,1.519,0.677,1.519,1.52C33.468,30.397,32.789,31.074,31.955,31.074L31.955,31.074L31.955,31.074z M31.955,31.074"/> </g> 
    </symbol>
    <symbol id="icon_cell_remind1" viewBox="0 0 48 48">
       <path fill="#E4B03E" d="M43.181,38.855h-0.076H40.44V21.037c0-2.265-1.852-4.112-4.115-4.112h-6.852V7.33
	c0-2.264-1.849-4.111-4.113-4.111H11.655c-2.268,0-4.115,1.847-4.115,4.111v31.526H4.896H4.822c-0.761,0-1.373,0.617-1.373,1.372
	s0.617,1.37,1.373,1.37h0.042h38.271h0.045c0.761,0,1.37-0.615,1.37-1.37S43.941,38.855,43.181,38.855L43.181,38.855L43.181,38.855z
	 M26.731,38.855H10.283V7.33c0-0.754,0.615-1.37,1.372-1.37H25.36c0.755,0,1.371,0.616,1.371,1.37V38.855L26.731,38.855
	L26.731,38.855z M37.695,38.855h-8.222v-19.19h6.852c0.757,0,1.37,0.616,1.37,1.371V38.855L37.695,38.855L37.695,38.855z
	 M37.695,38.855"/> 
    </symbol>
    <symbol id="icon_cell_remind2" viewBox="0 0 48 48">
       <g> <path fill="#57A2D7" d="M40.422,35.225c-0.566-0.772-1.2-1.701-1.902-2.774c-0.681-1.031-1.326-2.193-1.938-3.47
		c-0.59-1.214-1.119-2.549-1.564-3.981c-0.408-1.315-0.611-2.678-0.611-4.047c0-1.667-0.234-3.208-0.703-4.573
		c-0.459-1.356-1.082-2.592-1.863-3.684c-0.789-1.085-1.737-2.008-2.811-2.744c-0.978-0.677-2.051-1.206-3.334-1.638
		c0.265-0.568,0.421-1.197,0.421-1.867c0-2.475-2.013-4.485-4.486-4.485c-2.476,0-4.485,2.011-4.485,4.485
		c0,0.666,0.154,1.295,0.416,1.857c-0.117,0.029-0.252,0.053-0.355,0.079c-1.098,0.381-2.176,0.94-3.229,1.678
		c-1.044,0.753-1.956,1.66-2.714,2.669c-0.793,1.064-1.432,2.287-1.893,3.63C8.876,17.752,8.632,19.313,8.632,21
		c0,1.417-0.203,2.793-0.604,4.079c-0.44,1.378-0.963,2.695-1.55,3.922c-0.563,1.176-1.188,2.323-1.907,3.489
		c-0.717,1.148-1.332,2.185-1.82,3.051c-0.885,1.373-0.537,2.523-0.249,3.034c0.487,0.85,1.302,1.413,2.305,1.413h33.431
		c0.46,0,0.911-0.221,1.305-0.455c0.412-0.225,0.76-0.605,1.007-0.984c0.276-0.422,0.438-0.932,0.468-1.474
		C41.055,36.434,40.851,35.792,40.422,35.225L40.422,35.225L40.422,35.225z M21.635,5.103c0.736,0,1.34,0.6,1.34,1.341
		c0,0.74-0.604,1.341-1.34,1.341c-0.74,0-1.344-0.603-1.344-1.341C20.291,5.704,20.893,5.103,21.635,5.103L21.635,5.103
		L21.635,5.103z M5.732,36.841c0.445,0,0.944-1.694,1.508-2.603c0.785-1.268,1.461-2.556,2.072-3.838
		c0.646-1.348,1.223-2.826,1.712-4.351c0.499-1.6,0.751-3.304,0.751-5.037c0-1.333,0.189-2.547,0.564-3.615
		c0.357-1.049,0.842-1.98,1.44-2.786c0.565-0.759,1.253-1.44,2.017-1.989c0.801-0.564,1.599-0.98,2.357-1.245
		c0.344-0.1,1.413-0.221,3.289-0.221c1.76,0,3.146,0.1,3.246,0.108c0.91,0.304,1.766,0.724,2.551,1.274
		c0.782,0.537,1.477,1.213,2.049,2c0.592,0.827,1.077,1.78,1.434,2.845c0.35,1.046,0.533,2.246,0.533,3.568
		c0,1.683,0.25,3.358,0.754,4.975c0.493,1.589,1.078,3.078,1.732,4.421c0.672,1.39,1.393,2.78,2.141,3.921
		c0.604,0.919,1.154,2.571,1.684,2.571H5.732L5.732,36.841L5.732,36.841z M13.776,43.126h15.716v3.142H13.776V43.126L13.776,43.126
		L13.776,43.126z M13.776,43.126"/> </g> 
    </symbol></svg>