<svg xmlns="http://www.w3.org/2000/svg" style="width:0; height:0; visibility:hidden;">
    <symbol id="icon_nav_appointment" viewBox="0 0 48 48">
       <g> <polygon fill-rule="evenodd" clip-rule="evenodd" fill="#C68982" points="9.624,10.37 35.483,10.37 35.483,13.243 9.624,13.243 
		9.624,10.37 	"/> <polygon fill-rule="evenodd" clip-rule="evenodd" fill="#C68982" points="9.624,16.119 35.483,16.119 35.483,18.992 9.624,18.992 
		9.624,16.119 	"/> <polygon fill-rule="evenodd" clip-rule="evenodd" fill="#C68982" points="9.624,21.864 21.118,21.864 21.118,24.736 9.624,24.736 
		9.624,21.864 	"/> <polygon fill-rule="evenodd" clip-rule="evenodd" fill="#C68982" points="32.608,41.136 25.85,34.372 27.877,32.343 32.608,37.072 
		40.217,29.471 42.247,31.5 32.608,41.136 	"/> <polygon fill-rule="evenodd" clip-rule="evenodd" fill="#C68982" points="1,1.749 1,44.852 15.371,30.485 11.328,30.485 
		3.875,37.926 3.875,4.621 38.358,4.621 38.358,18.992 41.233,18.992 41.233,1.749 1,1.749 	"/> <path fill-rule="evenodd" clip-rule="evenodd" fill="#C68982" d="M34.048,24.736c2.685,0,5.212,1.05,7.112,2.948
		c1.897,1.898,2.945,4.421,2.945,7.113c0,2.685-1.048,5.208-2.945,7.111c-1.9,1.898-4.428,2.943-7.112,2.943
		c-2.688,0-5.215-1.045-7.113-2.943c-1.899-1.903-2.945-4.426-2.945-7.111c0-2.691,1.046-5.215,2.945-7.113
		C28.833,25.786,31.359,24.736,34.048,24.736L34.048,24.736z M34.048,21.864c-7.144,0-12.93,5.79-12.93,12.933
		c0,7.142,5.786,12.932,12.93,12.932c7.143,0,12.93-5.79,12.93-12.932C46.978,27.654,41.19,21.864,34.048,21.864L34.048,21.864"/> </g> 
    </symbol>
    <symbol id="icon_nav_ask" viewBox="0 0 48 48">
       <g> <path fill-rule="evenodd" clip-rule="evenodd" fill="#57A3D6" d="M45.506,29.017c-1.18,0-2.131-0.958-2.131-2.133L43.355,5.528
		L11.449,5.547c-1.175,0-2.129-0.955-2.129-2.129c0-1.18,0.954-2.134,2.129-2.134L41.175,1.27v0.014h2.265
		c2.063,0,3.783,1.467,4.176,3.413l0.016,22.187C47.633,28.059,46.678,29.017,45.506,29.017L45.506,29.017z M41.246,11.304
		l0.016,13.469c0,0.056-0.012,0.108-0.016,0.16l0.016,8.798c-0.244,2.119-2.027,3.773-4.213,3.773h-2.265v0.005l-11.822,0.014
		l-7.995,7.934c-0.832,0.832-2.18,0.832-3.012,0c-0.832-0.832-0.832-2.181,0-3.013l8.285-8.22c0.381-0.577,1.034-0.958,1.774-0.958
		h0.056c0.01,0,0.021,0,0.029,0l14.9-0.019l-0.004-3.351c-0.002,0.155-0.004,0.31-0.007,0.451l0.007-0.78l-0.012-7.007
		c0-0.056,0.012-0.108,0.016-0.16l-0.011-7.19c-0.044-2.806-0.392-3.205-2.832-3.262l2.813,0.019l0.019,3.098l-0.002-3.121h-3.139
		c0.106,0,0.214,0.004,0.31,0.004l-0.676-0.004L7.758,11.958c-2.23,0.075-2.656,0.479-2.73,2.514l0.014,16.745
		c0.11,1.688,0.616,1.974,2.883,2.021l-2.881-0.019v0.042l8.533-0.014c1.177,0,2.129,0.954,2.129,2.129
		c0,1.175-0.952,2.128-2.129,2.128l-6.29,0.015v-0.015H5.024c-2.291,0-4.145-1.809-4.243-4.074L0.765,11.915
		C0.776,9.641,2.579,7.798,4.834,7.7l32.233-0.019C39.195,7.689,40.938,9.26,41.246,11.304L41.246,11.304z M5.024,11.958
		l0.003,1.466l0.009-1.457L6.4,11.958H5.024L5.024,11.958z M34.353,33.237c2.24-0.056,2.587-0.427,2.635-2.89l-0.019,2.872
		L34.353,33.237L34.353,33.237z M34.353,33.237c-0.458,0.01-0.987,0.01-1.619,0.01L34.353,33.237L34.353,33.237z M7.925,33.237
		l1.409,0.01C8.801,33.247,8.336,33.247,7.925,33.237L7.925,33.237z M40.414,5.556l2.882,0.019l0.016,2.392
		C43.249,5.932,42.841,5.608,40.414,5.556L40.414,5.556z M40.414,5.556l-1.419-0.009C39.532,5.547,40,5.547,40.414,5.556
		L40.414,5.556z M43.323,9.81l-0.012-1.842C43.323,8.47,43.323,9.072,43.323,9.81L43.323,9.81z"/> </g> 
    </symbol>
    <symbol id="icon_nav_community" viewBox="0 0 48 48">
       <g> <g> <path fill-rule="evenodd" clip-rule="evenodd" fill="#42B035" d="M7.527,45.618V27.893H9.83v15.424h28.349V27.893h2.303v17.726
			H7.527L7.527,45.618z M15.528,30.408c-1.021-1.205-1.562-2.627-1.562-4.114c0-3.408,2.774-6.183,6.186-6.183
			c1.355,0,2.692,0.449,3.759,1.264l0.087,0.066l0.089-0.066c1.067-0.814,2.402-1.264,3.759-1.264c3.412,0,6.186,2.774,6.186,6.183
			c0,1.462-0.513,2.883-1.445,3.998l-5.333,4.85l-1.622-1.632l5.3-4.811l0.009-0.009c0.479-0.593,0.787-1.533,0.787-2.396
			c0-2.14-1.742-3.88-3.883-3.88c-1.153,0-2.236,0.498-2.965,1.368l-0.883,1.045l-0.881-1.045c-0.727-0.87-1.808-1.368-2.965-1.368
			c-2.142,0-3.885,1.74-3.885,3.88c0,0.905,0.336,1.825,0.918,2.525l0.007,0.007l8.075,7.48l-1.564,1.688L15.528,30.408
			L15.528,30.408z M23.999,5.752L4.044,27.036l-1.682-1.575L23.999,2.382l21.638,23.079l-1.682,1.575L23.999,5.752L23.999,5.752z"/> </g> </g> 
    </symbol>
    <symbol id="icon_nav_doctor" viewBox="0 0 48 48">
       <g> <g> <path fill-rule="evenodd" clip-rule="evenodd" fill="#1EA58C" d="M41.091,38.246c-2.021-4.45-6.807-8.309-13.504-9.344
			c3.643-1.869,6.271-6.193,6.125-12.166c-0.064-2.721-1.346-6.383-2.971-8.238c-0.305-0.349-4.178-1.181-7.377-1.181
			c-3.033,0-6.84,0.767-7.275,1.181c-1.914,1.828-2.988,5.328-3.031,8.232c-0.086,6.068,2.66,10.535,6.459,12.332
			c-6.674,1.315-11.336,5.416-12.666,9.264c-0.305,0.878-0.281,1.935,0.145,2.884c0.852,1.894,2.277,1.913,2.277,1.913
			s7.117,0.221,14.283,0.221c0.139,0,0.279,0,0.416,0c5.734,0,13.793-0.111,13.793-0.111s2.115-0.096,3.082-1.807
			C41.565,40.155,41.396,38.914,41.091,38.246L41.091,38.246z M14.847,16.832c0.037-2.645,1.004-5.486,2.322-6.884
			c0.801-0.281,3.709-0.845,6.197-0.845c2.574,0,5.363,0.563,6.246,0.836c1.223,1.595,2.26,4.654,2.314,6.915
			c0.008,0.37-0.002,0.732-0.018,1.091c-1.566-0.461-4.568-1.139-8.543-1.139c-4.043,0-6.875,0.502-8.496,0.902
			C14.858,17.419,14.843,17.13,14.847,16.832L14.847,16.832z M18.034,25.898c-1.586-1.609-2.619-3.809-3.012-6.419
			c1.414-0.372,4.205-0.903,8.344-0.903c4.143,0,7.154,0.758,8.367,1.137c-0.393,2.471-1.371,4.567-2.879,6.112
			c-1.508,1.544-3.457,2.32-5.49,2.32H23.36C21.374,28.146,19.534,27.42,18.034,25.898L18.034,25.898z M39.278,40.639
			c-0.445,0.791-1.223,0.844-1.701,0.944c-1.082,0.03-8.369,0.229-13.609,0.239l-0.412,0.002c-6.1,0-12.232-0.336-13.807-0.336
			c-0.682,0-0.971-0.666-1.066-0.873c-0.234-0.681-0.285-1.291-0.143-1.705c1.43-4.121,7.332-8.501,15.457-8.501
			c8.543,0,13.672,4.619,15.467,8.575C39.548,39.171,39.704,39.879,39.278,40.639L39.278,40.639z"/> <path fill-rule="evenodd" clip-rule="evenodd" fill="#1EA58C" d="M25.106,13.842h1.355c0.24,0,0.434-0.194,0.434-0.434v-0.027
			c0-0.239-0.193-0.434-0.434-0.434h-1.355v-1.355c0-0.238-0.193-0.432-0.432-0.432h-0.027c-0.24,0-0.434,0.193-0.434,0.432v1.355
			h-1.355c-0.238,0-0.434,0.194-0.434,0.434v0.027c0,0.239,0.195,0.434,0.434,0.434h1.355v1.355c0,0.238,0.193,0.432,0.432,0.432
			h0.027c0.24,0,0.434-0.193,0.434-0.432V13.842L25.106,13.842z"/> </g> </g> 
    </symbol>
    <symbol id="icon_nav_hospital" viewBox="0 0 48 48">
       <g> <path fill-rule="evenodd" clip-rule="evenodd" fill="#DA6339" d="M40.037,20.461H31.18c-0.225,0-0.426,0.079-0.637,0.129V10.053
		c0-2.276-1.852-4.127-4.127-4.127H9.217c-2.275,0-4.127,1.851-4.127,4.127v31.555h7.455h10.543h5.283h2.172h12.301V23.271
		C42.844,21.723,41.586,20.461,40.037,20.461L40.037,20.461z M14.717,39.435v-5.937h6.197v5.937H14.717L14.717,39.435z
		 M28.371,39.435h-5.283v-6.288c0-1.004-0.818-1.822-1.822-1.822h-6.898c-1.006,0-1.822,0.818-1.822,1.822v6.288H7.262V10.053
		c0-1.078,0.879-1.955,1.955-1.955h17.199c1.078,0,1.955,0.877,1.955,1.955v13.218V39.435L28.371,39.435z M40.672,39.435H30.543
		v-4.58h7.223c0.6,0,1.086-0.486,1.086-1.086c0-0.601-0.486-1.087-1.086-1.087h-7.223v-3.168h7.223c0.6,0,1.086-0.484,1.086-1.086
		c0-0.6-0.486-1.086-1.086-1.086h-7.223v-4.071c0-0.345,0.291-0.637,0.637-0.637h8.857c0.344,0,0.635,0.292,0.635,0.637V39.435
		L40.672,39.435z"/> <path fill-rule="evenodd" clip-rule="evenodd" fill="#DA6339" d="M22.479,18.471h-3.576v-3.576c0-0.601-0.484-1.086-1.084-1.086
		c-0.602,0-1.086,0.485-1.086,1.086v3.576h-3.578c-0.602,0-1.086,0.485-1.086,1.086c0,0.6,0.484,1.086,1.086,1.086h3.578v3.576
		c0,0.602,0.484,1.087,1.086,1.087c0.6,0,1.084-0.485,1.084-1.087v-3.576h3.576c0.6,0,1.088-0.486,1.088-1.086
		C23.566,18.957,23.078,18.471,22.479,18.471L22.479,18.471z"/> </g> 
    </symbol>
    <symbol id="icon_nav_nurse" viewBox="0 0 48 48">
       <g> <path fill-rule="evenodd" clip-rule="evenodd" fill="#E85F95" stroke="#D85C8C" stroke-width="0.5" stroke-miterlimit="10" d="
		M32.083,35.283h-1.725v-1.731c0-0.245-0.197-0.444-0.441-0.444s-0.441,0.199-0.441,0.444v1.731h-1.725
		c-0.244,0-0.441,0.198-0.441,0.443s0.197,0.443,0.441,0.443h1.725v1.732c0,0.244,0.197,0.443,0.441,0.443s0.441-0.199,0.441-0.443
		v-1.732h1.725c0.246,0,0.443-0.198,0.443-0.443S32.329,35.283,32.083,35.283L32.083,35.283z"/> <path fill-rule="evenodd" clip-rule="evenodd" fill="#E85F95" stroke="#D85C8C" stroke-width="0.5" stroke-miterlimit="10" d="
		M39.669,36.822c-0.568-2.49-3.785-4.816-9.061-6.551c-1.219-0.401-2.229-0.822-2.998-1.252c-0.162-0.09-0.354-0.066-0.49,0.043
		c-0.025,0.011-0.049,0.023-0.072,0.039c-1.238,0.852-3.295,3.342-4.223,5.311c-1.057-2.438-3.715-4.775-3.848-4.892
		c-0.004-0.002-0.006-0.004-0.01-0.007c1.393-0.886,1.814-1.746,1.951-2.567c0.582,0.259,1.203,0.398,1.848,0.398
		c3.35,0,6.075-3.768,6.075-8.397c0-0.451-0.027-0.905-0.084-1.378c-0.02-0.116-0.563-2.855-4.583-3.095
		c-3.09-0.186-4.332-1.814-4.631-2.459h8.854c2.359,1.115,5.105,4.465,5.207,10.324c0.033,1.938-0.189,3.709-0.66,5.264
		c-0.059,0.191-0.117,0.373-0.18,0.547c-0.082,0.23,0.039,0.484,0.268,0.566c0.23,0.082,0.482-0.037,0.564-0.27
		c0.066-0.186,0.131-0.381,0.193-0.586c0.498-1.643,0.732-3.506,0.697-5.537c-0.084-4.88-1.932-8.153-3.969-9.943
		c0.008-0.032,0.012-0.066,0.012-0.101V8.103c0-1.274-1.031-2.312-2.301-2.312H17.303c-1.268,0-2.301,1.038-2.301,2.312v4.175
		c0,0.05,0.008,0.098,0.023,0.142c-2.018,1.798-3.838,5.059-3.922,9.901c-0.08,4.699,1.295,7.406,2.123,8.602
		c0.002,0.004,0.006,0.007,0.01,0.011c-4.018,1.61-6.672,3.744-7.23,5.874c-0.102,0.387-0.045,2.498-0.016,3.389
		c0.008,0.238,0.203,0.428,0.441,0.428h16.324h0.158h16.325c0.238,0,0.434-0.19,0.441-0.43
		C39.708,39.308,39.757,37.205,39.669,36.822L39.669,36.822z M24.122,15.358c3.301,0.198,3.75,2.284,3.764,2.342
		c0.047,0.411,0.072,0.831,0.072,1.247c0,4.141-2.33,7.51-5.192,7.51c-2.861,0-5.189-3.369-5.189-7.51
		c0-2.213,0.361-5.07,1.166-6.583C19.18,13.282,20.676,15.151,24.122,15.358L24.122,15.358z M15.885,8.103
		c0-0.786,0.637-1.425,1.418-1.425h10.926c0.781,0,1.418,0.639,1.418,1.425v3.606c-0.326-0.218-0.652-0.399-0.973-0.543
		c-0.057-0.025-0.117-0.039-0.182-0.039H17.098c-0.063,0-0.125,0.014-0.182,0.039c-0.338,0.153-0.684,0.347-1.031,0.583V8.103
		L15.885,8.103z M13.952,30.416c-0.766-1.106-2.041-3.628-1.965-8.078c0.102-5.86,2.848-9.208,5.207-10.324h0.734
		c-0.908,1.771-1.234,4.805-1.234,6.933c0,3.313,1.393,6.182,3.414,7.548c-0.02,0.042-0.033,0.085-0.037,0.134
		c-0.076,0.672-0.234,2.071-5.008,3.643c-0.354,0.115-0.697,0.235-1.033,0.359C14.022,30.556,13.999,30.482,13.952,30.416
		L13.952,30.416z M38.81,39.738H22.915h-0.158H6.86c-0.033-1.234-0.043-2.495,0-2.703c0.555-2.114,3.803-4.384,8.479-5.922
		c1.215-0.4,2.166-0.796,2.914-1.187c0.016,0.099,0.064,0.192,0.146,0.263c0.035,0.033,3.699,3.252,3.957,5.779
		c0.002,0.012,0.004,0.021,0.004,0.033c0.002,0.003,0.002,0.006,0.002,0.01c0.002,0.006,0.004,0.012,0.006,0.019
		c0,0.007,0.004,0.015,0.006,0.022c0,0.005,0.002,0.01,0.004,0.014c0.004,0.01,0.006,0.018,0.01,0.026
		c0.002,0.005,0.004,0.009,0.006,0.013c0.004,0.009,0.008,0.018,0.012,0.025c0.002,0.004,0.004,0.009,0.008,0.014
		c0.004,0.008,0.008,0.015,0.014,0.021c0.002,0.006,0.006,0.01,0.01,0.015c0.004,0.006,0.01,0.013,0.014,0.019
		s0.008,0.01,0.012,0.016c0.006,0.005,0.01,0.01,0.014,0.016c0.006,0.006,0.012,0.01,0.018,0.016
		c0.004,0.004,0.008,0.008,0.014,0.012c0.006,0.006,0.012,0.01,0.018,0.016c0.004,0.004,0.008,0.006,0.014,0.01
		c0.006,0.005,0.014,0.01,0.021,0.014c0.002,0.004,0.008,0.006,0.012,0.009c0.008,0.005,0.016,0.009,0.021,0.013
		c0.006,0.002,0.012,0.004,0.016,0.007c0.008,0.003,0.016,0.007,0.021,0.009c0.008,0.003,0.014,0.006,0.018,0.008
		c0.008,0.002,0.014,0.005,0.023,0.007c0.006,0.002,0.014,0.004,0.02,0.005c0.008,0.002,0.014,0.004,0.02,0.005
		c0.008,0.003,0.018,0.003,0.025,0.004c0.006,0.001,0.01,0.003,0.016,0.003c0.002,0,0.002,0,0.002,0
		c0.014,0.002,0.027,0.002,0.043,0.002l0,0l0,0c0.016,0,0.029,0,0.043-0.002h0.002c0.006,0,0.012-0.002,0.016-0.003
		c0.01-0.001,0.018-0.001,0.025-0.004c0.006-0.001,0.014-0.003,0.02-0.005c0.008-0.001,0.014-0.003,0.021-0.005
		s0.014-0.005,0.021-0.007c0.006-0.002,0.012-0.005,0.018-0.008c0.008-0.002,0.014-0.006,0.021-0.009
		c0.006-0.003,0.01-0.005,0.016-0.007c0.006-0.004,0.014-0.008,0.021-0.013c0.004-0.003,0.01-0.005,0.014-0.009
		c0.006-0.004,0.014-0.009,0.021-0.014c0.004-0.003,0.008-0.006,0.012-0.01c0.008-0.006,0.012-0.01,0.018-0.016
		c0.006-0.004,0.01-0.008,0.014-0.012c0.006-0.006,0.012-0.01,0.018-0.016c0.004-0.005,0.008-0.011,0.014-0.016
		c0.004-0.006,0.008-0.01,0.012-0.015c0.004-0.007,0.01-0.014,0.014-0.019c0.004-0.006,0.008-0.01,0.01-0.016
		c0.006-0.006,0.01-0.014,0.014-0.021c0.004-0.005,0.006-0.01,0.008-0.014c0.004-0.008,0.008-0.016,0.012-0.025
		c0.002-0.004,0.004-0.008,0.006-0.013c0.004-0.008,0.006-0.017,0.01-0.024c0.002-0.005,0.004-0.01,0.004-0.016
		c0.004-0.008,0.004-0.014,0.006-0.021c0.002-0.006,0.004-0.014,0.006-0.02c0-0.003,0-0.005,0-0.008
		c0.002-0.012,0.004-0.023,0.006-0.035c0.15-1.465,2.663-4.904,4.186-6.045c0.783,0.411,1.76,0.811,2.914,1.189
		c4.895,1.611,7.984,3.764,8.473,5.904C38.849,37.226,38.841,38.494,38.81,39.738L38.81,39.738z"/> </g> 
    </symbol>
    <symbol id="icon_nav_package" viewBox="0 0 48 48">
       <g> <path fill-rule="evenodd" clip-rule="evenodd" fill="#D99516" d="M27.831,44.572c-1.35,0-2.7,0-4.05,0c-2.001,0-4.002,0-6.004,0
		c-0.523,0-1.048,0.01-1.571-0.019c-0.185-0.01-0.368-0.023-0.551-0.042c-0.097-0.01-0.193-0.022-0.289-0.034
		c-0.188-0.022,0.093,0.012,0.106,0.015c-0.063-0.012-0.127-0.018-0.19-0.028c-0.378-0.06-0.752-0.139-1.123-0.234
		c-0.366-0.094-0.728-0.207-1.083-0.336c-0.176-0.063-0.349-0.137-0.524-0.204c0.012,0.004,0.263,0.114,0.096,0.039
		c-0.038-0.017-0.076-0.033-0.114-0.051c-0.095-0.042-0.189-0.085-0.283-0.13c-0.679-0.326-1.328-0.715-1.934-1.161
		c-0.07-0.052-0.316-0.26-0.043-0.03c-0.063-0.053-0.13-0.102-0.193-0.154c-0.151-0.122-0.3-0.249-0.445-0.379
		c-0.283-0.254-0.554-0.52-0.813-0.799c-0.111-0.12-0.221-0.242-0.328-0.367c-0.067-0.079-0.132-0.157-0.197-0.237
		c-0.056-0.069-0.256-0.363-0.053-0.063c-0.208-0.308-0.436-0.598-0.633-0.913c-0.198-0.315-0.381-0.639-0.548-0.972
		c-0.08-0.157-0.155-0.316-0.228-0.477c-0.036-0.078-0.159-0.386-0.024-0.046c-0.039-0.098-0.079-0.194-0.117-0.291
		c-0.273-0.707-0.479-1.44-0.614-2.187c-0.017-0.095-0.033-0.189-0.047-0.284c-0.008-0.052-0.012-0.107-0.024-0.159
		c0.003,0.013,0.037,0.294,0.015,0.107c-0.022-0.194-0.043-0.387-0.059-0.581c-0.023-0.306-0.034-0.612-0.035-0.919
		c-0.001-0.308,0-0.616,0-0.925c0-1.747,0-3.492,0-5.238c0-2.178,0-4.356,0-6.536c0-1.324,0-2.649,0-3.972
		c0-0.201,0.001-0.401,0.009-0.602c0.007-0.184,0.019-0.369,0.034-0.553c0.008-0.097,0.018-0.194,0.028-0.291
		c0.01-0.094,0.07-0.461,0.008-0.085c0.063-0.379,0.125-0.755,0.216-1.129c0.089-0.368,0.195-0.731,0.319-1.089
		c0.061-0.177,0.126-0.353,0.196-0.528c0.015-0.038,0.031-0.077,0.047-0.116c0.068-0.17-0.035,0.084-0.041,0.096
		c0.047-0.092,0.083-0.192,0.127-0.286c0.315-0.685,0.695-1.34,1.132-1.953c0.054-0.075,0.109-0.15,0.164-0.226
		c0.024-0.032,0.052-0.064,0.075-0.098c-0.167,0.246-0.108,0.138-0.063,0.081c0.122-0.152,0.245-0.304,0.374-0.451
		C8.798,9.46,9.053,9.192,9.319,8.935c0.274-0.263,0.56-0.513,0.857-0.75c0.032-0.025,0.066-0.05,0.097-0.077
		c-0.01,0.009-0.226,0.17-0.08,0.063c0.074-0.055,0.148-0.11,0.223-0.165c0.159-0.115,0.32-0.225,0.484-0.332
		c0.312-0.202,0.633-0.389,0.962-0.563c0.156-0.083,0.313-0.16,0.473-0.235c0.084-0.039,0.169-0.079,0.255-0.116
		c0.039-0.017,0.077-0.032,0.114-0.05c-0.315,0.145-0.105,0.045-0.038,0.017c0.702-0.284,1.43-0.501,2.173-0.646
		c0.188-0.038,0.378-0.068,0.568-0.099c0.071-0.011,0.215-0.023-0.107,0.013c0.042-0.005,0.085-0.01,0.128-0.015
		c0.107-0.014,0.214-0.025,0.322-0.035c0.369-0.034,0.74-0.05,1.111-0.051c0.116,0,0.231,0,0.347,0c0.732,0,1.465,0,2.197,0
		c2.123,0,4.244,0,6.366,0c0.634,0,1.267,0,1.9,0c0.293,0,0.587,0.004,0.88,0.022c0.195,0.012,0.389,0.027,0.583,0.049
		c0.086,0.008,0.171,0.02,0.256,0.03c-0.376-0.043-0.012,0.001,0.083,0.017c0.376,0.062,0.75,0.142,1.12,0.239
		c0.365,0.097,0.726,0.21,1.08,0.341c0.088,0.033,0.176,0.066,0.263,0.101c0.08,0.032,0.381,0.169,0.049,0.018
		c0.18,0.082,0.36,0.16,0.538,0.247c0.667,0.327,1.304,0.715,1.9,1.158c0.041,0.03,0.081,0.064,0.124,0.092
		c-0.011-0.007-0.222-0.174-0.081-0.062c0.064,0.052,0.129,0.103,0.192,0.154c0.158,0.13,0.314,0.265,0.466,0.403
		c0.273,0.248,0.536,0.509,0.785,0.781c0.119,0.128,0.234,0.26,0.346,0.393c0.059,0.07,0.118,0.142,0.176,0.214
		c0.025,0.032,0.051,0.065,0.076,0.097c0.144,0.179-0.161-0.217-0.024-0.032c0.22,0.299,0.433,0.601,0.628,0.916
		c0.196,0.317,0.377,0.642,0.544,0.975c0.083,0.167,0.162,0.335,0.238,0.506c0.017,0.039,0.032,0.077,0.05,0.115
		c-0.005-0.012-0.109-0.266-0.041-0.096c0.039,0.096,0.078,0.193,0.115,0.291c0.27,0.709,0.472,1.444,0.603,2.191
		c0.017,0.095,0.032,0.19,0.046,0.286c0.013,0.082,0.022,0.253-0.009-0.076c0.004,0.042,0.011,0.086,0.016,0.128
		c0.023,0.194,0.042,0.388,0.056,0.581c0.02,0.286,0.029,0.572,0.03,0.857c0,0.092,0,0.185,0,0.277c0,1.443,0,2.885,0,4.328
		c0,2.199,0,4.398,0,6.598c0,1.651,0,3.303,0,4.954c0,0.393,0.005,0.787-0.012,1.179c-0.008,0.195-0.021,0.39-0.039,0.585
		c-0.008,0.085-0.017,0.171-0.027,0.257c-0.005,0.042-0.011,0.085-0.016,0.128c-0.026,0.228,0.038-0.255,0.006-0.043
		c-0.059,0.378-0.13,0.753-0.223,1.126c-0.09,0.368-0.199,0.73-0.324,1.087c-0.063,0.177-0.129,0.353-0.199,0.526
		c-0.016,0.039-0.033,0.077-0.048,0.116c0.107-0.288,0.069-0.161,0.04-0.096c-0.042,0.095-0.084,0.19-0.128,0.284
		c-0.319,0.683-0.702,1.335-1.142,1.948c-0.055,0.074-0.11,0.148-0.165,0.223c-0.042,0.058-0.133,0.152,0.063-0.08
		c-0.026,0.031-0.051,0.064-0.076,0.097c-0.122,0.153-0.247,0.302-0.375,0.449c-0.25,0.285-0.514,0.559-0.79,0.82
		c-0.269,0.255-0.55,0.494-0.839,0.724c-0.057,0.046-0.166,0.105,0.081-0.062c-0.034,0.022-0.066,0.05-0.099,0.074
		c-0.074,0.056-0.149,0.11-0.224,0.164c-0.16,0.113-0.321,0.223-0.486,0.328c-0.313,0.202-0.635,0.388-0.965,0.558
		c-0.165,0.086-0.333,0.169-0.502,0.246c-0.075,0.035-0.151,0.068-0.228,0.102c-0.167,0.075,0.084-0.034,0.096-0.039
		c-0.058,0.022-0.116,0.047-0.173,0.07c-0.684,0.272-1.393,0.482-2.115,0.625c-0.178,0.035-0.357,0.066-0.536,0.093
		c-0.047,0.007-0.197,0.026-0.01,0.002c0.209-0.026-0.008,0-0.042,0.005c-0.086,0.01-0.171,0.018-0.257,0.027
		C28.616,44.553,28.224,44.571,27.831,44.572c-0.587,0.001-1.149,0.515-1.122,1.123c0.027,0.606,0.493,1.124,1.122,1.122
		c3.343-0.009,6.581-1.308,9.019-3.59c2.425-2.271,3.893-5.425,4.126-8.733c0.081-1.141,0.03-2.301,0.03-3.444
		c0-2.117,0-4.234,0-6.352c0-2.005,0-4.01,0-6.016c0-1.472,0.027-2.921-0.248-4.378c-0.613-3.249-2.525-6.116-5.151-8.087
		c-2.268-1.704-5.08-2.564-7.905-2.564c-1.685,0-3.368,0-5.052,0c-1.826,0-3.651,0-5.477,0c-2.634,0-5.211,0.656-7.432,2.103
		c-2.751,1.794-4.81,4.584-5.635,7.773c-0.287,1.108-0.42,2.26-0.42,3.404c0,0.461,0,0.923,0,1.384c0,1.933,0,3.867,0,5.8
		c0,2.155,0,4.311,0,6.467c0,1.02-0.002,2.039,0,3.06c0.008,3.341,1.308,6.58,3.591,9.018c2.272,2.425,5.425,3.892,8.732,4.127
		c0.57,0.041,1.143,0.031,1.713,0.031c0.899,0,1.799,0,2.698,0c2.083,0,4.167,0,6.251,0c0.387,0,0.773,0,1.159,0
		c0.587,0,1.15-0.517,1.123-1.123C28.927,45.086,28.46,44.572,27.831,44.572L27.831,44.572z"/> <path fill-rule="evenodd" clip-rule="evenodd" fill="#D99516" d="M13.585,15.9 M12.124,15.9"/> <path fill-rule="evenodd" clip-rule="evenodd" fill="#D99516" d="M22.354,15.9 M20.893,15.9"/> <path fill-rule="evenodd" clip-rule="evenodd" fill="#D99516" d="M31.123,15.9 M29.661,15.9"/> <path fill-rule="evenodd" clip-rule="evenodd" fill="#D99516" d="M13.585,24.331c0.583,0,1.165,0,1.747,0c1.398,0,2.796,0,4.194,0
		c1.683,0,3.366,0,5.049,0c1.462,0,2.924,0,4.386,0c0.709,0,1.422,0.017,2.132,0c0.01-0.001,0.02,0,0.03,0
		c0.586,0,1.149-0.517,1.122-1.123c-0.027-0.608-0.493-1.123-1.122-1.123c-0.583,0-1.165,0-1.747,0c-1.398,0-2.796,0-4.194,0
		c-1.683,0-3.366,0-5.049,0c-1.461,0-2.924,0-4.386,0c-0.71,0-1.422-0.018-2.132,0c-0.01,0-0.02,0-0.03,0
		c-0.587,0-1.149,0.517-1.123,1.123C12.49,23.816,12.956,24.331,13.585,24.331L13.585,24.331L13.585,24.331z"/> <path fill-rule="evenodd" clip-rule="evenodd" fill="#D99516" d="M13.585,30.176c1.321,0,2.643,0,3.963,0c2.096,0,4.191,0,6.286,0
		c0.481,0,0.961,0,1.442,0c0.587,0,1.149-0.516,1.122-1.123c-0.027-0.608-0.493-1.122-1.122-1.122c-1.321,0-2.643,0-3.964,0
		c-2.095,0-4.191,0-6.286,0c-0.48,0-0.961,0-1.441,0c-0.587,0-1.149,0.515-1.123,1.122C12.49,29.662,12.956,30.176,13.585,30.176
		L13.585,30.176L13.585,30.176z"/> <path fill-rule="evenodd" clip-rule="evenodd" fill="#D99516" d="M13.585,36.022c0.583,0,1.165,0,1.747,0c1.398,0,2.796,0,4.194,0
		c1.683,0,3.366,0,5.049,0c1.462,0,2.924,0,4.386,0c0.709,0,1.422,0.018,2.132,0c0.01,0,0.02,0,0.03,0
		c0.586,0,1.149-0.516,1.122-1.123c-0.027-0.608-0.493-1.123-1.122-1.123c-0.583,0-1.165,0-1.747,0c-1.398,0-2.796,0-4.194,0
		c-1.683,0-3.366,0-5.049,0c-1.461,0-2.924,0-4.386,0c-0.71,0-1.422-0.018-2.132,0c-0.01,0.001-0.02,0-0.03,0
		c-0.587,0-1.149,0.516-1.123,1.123C12.49,35.507,12.956,36.022,13.585,36.022L13.585,36.022L13.585,36.022z"/> </g> 
    </symbol>
    <symbol id="icon_nav_phone_ask" viewBox="0 0 48 48">
       <g> <path fill-rule="evenodd" clip-rule="evenodd" fill="#4EB390" d="M39.878,19.983c-1.288-4.616-3.861-7.199-7.261-7.326V8.87
		c0-0.926-0.75-1.671-1.674-1.671c-0.921,0-1.672,0.746-1.672,1.671v3.773H18.682V8.87c0-0.926-0.748-1.671-1.674-1.671
		c-0.923,0-1.672,0.746-1.672,1.671v3.783c-3.441,0.117-5.888,2.578-7.262,7.296L2.008,38.666c-0.054,0.166-0.083,0.34-0.083,0.512
		C1.925,43.491,5.332,47,9.519,47h28.906c4.184,0,7.591-3.509,7.591-7.823c0-0.171-0.029-0.346-0.083-0.512L39.878,19.983
		L39.878,19.983z M38.425,43.657H9.519c-2.264,0-4.121-1.877-4.24-4.231l5.992-18.493c1.29-4.436,3.081-4.947,4.313-4.947h16.77
		c1.348,0,3.183,0.858,4.309,4.923c0.007,0.024,0.015,0.049,0.022,0.073l5.978,18.444C42.544,41.78,40.689,43.657,38.425,43.657
		L38.425,43.657z"/> <path fill-rule="evenodd" clip-rule="evenodd" fill="#4EB390" d="M17.446,20.953c-0.926,0-1.671,0.746-1.671,1.672v1.632
		c0,0.921,0.746,1.671,1.671,1.671c0.921,0,1.67-0.75,1.67-1.671v-1.632C19.116,21.698,18.368,20.953,17.446,20.953L17.446,20.953z"/> <path fill-rule="evenodd" clip-rule="evenodd" fill="#4EB390" d="M30.497,20.953c-0.923,0-1.674,0.746-1.674,1.672v1.632
		c0,0.921,0.75,1.671,1.674,1.671c0.921,0,1.671-0.75,1.671-1.671v-1.632C32.168,21.698,31.418,20.953,30.497,20.953L30.497,20.953z
		"/> <path fill-rule="evenodd" clip-rule="evenodd" fill="#4EB390" d="M28.082,28.503c-0.778-0.497-1.811-0.273-2.313,0.507
		c-0.005,0.01-0.714,1.043-1.816,1.043c-1.072,0-1.737-0.97-1.782-1.038c-0.492-0.775-1.514-1.009-2.293-0.521
		c-0.785,0.487-1.026,1.516-0.536,2.3c0.597,0.965,2.244,2.603,4.611,2.603c2.352,0,4.021-1.624,4.635-2.583
		C29.086,30.038,28.861,29.004,28.082,28.503L28.082,28.503z"/> <path fill-rule="evenodd" clip-rule="evenodd" fill="#4EB390" d="M47.778,11.059c-0.107-0.229-2.7-5.645-6.768-7.892
		c-2.676-1.482-12.217-1.876-16.889-1.876c-5.549,0-14.707,0.502-17.191,1.876c-4.065,2.247-6.66,7.662-6.77,7.892
		c-0.395,0.837-0.037,1.833,0.797,2.227c0.836,0.4,1.831,0.039,2.228-0.794c0.614-1.292,2.766-4.962,5.367-6.4
		c1.24-0.688,8.161-1.457,15.57-1.457c7.45,0,14.023,0.77,15.271,1.457c3.114,1.726,5.342,6.356,5.366,6.4
		c0.283,0.604,0.885,0.956,1.511,0.956c0.236,0,0.48-0.049,0.712-0.161C47.819,12.891,48.173,11.896,47.778,11.059L47.778,11.059z"/> </g> 
    </symbol>
    <symbol id="icon_nav_private" viewBox="0 0 48 48">
       <g> <path fill-rule="evenodd" clip-rule="evenodd" fill="#18A0B0" d="M42.758,47.458H5.316c-0.788,0-1.471-0.339-1.872-0.932
		c-0.402-0.598-0.466-1.36-0.175-2.09l4.24-10.605c0.462-1.164,1.763-2.05,3.017-2.055l4.101-0.011
		c0.17-1.657,0.589-5.071,1.537-12.351c0.177-1.375,1.4-2.446,2.787-2.446h10.521c1.372,0,2.604,1.061,2.804,2.42l1.931,13.066
		c0.103,0.716-0.391,1.385-1.108,1.493c-0.717,0.109-1.385-0.391-1.488-1.112l-1.931-13.062c-0.013-0.072-0.139-0.18-0.207-0.18
		H18.951c-0.064,0-0.175,0.098-0.183,0.16c-0.61,4.695-1.581,12.366-1.63,13.263c0.011,0.293-0.071,0.586-0.247,0.828
		c-0.246,0.34-0.641,0.546-1.063,0.546l-5.293,0.016c-0.188,0-0.518,0.221-0.584,0.396L5.941,44.833h35.957l-5.12-9.751
		c-0.337-0.639-0.089-1.437,0.553-1.771c0.641-0.339,1.434-0.093,1.773,0.551l5.52,10.513c0.381,0.721,0.381,1.488,0.008,2.111
		C44.259,47.104,43.574,47.458,42.758,47.458L42.758,47.458L42.758,47.458z"/> <path fill-rule="evenodd" clip-rule="evenodd" fill="#18A0B0" d="M25.196,43.798h-1.761c-1.403,0-2.618-1.138-2.705-2.539
		l-0.958-15.198c-0.046-0.726,0.506-1.349,1.226-1.396c0.733-0.041,1.349,0.504,1.396,1.231l0.961,15.198
		c0,0.026,0.053,0.078,0.081,0.078h1.761c0.047,0,0.126-0.072,0.131-0.119l1.445-15.198c0.065-0.727,0.715-1.251,1.428-1.184
		c0.724,0.066,1.258,0.71,1.188,1.431l-1.444,15.203C27.813,42.701,26.604,43.798,25.196,43.798L25.196,43.798z"/> <path fill-rule="evenodd" clip-rule="evenodd" fill="#18A0B0" d="M24.063,16.167c-4.286,0-7.773-3.486-7.773-7.769
		c0-4.289,3.487-7.774,7.773-7.774c4.28,0,7.771,3.485,7.771,7.774C31.835,12.681,28.344,16.167,24.063,16.167L24.063,16.167z
		 M24.063,3.022c-2.963,0-5.375,2.415-5.375,5.375s2.412,5.37,5.375,5.37c2.961,0,5.369-2.409,5.369-5.37S27.024,3.022,24.063,3.022
		L24.063,3.022z"/> </g> 
    </symbol>
    <symbol id="icon_nav_registration" viewBox="0 0 48 48">
       <g> <path fill-rule="evenodd" clip-rule="evenodd" fill="#D06539" d="M41.793,4.146h-5.724V2.24c0-1.053-0.854-1.906-1.905-1.906
		c-1.053,0-1.906,0.854-1.906,1.906v1.906H17.007V2.24c0-1.053-0.854-1.906-1.906-1.906c-1.055,0-1.905,0.854-1.905,1.906v1.906
		H7.475c-3.164,0-5.722,2.566-5.722,5.724v32.413C1.753,45.439,4.311,48,7.475,48h34.318c3.16,0,5.719-2.561,5.719-5.718V9.869
		C47.512,6.711,44.953,4.146,41.793,4.146L41.793,4.146z M45.604,42.282c0,2.1-1.709,3.812-3.812,3.812H7.475
		c-2.107,0-3.815-1.712-3.815-3.812V9.869c0-2.105,1.708-3.813,3.815-3.813h5.721v3.813c0,1.052,0.851,1.9,1.905,1.9
		c1.053,0,1.906-0.848,1.906-1.9V6.057h15.251v3.813c0,1.052,0.854,1.9,1.906,1.9c1.052,0,1.905-0.848,1.905-1.9V6.057h5.724
		c2.103,0,3.812,1.708,3.812,3.813V42.282L45.604,42.282L45.604,42.282z"/> <path fill-rule="evenodd" clip-rule="evenodd" fill="#D06539" d="M33.002,18.493L22.215,29.28l-4.045-4.048
		c-0.744-0.738-1.954-0.738-2.694,0c-0.746,0.749-0.746,1.954,0,2.702l5.393,5.389c0.743,0.748,1.951,0.748,2.691,0L35.697,21.19
		c0.746-0.744,0.746-1.953,0-2.697S33.745,17.75,33.002,18.493L33.002,18.493z"/> </g> 
    </symbol>
    <symbol id="icon_nav_search" viewBox="0 0 48 48">
       <g> <g> <path fill-rule="evenodd" clip-rule="evenodd" fill="#B2B2B2" d="M42.21,43.417L31.757,33.134
			c2.737-2.973,4.419-6.904,4.419-11.232c0-9.254-7.623-16.757-17.029-16.757c-9.406,0-17.029,7.503-17.029,16.757
			c0,9.256,7.624,16.76,17.029,16.76c4.063,0,7.791-1.406,10.717-3.745l10.492,10.325c0.512,0.503,1.34,0.503,1.854,0
			C42.72,44.736,42.72,43.922,42.21,43.417L42.21,43.417 M19.146,36.081c-7.957,0-14.409-6.348-14.409-14.18
			c0-7.831,6.452-14.179,14.409-14.179c7.959,0,14.407,6.348,14.407,14.179C33.554,29.733,27.105,36.081,19.146,36.081
			L19.146,36.081 M19.146,36.081"/> </g> </g> 
    </symbol>
    <symbol id="icon_nav_service" viewBox="0 0 48 48">
       <g> <g> <path fill="#76CAE3" d="M34.006,0.724c-4.783,0-7.929,2.117-9.745,3.875l-0.12,0.12l-0.125-0.12
			c-1.875-1.758-5.144-3.875-9.864-3.875c-7.508,0-11.563,6.964-11.563,13.56c0,9.326,7.022,17.856,20.764,25.424l0.788,0.426
			l0.783-0.426c13.861-7.568,20.889-16.161,20.889-25.544C45.813,7.569,41.392,0.724,34.006,0.724L34.006,0.724z M24.261,36.321
			l-0.063,0.058l-0.057-0.058C12.03,29.534,5.919,22.096,5.919,14.222c0-3.989,2.239-10.288,8.291-10.288
			c5.69,0,8.536,3.932,8.658,4.119l1.394,2.054l1.334-2.054c0-0.063,2.658-4.063,8.473-4.063c6.171,0,8.474,6.299,8.474,10.231
			C42.542,21.971,36.183,29.602,24.261,36.321L24.261,36.321z M24.261,36.321"/> <path fill="#76CAE3" d="M13.484,41.83h0.12v5.446h3.334v-8.593h-1.636c-0.12,0-10.715-0.125-11.079-5.451l-3.269,0.12
			C1.258,40.071,9.851,41.528,13.484,41.83L13.484,41.83z M13.484,41.83"/> <path fill="#76CAE3" d="M47.443,33.29l-3.269-0.12c-0.364,5.326-10.954,5.451-11.079,5.451h-1.636v8.655h3.27V41.83h0.122
			C38.547,41.528,47.139,40.071,47.443,33.29L47.443,33.29z M47.443,33.29"/> <path fill="#76CAE3" d="M9.188,12.713c0,1.086,0.242,6.236,5.204,8.957l1.516-2.903c-3.207-1.758-3.454-5.086-3.454-5.935
			L9.188,12.713L9.188,12.713z M9.188,12.713"/> </g> </g> 
    </symbol></svg>