<?xml version="1.0" encoding="utf-8"?>
<!-- Generator: Adobe Illustrator 16.0.0, SVG Export Plug-In . SVG Version: 6.00 Build 0)  -->
<!DOCTYPE svg PUBLIC "-//W3C//DTD SVG 1.1//EN" "http://www.w3.org/Graphics/SVG/1.1/DTD/svg11.dtd">
<svg version="1.1" id="图层_1" xmlns="http://www.w3.org/2000/svg" xmlns:xlink="http://www.w3.org/1999/xlink" x="0px" y="0px"
	 width="48px" height="48px" viewBox="0 0 48 48" enable-background="new 0 0 48 48" xml:space="preserve">
<g>
	<g>
		<path fill="#76CAE3" d="M33.656,1.076c-4.708,0-7.81,2.084-9.597,3.816L23.94,5.011l-0.122-0.118
			c-1.846-1.732-5.067-3.816-9.716-3.816c-7.392,0-11.386,6.858-11.386,13.356c0,9.181,6.915,17.585,20.449,25.04l0.774,0.416
			l0.773-0.416c13.653-7.455,20.574-15.918,20.574-25.163C45.288,7.815,40.935,1.076,33.656,1.076L33.656,1.076z M24.059,36.131
			L24,36.195l-0.059-0.064C12.016,29.454,5.994,22.122,5.994,14.372c0-3.935,2.206-10.137,8.167-10.137
			c5.604,0,8.406,3.874,8.526,4.055l1.372,2.027l1.312-2.027c0-0.057,2.621-3.999,8.347-3.999c6.081,0,8.35,6.205,8.35,10.081
			C42.067,22.002,35.803,29.515,24.059,36.131L24.059,36.131z M24.059,36.131"/>
		<path fill="#76CAE3" d="M13.446,41.561h0.118v5.362h3.281v-8.465h-1.608c-0.121,0-10.555-0.119-10.913-5.367l-3.218,0.118
			C1.405,39.826,9.868,41.263,13.446,41.561L13.446,41.561z M13.446,41.561"/>
		<path fill="#76CAE3" d="M46.894,33.149l-3.217-0.114c-0.358,5.242-10.792,5.362-10.916,5.362h-1.609v8.525h3.221v-5.362h0.119
			C38.13,41.263,46.595,39.826,46.894,33.149L46.894,33.149z M46.894,33.149"/>
		<path fill="#76CAE3" d="M9.214,12.884c0,1.07,0.239,6.138,5.127,8.82l1.492-2.861c-3.162-1.729-3.4-5.009-3.4-5.841L9.214,12.884
			L9.214,12.884z M9.214,12.884"/>
	</g>
</g>
</svg>
