<?xml version="1.0" encoding="utf-8"?>
<!-- Generator: Adobe Illustrator 16.0.0, SVG Export Plug-In . SVG Version: 6.00 Build 0)  -->
<!DOCTYPE svg PUBLIC "-//W3C//DTD SVG 1.1//EN" "http://www.w3.org/Graphics/SVG/1.1/DTD/svg11.dtd">
<svg version="1.1" id="图层_1" xmlns="http://www.w3.org/2000/svg" xmlns:xlink="http://www.w3.org/1999/xlink" x="0px" y="0px"
	 width="48px" height="48px" viewBox="0 0 48 48" enable-background="new 0 0 48 48" xml:space="preserve">
<g>
	<path fill-rule="evenodd" clip-rule="evenodd" fill="#DA506C" d="M44.229,14.881c-0.008-0.092-0.021-0.181-0.055-0.268
		c-0.008-0.029-0.018-0.059-0.029-0.086c-0.047-0.103-0.107-0.202-0.191-0.287L30.361,0.65c-0.084-0.084-0.184-0.144-0.287-0.192
		c-0.029-0.013-0.055-0.019-0.082-0.029c-0.09-0.032-0.182-0.051-0.273-0.055c-0.02-0.002-0.039-0.012-0.059-0.012H11.542
		c-4.294,0-7.784,3.49-7.784,7.782v31.713c0,4.29,3.49,7.781,7.784,7.781h24.915c4.289,0,7.783-3.491,7.783-7.781V14.939
		C44.24,14.918,44.229,14.901,44.229,14.881 M30.648,3.729l10.223,10.222L30.648,3.729z M41.225,15.925v23.93
		c0,3.204-1.564,5.102-4.768,5.102H11.542c-3.204,0-4.866-1.898-4.866-5.102V8.142c0-3.202,1.662-5.146,4.866-5.146h17.135
		L41.225,15.925z M35.324,23.014h-6.941v-6.942c0-0.544-0.441-0.987-0.986-0.987h-6.795c-0.545,0-0.986,0.443-0.986,0.987v6.942
		h-6.943c-0.544,0-0.988,0.442-0.988,0.987v6.794c0,0.546,0.443,0.986,0.988,0.986h6.943v6.943c0,0.545,0.441,0.986,0.986,0.986
		h6.795c0.545,0,0.986-0.441,0.986-0.986v-6.943h6.941c0.545,0,0.986-0.44,0.986-0.986V24
		C36.311,23.456,35.869,23.014,35.324,23.014 M34.338,29.807h-6.941c-0.543,0-0.984,0.442-0.984,0.988v6.942h-4.823v-6.94
		c0-0.548-0.441-0.988-0.985-0.988h-6.943v-4.822h6.943c0.543,0,0.985-0.442,0.985-0.986v-6.944h4.823v6.942
		c0,0.544,0.441,0.986,0.984,0.986h6.941V29.807"/>
</g>
</svg>
