<?xml version="1.0" encoding="utf-8"?>
<!-- Generator: Adobe Illustrator 16.0.0, SVG Export Plug-In . SVG Version: 6.00 Build 0)  -->
<!DOCTYPE svg PUBLIC "-//W3C//DTD SVG 1.1//EN" "http://www.w3.org/Graphics/SVG/1.1/DTD/svg11.dtd">
<svg version="1.1" id="图层_1" xmlns="http://www.w3.org/2000/svg" xmlns:xlink="http://www.w3.org/1999/xlink" x="0px" y="0px"
	 width="48px" height="48px" viewBox="0 0 48 48" enable-background="new 0 0 48 48" xml:space="preserve">
<g>
	<path fill="#36B7A6" d="M37.372,10.465H9.073c-0.549,0-0.998,0.449-0.998,1c0,0.553,0.449,1.004,0.998,1.004h28.299
		c0.555,0,1.004-0.451,1.004-1.004C38.376,10.914,37.927,10.465,37.372,10.465L37.372,10.465z M37.372,10.465"/>
	<path fill="#36B7A6" d="M39.981,4.411c-0.447-0.347-0.977-0.528-1.529-0.528H7.995c-0.553,0-1.082,0.182-1.52,0.524
		C6.065,4.713,5.761,5.142,5.571,5.65l-5.598,11.287v0.239c0,5.419,4.033,9.823,8.994,9.823c2.881,0,5.498-1.473,7.176-3.916
		C17.825,25.527,20.438,27,23.321,27c2.805,0,5.391-1.425,7.076-3.785c1.688,2.36,4.273,3.785,7.08,3.785c4.963,0,9-4.404,9-9.823
		v-0.239L40.876,5.65C40.694,5.149,40.386,4.717,39.981,4.411L39.981,4.411z M37.478,25c-2.586,0-4.953-1.587-6.176-4.141
		c-0.02-0.046-0.055-0.07-0.076-0.11c-0.041-0.06-0.074-0.11-0.127-0.16c-0.051-0.054-0.107-0.091-0.164-0.127
		c-0.041-0.022-0.064-0.058-0.107-0.077c-0.012-0.008-0.029-0.008-0.045-0.014c-0.07-0.027-0.137-0.038-0.213-0.051
		c-0.057-0.01-0.111-0.024-0.172-0.024c-0.057,0-0.117,0.015-0.178,0.027c-0.072,0.013-0.135,0.021-0.203,0.048
		c-0.014,0.006-0.037,0.006-0.051,0.014c-0.037,0.02-0.064,0.055-0.104,0.077c-0.055,0.036-0.115,0.073-0.168,0.127
		c-0.047,0.05-0.082,0.101-0.117,0.16c-0.029,0.04-0.061,0.064-0.08,0.11C28.274,23.413,25.907,25,23.321,25
		c-2.67,0-5.066-1.66-6.266-4.326c-0.018-0.045-0.055-0.072-0.08-0.12c-0.037-0.059-0.072-0.118-0.131-0.177
		c-0.051-0.05-0.111-0.081-0.168-0.123c-0.045-0.026-0.076-0.066-0.125-0.085c-0.006-0.004-0.016-0.004-0.027-0.008
		c-0.066-0.027-0.143-0.034-0.211-0.05c-0.057-0.009-0.115-0.025-0.17-0.025c-0.051,0-0.107,0.017-0.17,0.025
		c-0.068,0.016-0.145,0.022-0.209,0.05c-0.01,0.004-0.02,0.004-0.031,0.008c-0.045,0.019-0.078,0.059-0.123,0.088
		c-0.059,0.039-0.117,0.07-0.166,0.12c-0.059,0.059-0.092,0.118-0.131,0.177c-0.027,0.048-0.063,0.075-0.084,0.12
		C14.036,23.34,11.636,25,8.968,25c-3.783,0-6.883-3.384-6.992-7.593l5.42-10.925l0.051-0.123C7.485,6.252,7.554,6.1,7.698,5.992
		C7.792,5.921,7.89,5.884,7.995,5.884h30.457c0.105,0,0.207,0.031,0.307,0.112c0.137,0.107,0.203,0.253,0.242,0.355l5.475,11.056
		C44.366,21.616,41.269,25,37.478,25L37.478,25z M37.478,25"/>
	<path fill="#36B7A6" d="M40.856,29.762c-0.551,0-0.996,0.449-0.996,1.002v13.688c0,0.208-0.076,0.405-0.217,0.547
		c-0.131,0.136-0.305,0.208-0.486,0.208H7.294c-0.184,0-0.355-0.072-0.486-0.208c-0.141-0.147-0.219-0.339-0.219-0.547V30.764
		c0-0.553-0.449-1.002-1-1.002c-0.557,0-1,0.449-1,1.002v13.688c0,0.728,0.277,1.421,0.779,1.937
		c0.512,0.532,1.195,0.821,1.926,0.821h31.863c0.729,0,1.41-0.289,1.926-0.821c0.502-0.519,0.775-1.209,0.775-1.937V30.764
		C41.858,30.211,41.413,29.762,40.856,29.762L40.856,29.762z M40.856,29.762"/>
</g>
</svg>
