<?xml version="1.0" encoding="utf-8"?>
<!-- Generator: Adobe Illustrator 16.0.0, SVG Export Plug-In . SVG Version: 6.00 Build 0)  -->
<!DOCTYPE svg PUBLIC "-//W3C//DTD SVG 1.1//EN" "http://www.w3.org/Graphics/SVG/1.1/DTD/svg11.dtd">
<svg version="1.1" id="图层_1" xmlns="http://www.w3.org/2000/svg" xmlns:xlink="http://www.w3.org/1999/xlink" x="0px" y="0px"
	 width="48px" height="48px" viewBox="0 0 48 48" enable-background="new 0 0 48 48" xml:space="preserve">
<g>
	<g>
		<path fill="#DDA872" d="M24,1.631c-12.782,0-23.181,10.403-23.181,23.184S11.217,48,24,48c12.784,0,23.182-10.405,23.182-23.186
			S36.784,1.631,24,1.631L24,1.631z M24,45.559c-11.438,0-20.741-9.308-20.741-20.744S12.562,4.074,24,4.074
			c11.437,0,20.741,9.304,20.741,20.74S35.436,45.559,24,45.559L24,45.559z M24,45.559"/>
		<path fill="#DDA872" d="M18.272,23.145c0.673,0,1.221-0.549,1.221-1.223c0-0.676-0.548-1.223-1.221-1.223
			c-1.921,0-3.487-1.572-3.487-3.511c0-1.941,1.566-3.516,3.487-3.516c0.476,0,0.936,0.096,1.367,0.278
			c0.62,0.271,1.336-0.017,1.602-0.632c0.265-0.624-0.019-1.342-0.64-1.607c-0.74-0.318-1.523-0.479-2.33-0.479
			c-3.266,0-5.926,2.674-5.926,5.955c0,1.512,0.568,2.885,1.495,3.939c-5.975,2.825-6.229,8.417-6.236,8.673
			c-0.023,0.676,0.506,1.241,1.18,1.262c0.013,0,0.026,0,0.039,0c0.656,0,1.198-0.521,1.22-1.187c0-0.048,0.232-5.126,6.226-7.091
			C16.896,23.014,17.568,23.145,18.272,23.145L18.272,23.145z M18.272,23.145"/>
		<path fill="#DDA872" d="M38.32,30.035c-0.991-1.896-2.898-4.323-6.466-5.966c1.361-1.302,2.212-3.123,2.212-5.145
			c0-3.936-3.219-7.136-7.171-7.136c-3.955,0-7.172,3.2-7.172,7.136c0,1.963,0.799,3.741,2.09,5.032
			c-7.756,3.421-8.083,10.668-8.087,10.745c-0.021,0.671,0.501,1.23,1.172,1.256c0.017,0,0.033,0,0.048,0
			c0.65,0,1.192-0.518,1.22-1.173c0.009-0.274,0.371-6.717,8.2-9.189c0.788,0.296,1.638,0.466,2.529,0.466
			c0.824,0,1.612-0.144,2.354-0.399c7.633,2.519,7.999,8.838,8.012,9.123c0.025,0.655,0.564,1.177,1.218,1.177
			c0.012,0,0.029,0,0.037,0c0.676-0.025,1.201-0.589,1.186-1.26C39.698,34.612,39.612,32.495,38.32,30.035L38.32,30.035z
			 M26.896,23.623c-2.607,0-4.729-2.106-4.729-4.702c0-2.585,2.122-4.695,4.729-4.695c2.608,0,4.729,2.11,4.729,4.695
			C31.625,21.517,29.504,23.623,26.896,23.623L26.896,23.623z M26.896,23.623"/>
		<path fill="#DDA872" d="M29.99,19.258c-0.312-0.124-0.665,0.027-0.789,0.341c-0.303,0.758-0.932,1.655-2.247,1.655
			c-1.303,0-1.934-0.886-2.237-1.628c-0.128-0.313-0.482-0.468-0.797-0.341c-0.311,0.131-0.461,0.484-0.335,0.794
			c0.617,1.524,1.844,2.394,3.369,2.394c1.535,0,2.77-0.88,3.381-2.421C30.46,19.738,30.305,19.383,29.99,19.258L29.99,19.258z
			 M29.99,19.258"/>
	</g>
</g>
</svg>
