<?xml version="1.0" encoding="utf-8"?>
<!-- Generator: Adobe Illustrator 16.0.0, SVG Export Plug-In . SVG Version: 6.00 Build 0)  -->
<!DOCTYPE svg PUBLIC "-//W3C//DTD SVG 1.1//EN" "http://www.w3.org/Graphics/SVG/1.1/DTD/svg11.dtd">
<svg version="1.1" id="图层_1" xmlns="http://www.w3.org/2000/svg" xmlns:xlink="http://www.w3.org/1999/xlink" x="0px" y="0px"
	 width="48px" height="48px" viewBox="0 0 48 48" enable-background="new 0 0 48 48" xml:space="preserve">
<g>
	<path fill="#DA506C" d="M45.419,22.753H2.301c-0.584,0-1.06-0.471-1.06-1.053v-8.667c0-0.587,0.476-1.055,1.06-1.055h43.118
		c0.583,0,1.058,0.468,1.058,1.055V21.7C46.477,22.282,46.002,22.753,45.419,22.753L45.419,22.753z M3.358,20.641h41.008v-6.554
		H3.358V20.641L3.358,20.641z M3.358,20.641"/>
	<path fill="#DA506C" d="M42.883,45.744H4.942c-0.583,0-1.058-0.478-1.058-1.058V22.12c0-0.584,0.475-1.058,1.058-1.058
		s1.057,0.474,1.057,1.058v21.508h35.825V22.12c0-0.584,0.476-1.058,1.059-1.058c0.584,0,1.058,0.474,1.058,1.058v22.566
		C43.94,45.267,43.467,45.744,42.883,45.744L42.883,45.744z M42.883,45.744"/>
	<path fill="#DA506C" d="M23.999,45.054c-0.583,0-1.057-0.472-1.057-1.056V6.322c0-0.584,0.474-1.058,1.057-1.058
		c0.586,0,1.059,0.474,1.059,1.058v37.676C25.058,44.582,24.585,45.054,23.999,45.054L23.999,45.054z M23.999,45.054"/>
	<path fill="#DA506C" d="M33.309,13.547c-0.29,0-0.578-0.112-0.782-0.342c-0.399-0.428-0.363-1.102,0.066-1.491
		c0.963-0.88,1.517-2.135,1.517-3.438c0-2.652-1.997-4.648-4.65-4.648c-1.869,0-3.552,1.11-4.281,2.835
		c-0.229,0.541-0.851,0.791-1.387,0.566C23.253,6.8,23,6.18,23.228,5.642c1.061-2.51,3.508-4.13,6.231-4.13
		c1.863,0,3.585,0.706,4.847,1.989c1.239,1.258,1.919,2.956,1.919,4.775c0,1.897-0.806,3.718-2.208,4.999
		C33.812,13.462,33.561,13.547,33.309,13.547L33.309,13.547z M33.309,13.547"/>
	<path fill="#DA506C" d="M14.756,13.547c-0.252,0-0.508-0.085-0.711-0.271c-1.404-1.281-2.209-3.102-2.209-4.999
		c0-1.819,0.684-3.518,1.922-4.775c1.259-1.283,2.979-1.989,4.842-1.989c2.724,0,5.171,1.62,6.234,4.13
		c0.224,0.538-0.028,1.158-0.565,1.388c-0.534,0.225-1.157-0.025-1.385-0.566c-0.727-1.725-2.411-2.835-4.284-2.835
		c-2.651,0-4.649,1.996-4.649,4.648c0,1.303,0.553,2.558,1.516,3.438c0.433,0.39,0.464,1.063,0.071,1.491
		C15.329,13.435,15.045,13.547,14.756,13.547L14.756,13.547z M14.756,13.547"/>
</g>
</svg>
