<?xml version="1.0" encoding="utf-8"?>
<!-- Generator: Adobe Illustrator 16.0.0, SVG Export Plug-In . SVG Version: 6.00 Build 0)  -->
<!DOCTYPE svg PUBLIC "-//W3C//DTD SVG 1.1//EN" "http://www.w3.org/Graphics/SVG/1.1/DTD/svg11.dtd">
<svg version="1.1" id="图层_1" xmlns="http://www.w3.org/2000/svg" xmlns:xlink="http://www.w3.org/1999/xlink" x="0px" y="0px"
	 width="48px" height="48px" viewBox="0 0 48 48" enable-background="new 0 0 48 48" xml:space="preserve">
<g>
	<path fill-rule="evenodd" clip-rule="evenodd" fill="#76CAE3" d="M42.993,5.299c-2.558-2.559-5.957-3.968-9.574-3.968
		c-3.616,0-7.018,1.409-9.575,3.968L4.648,24.494c-2.557,2.557-3.965,5.958-3.965,9.574c0,3.616,1.408,7.017,3.965,9.574
		c2.558,2.558,5.958,3.967,9.575,3.967c3.617,0,7.018-1.407,9.575-3.967l19.195-19.194c2.56-2.558,3.968-5.959,3.968-9.576
		C46.96,11.256,45.552,7.856,42.993,5.299L42.993,5.299z M22.294,42.14c-2.156,2.154-5.022,3.343-8.071,3.343
		c-3.049,0-5.915-1.188-8.071-3.343c-4.449-4.452-4.449-11.692,0-16.143l8.848-8.847l16.142,16.142L22.294,42.14L22.294,42.14z
		 M41.489,22.944l-8.844,8.845L16.503,15.646l8.845-8.844c2.156-2.157,5.023-3.345,8.072-3.345s5.915,1.188,8.069,3.345
		c2.157,2.155,3.345,5.022,3.345,8.069C44.834,17.92,43.646,20.788,41.489,22.944L41.489,22.944z"/>
	<path fill-rule="evenodd" clip-rule="evenodd" fill="#76CAE3" d="M33.419,5.171c-2.59,0-5.027,1.009-6.861,2.842l-6.149,6.149
		c-0.415,0.415-0.415,1.088,0,1.503c0.208,0.207,0.479,0.311,0.752,0.311c0.271,0,0.544-0.104,0.75-0.311l6.148-6.148
		c1.434-1.432,3.336-2.22,5.358-2.22c2.022,0,3.925,0.788,5.355,2.22c0.415,0.415,1.088,0.415,1.504,0
		c0.415-0.416,0.415-1.088,0-1.504C38.446,6.18,36.009,5.171,33.419,5.171L33.419,5.171z"/>
</g>
</svg>
