<?xml version="1.0" encoding="utf-8"?>
<!-- Generator: Adobe Illustrator 16.0.0, SVG Export Plug-In . SVG Version: 6.00 Build 0)  -->
<!DOCTYPE svg PUBLIC "-//W3C//DTD SVG 1.1//EN" "http://www.w3.org/Graphics/SVG/1.1/DTD/svg11.dtd">
<svg version="1.1" id="图层_1" xmlns="http://www.w3.org/2000/svg" xmlns:xlink="http://www.w3.org/1999/xlink" x="0px" y="0px"
	 width="48px" height="48px" viewBox="0 0 48 48" enable-background="new 0 0 48 48" xml:space="preserve">
<g>
	<path fill="#E4715D" d="M24.239,41.919c12.349,0,22.393-9.036,22.393-20.145S36.588,1.631,24.239,1.631
		c-12.35,0-22.396,9.035-22.396,20.144c0,6.522,3.533,12.668,9.451,16.441l0.136,0.088L11.427,48l8.539-6.442l0.122,0.021
		C21.446,41.807,22.846,41.919,24.239,41.919L24.239,41.919z M19.247,39.242l-5.188,3.696l0.026-5.557
		C7.83,34.154,3.949,28.178,3.949,21.774c0-9.947,9.102-18.043,20.29-18.043c11.184,0,20.288,8.096,20.288,18.043
		c0,9.95-9.104,18.042-20.288,18.042C22.604,39.816,20.927,39.622,19.247,39.242L19.247,39.242z M19.247,39.242"/>
	<path fill="#E4715D" d="M33.354,25.546H15.346c-0.458,0-0.829,0.545-0.829,1.224v0.534c0,0.669,0.371,1.217,0.829,1.217h18.009
		c0.458,0,0.83-0.548,0.83-1.217V26.77C34.185,26.091,33.813,25.546,33.354,25.546L33.354,25.546z M33.354,25.546"/>
	<path fill="#E4715D" d="M36.266,15.85H12.43c-0.618,0-1.118,0.544-1.118,1.22v0.535c0,0.676,0.5,1.222,1.118,1.222h23.836
		c0.619,0,1.119-0.546,1.119-1.222v-0.535C37.385,16.394,36.885,15.85,36.266,15.85L36.266,15.85z M36.266,15.85"/>
</g>
</svg>
