<?xml version="1.0" encoding="utf-8"?>
<!-- Generator: Adobe Illustrator 16.0.0, SVG Export Plug-In . SVG Version: 6.00 Build 0)  -->
<!DOCTYPE svg PUBLIC "-//W3C//DTD SVG 1.1//EN" "http://www.w3.org/Graphics/SVG/1.1/DTD/svg11.dtd">
<svg version="1.1" id="图层_1" xmlns="http://www.w3.org/2000/svg" xmlns:xlink="http://www.w3.org/1999/xlink" x="0px" y="0px"
	 width="48px" height="48px" viewBox="0 0 48 48" enable-background="new 0 0 48 48" xml:space="preserve">
<g>
	<path fill="#86C6A0" d="M12.825,32.145h10.436c0.864,0,1.565-0.697,1.565-1.562s-0.701-1.567-1.565-1.567H12.825
		c-0.864,0-1.565,0.703-1.565,1.567S11.961,32.145,12.825,32.145L12.825,32.145z M12.825,32.145"/>
	<path fill="#86C6A0" d="M30.563,37.419H12.825c-0.864,0-1.565,0.703-1.565,1.567c0,0.862,0.701,1.563,1.565,1.563h17.738
		c0.867,0,1.568-0.701,1.568-1.563C32.132,38.122,31.431,37.419,30.563,37.419L30.563,37.419z M30.563,37.419"/>
	<path fill="#86C6A0" d="M41.521,1.382H8.13C6.401,1.382,5,2.783,5,4.512v39.627c0,1.728,1.401,3.129,3.13,3.129h33.391
		c1.729,0,3.13-1.401,3.13-3.129V4.512C44.65,2.783,43.25,1.382,41.521,1.382L41.521,1.382z M41.521,8.378v34.721
		c0,0.573-0.468,1.04-1.044,1.04H9.175c-0.577,0-1.045-0.467-1.045-1.04V5.552c0-0.574,0.468-1.04,1.045-1.04h31.302
		c0.576,0,1.044,0.466,1.044,1.04V8.378L41.521,8.378z M41.521,8.378"/>
	<path fill="#86C6A0" d="M32.891,7.656c-1.41,0-2.822,0.533-3.892,1.604c-1.071-1.071-2.483-1.604-3.895-1.604
		c-1.409,0-2.822,0.533-3.891,1.604c-2.139,2.14-2.139,5.64,0,7.782l0,0l7.785,7.78l0,0l0,0l0,0l7.786-7.78
		c2.14-2.143,2.14-5.643,0-7.782C35.713,8.189,34.302,7.656,32.891,7.656L32.891,7.656z M34.569,14.83l-5.57,5.566l-5.574-5.566
		c-0.923-0.926-0.923-2.433,0.003-3.356c0.441-0.443,1.038-0.691,1.677-0.691c0.642,0.003,1.235,0.248,1.683,0.691l2.212,2.209
		l2.211-2.209c0.446-0.443,1.042-0.691,1.681-0.691s1.234,0.248,1.679,0.691c0.444,0.441,0.688,1.037,0.688,1.676
		C35.258,13.789,35.014,14.386,34.569,14.83L34.569,14.83z M34.569,14.83"/>
</g>
</svg>
