<?xml version="1.0" encoding="utf-8"?>
<!-- Generator: Adobe Illustrator 16.0.0, SVG Export Plug-In . SVG Version: 6.00 Build 0)  -->
<!DOCTYPE svg PUBLIC "-//W3C//DTD SVG 1.1//EN" "http://www.w3.org/Graphics/SVG/1.1/DTD/svg11.dtd">
<svg version="1.1" id="图层_1" xmlns="http://www.w3.org/2000/svg" xmlns:xlink="http://www.w3.org/1999/xlink" x="0px" y="0px"
	 width="48px" height="48px" viewBox="0 0 48 48" enable-background="new 0 0 48 48" xml:space="preserve">
<g>
	<path fill-rule="evenodd" clip-rule="evenodd" fill="#3BA7C1" d="M47.599,45.376l-1.715,1.726c-0.679,0.676-1.775,0.676-2.452,0
		l-6.914-6.942c-1.663,0.975-3.6,1.537-5.669,1.537c-6.216,0-11.604-5.405-11.604-11.647c0-6.241,5.04-11.298,11.257-11.298
		c6.22,0,11.606,5.404,11.606,11.647c0,2.147-0.596,4.155-1.633,5.863l6.876,6.902C48.029,43.848,48.275,44.698,47.599,45.376
		L47.599,45.376 M30.502,22.226c-4.302,0-7.793,3.502-7.793,7.824c0,4.323,3.836,8.171,8.14,8.171c4.305,0,7.797-3.505,7.797-7.823
		C38.646,26.076,34.809,22.226,30.502,22.226L30.502,22.226 M6.587,32.917v-1.859h8.385c0.019,0.629,0.078,1.25,0.171,1.859H6.587
		L6.587,32.917 M6.587,25.484h9.253c-0.216,0.603-0.402,1.22-0.541,1.858H6.587V25.484L6.587,25.484 M6.587,21.77v-1.858h12.71
		c-0.563,0.576-1.077,1.198-1.54,1.858H6.587L6.587,21.77 M6.587,8.764h18.578v1.858H6.587V8.764L6.587,8.764 M25.165,16.156
		c-0.033,0.014-0.067,0.025-0.103,0.039H6.587v-1.859h18.578V16.156L25.165,16.156 M28.882,15.335V5.047H2.871V36.63h13.314
		c0.579,1.347,1.344,2.601,2.266,3.717H2.871c-1.027,0-1.857-0.831-1.857-1.859V3.189c0-1.028,0.83-1.858,1.857-1.858h26.011
		c1.025,0,1.857,0.831,1.857,1.858v12.099c-0.154-0.004-0.309-0.022-0.464-0.022C29.806,15.266,29.342,15.296,28.882,15.335
		L28.882,15.335 M28.882,15.335L28.882,15.335z"/>
</g>
</svg>
