<?xml version="1.0" encoding="utf-8"?>
<!-- Generator: Adobe Illustrator 16.0.0, SVG Export Plug-In . SVG Version: 6.00 Build 0)  -->
<!DOCTYPE svg PUBLIC "-//W3C//DTD SVG 1.1//EN" "http://www.w3.org/Graphics/SVG/1.1/DTD/svg11.dtd">
<svg version="1.1" id="图层_1" xmlns="http://www.w3.org/2000/svg" xmlns:xlink="http://www.w3.org/1999/xlink" x="0px" y="0px"
	 width="48px" height="48px" viewBox="0 0 48 48" enable-background="new 0 0 48 48" xml:space="preserve">
<g>
	<path fill="#57A2D7" d="M42.712,36.826c0,4.027-9.986,6.133-19.855,6.133S3,40.854,3,36.826c0-3.573,7.697-5.062,11.004-5.537
		c0.493-0.068,0.947,0.272,1.018,0.765c0.071,0.493-0.27,0.947-0.763,1.021C7.371,34.06,4.801,35.9,4.801,36.826
		c0,1.769,7.035,4.332,18.056,4.332c11.024,0,18.058-2.563,18.058-4.332c0-0.935-2.596-2.782-9.551-3.767
		c-0.493-0.071-0.835-0.527-0.766-1.018c0.071-0.493,0.525-0.832,1.018-0.765C34.952,31.75,42.712,33.234,42.712,36.826
		L42.712,36.826z M19.052,15.45c0-2.102,1.706-3.807,3.805-3.807c2.101,0,3.809,1.705,3.809,3.807c0,2.099-1.708,3.809-3.809,3.809
		C20.758,19.259,19.052,17.549,19.052,15.45L19.052,15.45z M28.467,15.45c0-3.091-2.517-5.605-5.61-5.605
		c-3.091,0-5.607,2.517-5.607,5.605c0,3.093,2.517,5.607,5.607,5.607C25.95,21.058,28.467,18.543,28.467,15.45L28.467,15.45z
		 M22.857,5.784c5.537,0,10.042,4.507,10.042,10.039c0,7.674-7.779,16.294-10.049,18.647c-2.277-2.31-10.033-10.759-10.033-18.647
		C12.818,10.291,17.32,5.784,22.857,5.784L22.857,5.784z M22.245,36.4l0.621,0.579l0.616-0.588
		c0.455-0.438,11.219-10.858,11.219-20.566c0-6.528-5.313-11.842-11.844-11.842c-6.531,0-11.84,5.313-11.84,11.842
		C11.017,25.798,21.786,35.974,22.245,36.4L22.245,36.4z M22.245,36.4"/>
</g>
</svg>
