<?xml version="1.0" encoding="utf-8"?>
<!-- Generator: Adobe Illustrator 16.0.0, SVG Export Plug-In . SVG Version: 6.00 Build 0)  -->
<!DOCTYPE svg PUBLIC "-//W3C//DTD SVG 1.1//EN" "http://www.w3.org/Graphics/SVG/1.1/DTD/svg11.dtd">
<svg version="1.1" id="图层_1" xmlns="http://www.w3.org/2000/svg" xmlns:xlink="http://www.w3.org/1999/xlink" x="0px" y="0px"
	 width="48px" height="48px" viewBox="0 0 48 48" enable-background="new 0 0 48 48" xml:space="preserve">
<g>
	<path fill="#1EAEC0" d="M38.033,46.274H10.681c-2.515,0-4.559-2.044-4.559-4.558V11.333c0-2.515,2.044-4.559,4.559-4.559h21.268
		c0.84,0,1.519,0.679,1.519,1.52c0,0.842-0.679,1.52-1.519,1.52H10.681c-0.834,0-1.52,0.685-1.52,1.519v30.384
		c0,0.842,0.686,1.519,1.52,1.519h27.343c0.843,0,1.52-0.677,1.52-1.519V17.402c0-0.842,0.676-1.519,1.519-1.519
		c0.844,0,1.521,0.677,1.521,1.519v24.305C42.591,44.224,40.538,46.274,38.033,46.274L38.033,46.274L38.033,46.274z M38.033,46.274"
		/>
	<path fill="#1EAEC0" d="M29.104,21.958c-0.39,0-0.774-0.145-1.075-0.45c-0.597-0.597-0.597-1.551,0-2.147L43.13,4.268
		c0.596-0.596,1.551-0.596,2.147,0c0.596,0.597,0.596,1.551,0,2.147L30.176,21.517C29.883,21.813,29.49,21.958,29.104,21.958
		L29.104,21.958L29.104,21.958z M29.104,21.958"/>
	<path fill="#1EAEC0" d="M22.833,21.958h-9.116c-0.841,0-1.517-0.679-1.517-1.518c0-0.842,0.676-1.519,1.517-1.519h9.116
		c0.841,0,1.52,0.677,1.52,1.519C24.354,21.279,23.674,21.958,22.833,21.958L22.833,21.958L22.833,21.958z M22.833,21.958"/>
	<path fill="#1EAEC0" d="M31.955,31.074H13.718c-0.841,0-1.517-0.676-1.517-1.519c0-0.843,0.676-1.52,1.517-1.52h18.231
		c0.84,0,1.519,0.677,1.519,1.52C33.468,30.397,32.789,31.074,31.955,31.074L31.955,31.074L31.955,31.074z M31.955,31.074"/>
</g>
</svg>
