<?xml version="1.0" encoding="utf-8"?>
<!-- Generator: Adobe Illustrator 16.0.0, SVG Export Plug-In . SVG Version: 6.00 Build 0)  -->
<!DOCTYPE svg PUBLIC "-//W3C//DTD SVG 1.1//EN" "http://www.w3.org/Graphics/SVG/1.1/DTD/svg11.dtd">
<svg version="1.1" id="图层_1" xmlns="http://www.w3.org/2000/svg" xmlns:xlink="http://www.w3.org/1999/xlink" x="0px" y="0px"
	 width="48px" height="48px" viewBox="0 0 48 48" enable-background="new 0 0 48 48" xml:space="preserve">
<g>
	<path fill="#87538A" d="M32.499,31.73H16.475c-0.335,0-0.617,0.111-0.841,0.335c-0.224,0.225-0.335,0.495-0.335,0.822
		c0,0.321,0.111,0.604,0.335,0.837c0.224,0.24,0.506,0.359,0.841,0.359h-0.001h16.023c0.222,0,0.418-0.056,0.587-0.169
		c0.168-0.109,0.304-0.259,0.398-0.439c0.098-0.181,0.148-0.37,0.148-0.566c0-0.337-0.105-0.619-0.315-0.844
		C33.108,31.842,32.833,31.73,32.499,31.73L32.499,31.73z M32.499,31.73"/>
	<path fill="#87538A" d="M32.499,24.666H16.475H16.47c-0.337,0-0.615,0.112-0.841,0.338c-0.222,0.222-0.337,0.502-0.337,0.841
		c0,0.198,0.058,0.386,0.17,0.566c0.111,0.183,0.252,0.329,0.422,0.441c0.167,0.113,0.364,0.169,0.59,0.169h16.023
		c0.165,0,0.32-0.035,0.459-0.105c0.141-0.07,0.259-0.154,0.357-0.252c0.098-0.099,0.176-0.219,0.234-0.36
		c0.055-0.137,0.083-0.293,0.083-0.461c0-0.337-0.105-0.619-0.315-0.839C33.108,24.777,32.833,24.666,32.499,24.666L32.499,24.666z
		 M32.499,24.666"/>
	<path fill="#87538A" d="M32.499,17.6H16.475c-0.335,0-0.617,0.113-0.841,0.34c-0.224,0.22-0.335,0.496-0.335,0.816
		c0,0.322,0.111,0.603,0.335,0.844c0.224,0.236,0.506,0.355,0.841,0.355h16.023c0.335,0,0.61-0.119,0.817-0.355
		c0.209-0.241,0.315-0.521,0.315-0.844c0-0.32-0.105-0.597-0.315-0.816C33.108,17.713,32.833,17.6,32.499,17.6L32.499,17.6z
		 M32.499,17.6"/>
	<path fill="#87538A" d="M22.487,12.531c0.111,0.1,0.235,0.186,0.376,0.256c0.143,0.07,0.282,0.104,0.423,0.104h9.212
		c0.335,0,0.61-0.119,0.817-0.359c0.209-0.237,0.315-0.518,0.315-0.842c0-0.32-0.105-0.593-0.315-0.814
		c-0.207-0.227-0.482-0.34-0.817-0.34h-9.212l0,0c-0.085,0-0.196,0.013-0.338,0.041c-0.534,0.168-0.8,0.547-0.8,1.136
		c0,0.17,0.03,0.322,0.085,0.463C22.292,12.313,22.374,12.435,22.487,12.531L22.487,12.531z M22.487,12.531"/>
	<path fill="#87538A" d="M42.585,11.962c-0.111-0.279-0.272-0.524-0.482-0.734c-0.211-0.211-0.456-0.379-0.738-0.505
		c-0.278-0.126-0.574-0.189-0.882-0.189l0.001,0.002h-2.27V8.18c0-0.644-0.227-1.195-0.673-1.66c-0.451-0.46-0.982-0.691-1.6-0.693
		H13.108c-0.615,0-1.151,0.233-1.598,0.693c-0.452,0.467-0.674,1.017-0.674,1.66v28.26c0,0.647,0.222,1.199,0.674,1.662
		c0.447,0.46,0.982,0.693,1.598,0.693h2.313v2.355c0,0.644,0.218,1.199,0.652,1.658c0.434,0.464,0.973,0.695,1.618,0.697h22.793
		c0.308,0,0.604-0.064,0.882-0.191c0.28-0.126,0.526-0.294,0.738-0.506c0.211-0.211,0.371-0.461,0.482-0.756
		c0.111-0.295,0.17-0.597,0.17-0.904V12.891C42.756,12.554,42.696,12.246,42.585,11.962L42.585,11.962z M13.082,36.579
		L13.082,36.579V7.916l0,0H36.14h0.004v1.24v26.181v1.242H36.14H13.082L13.082,36.579z M40.485,41.15L40.485,41.15H17.693v-2.355
		h18.25c0.393,0,0.765-0.105,1.116-0.315c0.348-0.211,0.63-0.496,0.841-0.863c0.209-0.363,0.315-0.756,0.315-1.177V12.891h2.27
		V41.15L40.485,41.15z M40.485,41.15"/>
</g>
</svg>
