<?xml version="1.0" encoding="utf-8"?>
<!-- Generator: Adobe Illustrator 16.0.0, SVG Export Plug-In . SVG Version: 6.00 Build 0)  -->
<!DOCTYPE svg PUBLIC "-//W3C//DTD SVG 1.1//EN" "http://www.w3.org/Graphics/SVG/1.1/DTD/svg11.dtd">
<svg version="1.1" id="图层_1" xmlns="http://www.w3.org/2000/svg" xmlns:xlink="http://www.w3.org/1999/xlink" x="0px" y="0px"
	 width="48px" height="48px" viewBox="0 0 48 48" enable-background="new 0 0 48 48" xml:space="preserve">
<g>
	<path fill="#DA506C" d="M43.07,17.383l-11.492-2.82l-0.289-0.07L24.842,3.521h-0.024c-0.358-0.485-0.892-0.816-1.521-0.816
		c-0.646,0-1.188,0.346-1.544,0.85H21.73l-6.413,10.954l-0.029,0.005L3.592,17.421C2.688,17.6,2,18.429,2,19.434
		c0,0.466,0.154,0.887,0.417,1.229l0,0l0.024,0.036c0.014,0.014,0.023,0.031,0.038,0.043l7.7,9.593l0.066,0.089
		c0,0-0.833,12.691-0.833,12.829c0,1.13,0.875,2.044,1.952,2.044c0.331,0,0.627-0.104,0.897-0.254l11.063-4.801l11.008,4.751
		c0.287,0.177,0.608,0.304,0.971,0.304c1.075,0,1.955-0.914,1.955-2.044c0-0.164-0.946-12.856-0.946-12.856l7.604-9.458
		c0.429-0.375,0.712-0.917,0.712-1.546C44.63,18.402,43.961,17.575,43.07,17.383L43.07,17.383z M41.619,20.271
		c-0.383,0.453-7.727,9.17-7.727,9.17l0.752,12.569c0,0,0.136,0.837-0.948,0.348c-1.079-0.487-10.396-4.691-10.396-4.691
		s-9.858,4.392-10.646,4.741c-0.789,0.351-0.804-0.404-0.804-0.404l0.958-12.462c0,0-7.328-8.797-7.711-9.255
		s-0.313-0.566-0.089-0.623c0.142-0.039,11.842-2.835,11.842-2.835s5.929-10.934,6.11-11.267c0.182-0.338,0.492-0.344,0.693,0.017
		c0.205,0.358,6.359,11.258,6.359,11.258l11.616,2.909C41.63,19.746,42.003,19.818,41.619,20.271L41.619,20.271z M41.619,20.271"/>
</g>
</svg>
