<?xml version="1.0" encoding="utf-8"?>
<!-- Generator: Adobe Illustrator 16.0.0, SVG Export Plug-In . SVG Version: 6.00 Build 0)  -->
<!DOCTYPE svg PUBLIC "-//W3C//DTD SVG 1.1//EN" "http://www.w3.org/Graphics/SVG/1.1/DTD/svg11.dtd">
<svg version="1.1" id="图层_1" xmlns="http://www.w3.org/2000/svg" xmlns:xlink="http://www.w3.org/1999/xlink" x="0px" y="0px"
	 width="48px" height="48px" viewBox="0 0 48 48" enable-background="new 0 0 48 48" xml:space="preserve">
<g>
	<path fill="#1FA096" d="M3.417,7.758C3.177,8.175,3.041,8.662,3.041,9.179v11.494c0,1.585,1.286,2.868,2.869,2.868h11.496
		c1.583,0,2.869-1.283,2.869-2.868V9.179c0.016-1.585-1.269-2.871-2.869-2.871H5.91C4.841,6.308,3.912,6.892,3.417,7.758
		 M16.397,21.235h-9.45c-0.799,0-1.6-0.801-1.6-1.601v-9.448c0-0.801,0.801-1.604,1.6-1.604h9.45c0.8,0,1.601,0.803,1.601,1.604
		v9.448C17.999,20.435,17.198,21.235,16.397,21.235L16.397,21.235z M16.397,21.235"/>
	<path fill="#1FA096" d="M25.954,7.718c-0.241,0.421-0.378,0.903-0.378,1.423v11.491c0,1.586,1.288,2.869,2.869,2.869H39.94
		c1.585,0,2.869-1.283,2.869-2.869V9.141c0.018-1.586-1.268-2.871-2.869-2.871H28.444C27.378,6.27,26.446,6.851,25.954,7.718
		 M38.934,21.195h-9.452c-0.797,0-1.598-0.801-1.598-1.598v-9.451c0-0.801,0.801-1.602,1.598-1.602h9.452
		c0.801,0,1.598,0.801,1.598,1.602v9.451C40.532,20.395,39.735,21.195,38.934,21.195L38.934,21.195z M38.934,21.195"/>
	<path fill="#1FA096" d="M3.433,30.225c-0.241,0.419-0.378,0.903-0.378,1.421v11.495c0,1.582,1.288,2.867,2.871,2.867h11.498
		c1.582,0,2.867-1.285,2.867-2.867V31.646c0.016-1.582-1.271-2.873-2.867-2.873H5.925C4.857,28.772,3.926,29.355,3.433,30.225
		 M16.414,43.7H6.961c-0.796,0-1.597-0.801-1.597-1.602v-9.447c0-0.799,0.801-1.6,1.597-1.6h9.452c0.8,0,1.597,0.801,1.597,1.6
		v9.447C18.011,42.899,17.214,43.7,16.414,43.7L16.414,43.7z M16.414,43.7"/>
	<path fill="#1FA096" d="M25.97,30.185c-0.241,0.418-0.38,0.905-0.38,1.42v11.494c0,1.583,1.288,2.873,2.871,2.873h11.496
		c1.585,0,2.871-1.29,2.871-2.873V31.604c0.014-1.581-1.27-2.87-2.871-2.87H28.46C27.394,28.734,26.46,29.319,25.97,30.185
		 M38.95,43.66h-9.452c-0.801,0-1.6-0.797-1.6-1.6v-9.45c0-0.796,0.799-1.599,1.6-1.599h9.452c0.799,0,1.598,0.803,1.598,1.599v9.45
		C40.548,42.863,39.749,43.66,38.95,43.66L38.95,43.66z M38.95,43.66"/>
</g>
</svg>
