<?xml version="1.0" encoding="utf-8"?>
<!-- Generator: Adobe Illustrator 16.0.0, SVG Export Plug-In . SVG Version: 6.00 Build 0)  -->
<!DOCTYPE svg PUBLIC "-//W3C//DTD SVG 1.1//EN" "http://www.w3.org/Graphics/SVG/1.1/DTD/svg11.dtd">
<svg version="1.1" id="图层_1" xmlns="http://www.w3.org/2000/svg" xmlns:xlink="http://www.w3.org/1999/xlink" x="0px" y="0px"
	 width="48px" height="48px" viewBox="0 0 48 48" enable-background="new 0 0 48 48" xml:space="preserve">
<g>
	<path fill="#E4715D" d="M39.616,19.166h-0.353V14.6c0-6.927-5.773-12.561-12.867-12.561S13.53,7.673,13.53,14.6v4.566h-0.354
		c-2.128,0-3.861,1.704-3.861,3.8v17.245c0,2.093,1.733,3.801,3.861,3.801h26.44c2.13,0,3.865-1.708,3.865-3.801V22.966
		C43.481,20.87,41.746,19.166,39.616,19.166L39.616,19.166L39.616,19.166z M16.597,14.6c0-5.23,4.399-9.491,9.8-9.491
		c5.406,0,9.801,4.261,9.801,9.491v4.566H16.597V14.6L16.597,14.6L16.597,14.6z M40.411,40.211c0,0.399-0.353,0.724-0.795,0.724
		h-26.44c-0.437,0-0.792-0.324-0.792-0.724V22.966c0-0.403,0.355-0.728,0.792-0.728h26.44c0.437,0,0.795,0.324,0.795,0.728V40.211
		L40.411,40.211L40.411,40.211z M40.411,40.211"/>
	<path fill="#E4715D" d="M26.396,24.61c-2.39,0-4.331,1.942-4.331,4.332c0,1.848,1.168,3.417,2.795,4.04v2.849
		c0,0.848,0.69,1.536,1.536,1.536s1.535-0.688,1.535-1.536v-2.849c1.628-0.623,2.795-2.192,2.795-4.04
		C30.727,26.553,28.787,24.61,26.396,24.61L26.396,24.61L26.396,24.61z M26.396,27.68c0.694,0,1.264,0.567,1.264,1.263
		c0,0.693-0.569,1.261-1.264,1.261c-0.697,0-1.263-0.567-1.263-1.261C25.134,28.247,25.699,27.68,26.396,27.68L26.396,27.68
		L26.396,27.68z M26.396,27.68"/>
</g>
</svg>
