<?xml version="1.0" encoding="utf-8"?>
<!-- Generator: Adobe Illustrator 16.0.0, SVG Export Plug-In . SVG Version: 6.00 Build 0)  -->
<!DOCTYPE svg PUBLIC "-//W3C//DTD SVG 1.1//EN" "http://www.w3.org/Graphics/SVG/1.1/DTD/svg11.dtd">
<svg version="1.1" id="图层_1" xmlns="http://www.w3.org/2000/svg" xmlns:xlink="http://www.w3.org/1999/xlink" x="0px" y="0px"
	 width="48px" height="48px" viewBox="0 0 48 48" enable-background="new 0 0 48 48" xml:space="preserve">
<g>
	<path fill="#57A2D7" d="M40.422,35.225c-0.566-0.772-1.2-1.701-1.902-2.774c-0.681-1.031-1.326-2.193-1.938-3.47
		c-0.59-1.214-1.119-2.549-1.564-3.981c-0.408-1.315-0.611-2.678-0.611-4.047c0-1.667-0.234-3.208-0.703-4.573
		c-0.459-1.356-1.082-2.592-1.863-3.684c-0.789-1.085-1.737-2.008-2.811-2.744c-0.978-0.677-2.051-1.206-3.334-1.638
		c0.265-0.568,0.421-1.197,0.421-1.867c0-2.475-2.013-4.485-4.486-4.485c-2.476,0-4.485,2.011-4.485,4.485
		c0,0.666,0.154,1.295,0.416,1.857c-0.117,0.029-0.252,0.053-0.355,0.079c-1.098,0.381-2.176,0.94-3.229,1.678
		c-1.044,0.753-1.956,1.66-2.714,2.669c-0.793,1.064-1.432,2.287-1.893,3.63C8.876,17.752,8.632,19.313,8.632,21
		c0,1.417-0.203,2.793-0.604,4.079c-0.44,1.378-0.963,2.695-1.55,3.922c-0.563,1.176-1.188,2.323-1.907,3.489
		c-0.717,1.148-1.332,2.185-1.82,3.051c-0.885,1.373-0.537,2.523-0.249,3.034c0.487,0.85,1.302,1.413,2.305,1.413h33.431
		c0.46,0,0.911-0.221,1.305-0.455c0.412-0.225,0.76-0.605,1.007-0.984c0.276-0.422,0.438-0.932,0.468-1.474
		C41.055,36.434,40.851,35.792,40.422,35.225L40.422,35.225L40.422,35.225z M21.635,5.103c0.736,0,1.34,0.6,1.34,1.341
		c0,0.74-0.604,1.341-1.34,1.341c-0.74,0-1.344-0.603-1.344-1.341C20.291,5.704,20.893,5.103,21.635,5.103L21.635,5.103
		L21.635,5.103z M5.732,36.841c0.445,0,0.944-1.694,1.508-2.603c0.785-1.268,1.461-2.556,2.072-3.838
		c0.646-1.348,1.223-2.826,1.712-4.351c0.499-1.6,0.751-3.304,0.751-5.037c0-1.333,0.189-2.547,0.564-3.615
		c0.357-1.049,0.842-1.98,1.44-2.786c0.565-0.759,1.253-1.44,2.017-1.989c0.801-0.564,1.599-0.98,2.357-1.245
		c0.344-0.1,1.413-0.221,3.289-0.221c1.76,0,3.146,0.1,3.246,0.108c0.91,0.304,1.766,0.724,2.551,1.274
		c0.782,0.537,1.477,1.213,2.049,2c0.592,0.827,1.077,1.78,1.434,2.845c0.35,1.046,0.533,2.246,0.533,3.568
		c0,1.683,0.25,3.358,0.754,4.975c0.493,1.589,1.078,3.078,1.732,4.421c0.672,1.39,1.393,2.78,2.141,3.921
		c0.604,0.919,1.154,2.571,1.684,2.571H5.732L5.732,36.841L5.732,36.841z M13.776,43.126h15.716v3.142H13.776V43.126L13.776,43.126
		L13.776,43.126z M13.776,43.126"/>
</g>
</svg>
