<?xml version="1.0" encoding="utf-8"?>
<!-- Generator: Adobe Illustrator 16.0.0, SVG Export Plug-In . SVG Version: 6.00 Build 0)  -->
<!DOCTYPE svg PUBLIC "-//W3C//DTD SVG 1.1//EN" "http://www.w3.org/Graphics/SVG/1.1/DTD/svg11.dtd">
<svg version="1.1" id="图层_1" xmlns="http://www.w3.org/2000/svg" xmlns:xlink="http://www.w3.org/1999/xlink" x="0px" y="0px"
	 width="48px" height="48px" viewBox="0 0 48 48" enable-background="new 0 0 48 48" xml:space="preserve">
<g>
	<path fill="#ABC576" d="M34.434,44.312c-0.277,0-0.543-0.028-0.795-0.088l-5.014-1.173c-1.06-0.247-2.404-1.045-3.127-1.856
		L7.531,21.017c-0.695-0.779-1.388-2.142-1.605-3.166l-0.664-3.085c-0.154-0.722,0.305-1.434,1.027-1.589
		c0.724-0.153,1.434,0.304,1.591,1.026l0.661,3.087c0.123,0.568,0.604,1.516,0.989,1.948l17.968,20.173
		c0.363,0.408,1.205,0.91,1.734,1.032l5.018,1.173c0.352,0.08,1.012-0.104,1.27-0.351l4.517-4.38
		c0.073-0.069,0.077-0.219,0.013-0.294l-3.93-4.428c-0.09-0.102-0.322-0.128-0.433-0.053l-1.073,0.751
		c-0.849,0.592-2.26,1.139-3.283,1.269l-0.649,0.086c-1.24,0.159-2.799-0.424-3.63-1.358l-10.623-11.97
		c-0.813-0.916-1.244-2.514-1.004-3.715l0.156-0.771c0.209-1.049,0.93-2.42,1.676-3.187l0.9-0.927
		c0.08-0.081,0.084-0.268,0.008-0.353l-4.886-5.505c-0.075-0.083-0.253-0.1-0.343-0.03L9.002,9.425
		C8.418,9.878,7.578,9.768,7.125,9.182C6.676,8.597,6.784,7.756,7.369,7.305l3.934-3.025c1.191-0.918,2.977-0.751,3.979,0.376
		l4.885,5.504c1.016,1.143,0.975,2.897-0.09,3.995l-0.9,0.926c-0.389,0.402-0.862,1.302-0.973,1.849l-0.155,0.773
		c-0.079,0.39,0.116,1.113,0.382,1.409l10.623,11.97c0.244,0.275,0.918,0.528,1.283,0.479l0.652-0.082
		c0.601-0.077,1.598-0.465,2.091-0.812l1.073-0.749c1.229-0.858,2.971-0.654,3.966,0.468l3.934,4.431
		c1.012,1.139,0.942,2.93-0.151,3.991l-4.517,4.378C36.662,43.885,35.498,44.312,34.434,44.312L34.434,44.312z M34.434,44.312"/>
	<path fill="#ABC576" d="M29.611,24.115c-0.077,0-0.158-0.007-0.238-0.021c-0.727-0.131-1.21-0.828-1.079-1.555
		c0.397-2.208-1.051-4.329-3.229-4.729c-0.729-0.135-1.208-0.832-1.075-1.559c0.134-0.727,0.832-1.208,1.559-1.075
		c3.625,0.667,6.038,4.185,5.38,7.839C30.812,23.662,30.248,24.115,29.611,24.115L29.611,24.115z M29.611,24.115"/>
	<path fill="#ABC576" d="M34.752,22.45c-0.082,0-0.159-0.008-0.24-0.022c-0.727-0.131-1.209-0.826-1.078-1.555
		c0.633-3.521-2.006-6.967-5.887-7.681c-0.727-0.133-1.207-0.831-1.072-1.557c0.134-0.729,0.832-1.21,1.559-1.075
		c5.323,0.979,8.93,5.818,8.033,10.788C35.951,21.995,35.389,22.45,34.752,22.45L34.752,22.45z M34.752,22.45"/>
	<path fill="#ABC576" d="M39.746,20.842c-0.078,0-0.154-0.009-0.236-0.021c-0.727-0.131-1.212-0.828-1.082-1.555
		c0.895-4.938-2.791-9.763-8.204-10.76c-0.726-0.133-1.208-0.83-1.073-1.559c0.135-0.727,0.832-1.21,1.559-1.073
		c6.862,1.263,11.506,7.483,10.355,13.865C40.945,20.389,40.383,20.842,39.746,20.842L39.746,20.842z M39.746,20.842"/>
</g>
</svg>
