<?xml version="1.0" encoding="utf-8"?>
<!-- Generator: Adobe Illustrator 16.0.0, SVG Export Plug-In . SVG Version: 6.00 Build 0)  -->
<!DOCTYPE svg PUBLIC "-//W3C//DTD SVG 1.1//EN" "http://www.w3.org/Graphics/SVG/1.1/DTD/svg11.dtd">
<svg version="1.1" id="图层_1" xmlns="http://www.w3.org/2000/svg" xmlns:xlink="http://www.w3.org/1999/xlink" x="0px" y="0px"
	 width="48px" height="48px" viewBox="0 0 48 48" enable-background="new 0 0 48 48" xml:space="preserve">
<g>
	<path fill="#37B198" d="M45.833,29.79h-8.734c-0.804,0-1.455-0.653-1.455-1.456c0-0.802,0.651-1.454,1.455-1.454h8.734
		c0.801,0,1.456,0.652,1.456,1.454C47.289,29.137,46.634,29.79,45.833,29.79L45.833,29.79z M45.833,21.056H34.188
		c-0.805,0-1.456-0.65-1.456-1.455c0-0.803,0.651-1.456,1.456-1.456h11.645c0.801,0,1.456,0.653,1.456,1.456
		C47.289,20.405,46.634,21.056,45.833,21.056L45.833,21.056z M45.833,12.323H34.188c-0.805,0-1.456-0.651-1.456-1.457
		c0-0.802,0.651-1.455,1.456-1.455h11.645c0.801,0,1.456,0.653,1.456,1.455C47.289,11.672,46.634,12.323,45.833,12.323
		L45.833,12.323z M32.732,32.701v5.821c0,4.823-3.911,8.734-8.732,8.734H9.444c-4.824,0-8.732-3.911-8.732-8.734v-5.821
		c0-3.823,2.472-7.038,5.893-8.221c-1.864-2.514-2.982-5.734-2.982-9.245c0-8.041,5.865-14.555,13.098-14.555
		c7.237,0,13.1,6.515,13.1,14.555c0,3.511-1.117,6.731-2.981,9.245C30.261,25.663,32.732,28.877,32.732,32.701L32.732,32.701z
		 M26.91,15.234c0-6.432-4.562-11.645-10.19-11.645c-5.626,0-10.188,5.213-10.188,11.645c0,6.43,4.562,11.645,10.188,11.645
		C22.349,26.879,26.91,21.665,26.91,15.234L26.91,15.234z M29.82,33.428c0-3.093-2.347-5.672-5.495-6.356
		c-2.146,1.704-4.766,2.718-7.605,2.718c-2.836,0-5.457-1.014-7.602-2.718c-3.148,0.684-5.497,3.264-5.497,6.356v4.367
		c0,3.616,3.199,6.551,7.145,6.551h11.909c3.947,0,7.145-2.935,7.145-6.551V33.428L29.82,33.428z M37.099,35.611h8.734
		c0.801,0,1.456,0.653,1.456,1.455c0,0.806-0.654,1.456-1.456,1.456h-8.734c-0.804,0-1.455-0.65-1.455-1.456
		C35.644,36.264,36.295,35.611,37.099,35.611L37.099,35.611z M37.099,35.611"/>
</g>
</svg>
