<?xml version="1.0" encoding="utf-8"?>
<!-- Generator: Adobe Illustrator 16.0.0, SVG Export Plug-In . SVG Version: 6.00 Build 0)  -->
<!DOCTYPE svg PUBLIC "-//W3C//DTD SVG 1.1//EN" "http://www.w3.org/Graphics/SVG/1.1/DTD/svg11.dtd">
<svg version="1.1" id="图层_1" xmlns="http://www.w3.org/2000/svg" xmlns:xlink="http://www.w3.org/1999/xlink" x="0px" y="0px"
	 width="48px" height="48px" viewBox="0 0 48 48" enable-background="new 0 0 48 48" xml:space="preserve">
<g>
	<g>
		<path fill="none" stroke="#87538A" stroke-miterlimit="10" d="M32.748,44.886H16.784c-0.05-0.12-0.078-0.245-0.145-0.344
			c-0.157-0.234-0.099-0.466,0.046-0.649c0.213-0.267,0.459-0.509,0.713-0.737c0.329-0.296,0.587-0.627,0.559-1.093
			c-0.042-0.681-0.125-1.356-0.154-2.034c-0.018-0.398,0.024-0.8,0.06-1.197c0.035-0.381,0.149-0.765,0.123-1.142
			c-0.025-0.416-0.143-0.835-0.271-1.235c-0.249-0.779-0.697-1.457-1.189-2.103c-0.184-0.241-0.389-0.467-0.597-0.684
			c-0.581-0.605-1.187-1.188-1.75-1.806c-0.403-0.441-0.758-0.923-1.132-1.389c-0.026-0.032-0.061-0.064-0.068-0.102
			c-0.067-0.329-0.247-0.582-0.469-0.828c-0.111-0.124-0.159-0.309-0.225-0.47c-0.118-0.298-0.207-0.611-0.352-0.896
			c-0.244-0.481-0.496-0.968-0.794-1.417c-0.345-0.518-0.834-0.86-1.452-1.023c-0.554-0.148-1.118-0.256-1.633-0.536
			c-0.472-0.256-0.966-0.466-1.439-0.711c-0.358-0.185-0.711-0.361-0.985-0.689c-0.235-0.282-0.57-0.474-0.84-0.725
			c-0.399-0.372-0.736-0.785-0.915-1.317c-0.064-0.193-0.229-0.35-0.34-0.531c-0.124-0.202-0.236-0.41-0.355-0.614
			c-0.076-0.128-0.149-0.258-0.228-0.383c-0.087-0.132-0.216-0.251-0.253-0.393c-0.07-0.258-0.24-0.425-0.407-0.608
			c-0.101-0.108-0.163-0.248-0.242-0.375c-0.02-0.029-0.018-0.074-0.041-0.094c-0.406-0.332-0.349-0.775-0.256-1.203
			c0.078-0.343,0.203-0.678,0.33-1.009c0.054-0.142,0.155-0.274,0.255-0.394c0.392-0.463,0.554-1.035,0.795-1.572
			c0.136-0.298,0.247-0.613,0.544-0.807c0.074-0.047,0.138-0.146,0.158-0.233c0.061-0.324,0.262-0.567,0.443-0.823
			c0.12-0.166,0.224-0.347,0.311-0.529c0.076-0.162,0.177-0.271,0.327-0.377c0.191-0.135,0.335-0.334,0.491-0.514
			c0.295-0.343,0.572-0.704,0.881-1.036C6.729,9.785,7.2,9.335,7.642,8.856c0.227-0.247,0.432-0.517,0.623-0.79
			C8.486,7.755,8.8,7.584,9.127,7.422c0.219-0.109,0.422-0.257,0.646-0.348s0.466-0.167,0.705-0.193
			c0.715-0.074,1.413,0.065,2.107,0.213c0.467,0.101,0.945,0.173,1.396,0.327c0.68,0.231,1.171,0.681,1.326,1.42
			c0.101,0.48-0.1,0.879-0.389,1.232c-0.312,0.381-0.724,0.629-1.21,0.691c-0.242,0.029-0.524-0.028-0.754-0.125
			c-0.386-0.163-0.734-0.406-1.113-0.584c-0.524-0.249-1.058-0.271-1.583,0.015c-0.38,0.208-0.604,0.557-0.799,0.921
			c-0.238,0.449-0.39,0.926-0.47,1.436c-0.057,0.361-0.223,0.703-0.341,1.051c-0.248,0.732-0.528,1.456-0.729,2.201
			c-0.096,0.353-0.047,0.746-0.04,1.121c0,0.08,0.096,0.166,0.164,0.231c0.271,0.263,0.583,0.4,0.979,0.388
			c0.527-0.01,1.026,0.154,1.517,0.336c0.118,0.044,0.211,0.149,0.318,0.22c0.152,0.101,0.313,0.193,0.463,0.295
			c0.098,0.069,0.215,0.134,0.27,0.232c0.215,0.387,0.589,0.558,0.956,0.743c0.494,0.248,1.021,0.28,1.563,0.301
			c0.358,0.014,0.77,0.032,1.05,0.214c0.371,0.24,0.786,0.37,1.152,0.604c0.55,0.35,0.99,0.797,1.364,1.323
			c0.179,0.252,0.412,0.459,0.722,0.564c0.094,0.033,0.199,0.083,0.261,0.156c0.231,0.291,0.535,0.254,0.827,0.177
			c0.385-0.101,0.701-0.328,1.007-0.58c0.27-0.223,0.518-0.456,0.669-0.772c0.258-0.545,0.285-1.117,0.226-1.71
			c-0.05-0.51-0.184-0.98-0.427-1.428c-0.139-0.251-0.282-0.507-0.369-0.776c-0.171-0.529-0.06-1.058,0.048-1.585
			c0.086-0.415,0.195-0.829,0.224-1.249c0.02-0.308-0.063-0.626-0.121-0.935c-0.12-0.628,0.045-1.188,0.405-1.692
			c0.455-0.643,1.151-0.893,1.87-1.111c0.587-0.178,1.158-0.091,1.748-0.017c0.567,0.071,1.105,0.202,1.635,0.393
			c0.584,0.21,1.139,0.474,1.577,0.938c0.333,0.349,0.476,0.76,0.442,1.235c-0.024,0.344-0.058,0.687-0.091,1.028
			c-0.057,0.562,0.125,1.084,0.272,1.613c0.198,0.701,0.194,1.382-0.199,2.023c-0.146,0.233-0.291,0.465-0.441,0.693
			c-0.226,0.348-0.394,0.733-0.368,1.138c0.032,0.592,0.129,1.175,0.583,1.644c0.365,0.375,0.713,0.75,1.159,1.044
			c0.466,0.307,0.891,0.285,1.327,0.002c0.236-0.152,0.504-0.306,0.646-0.533c0.204-0.323,0.524-0.521,0.742-0.814
			c0.129-0.177,0.243-0.342,0.462-0.413c0.066-0.022,0.152-0.077,0.172-0.138c0.085-0.233,0.28-0.298,0.481-0.378
			c0.135-0.053,0.269-0.129,0.379-0.225c0.31-0.271,0.682-0.368,1.076-0.4c0.495-0.041,0.988-0.069,1.479-0.124
			c0.508-0.058,0.899-0.351,1.272-0.673c0.334-0.288,0.649-0.598,0.998-0.864c0.316-0.24,0.699-0.334,1.095-0.385
			c0.448-0.055,0.899-0.105,1.336-0.215c0.567-0.141,0.77-0.536,0.762-1.04c-0.006-0.424-0.072-0.864-0.192-1.272
			c-0.39-1.335-0.813-2.662-1.494-3.886c-0.04-0.07-0.057-0.153-0.074-0.233c-0.03-0.154-0.113-0.254-0.263-0.317
			c-0.082-0.036-0.178-0.106-0.211-0.185c-0.122-0.331-0.415-0.411-0.701-0.509c-0.527-0.179-0.994-0.017-1.442,0.258
			c-0.372,0.229-0.737,0.488-1.14,0.645c-0.695,0.275-1.447,0.121-1.999-0.373c-0.38-0.339-0.446-0.832-0.366-1.317
			c0.043-0.252,0.142-0.504,0.262-0.73c0.079-0.152,0.232-0.277,0.377-0.383c0.188-0.133,0.407-0.224,0.599-0.35
			c0.353-0.225,0.745-0.294,1.143-0.376c0.299-0.062,0.592-0.158,0.884-0.256c0.816-0.274,1.645-0.379,2.484-0.116
			c0.132,0.042,0.237,0.172,0.354,0.264c0.125,0.102,0.25,0.205,0.379,0.307c0.107,0.086,0.236,0.155,0.323,0.259
			c0.124,0.15,0.232,0.298,0.437,0.357c0.083,0.021,0.19,0.102,0.217,0.178c0.104,0.313,0.385,0.439,0.609,0.625
			c0.438,0.362,0.895,0.707,1.316,1.086c0.474,0.425,0.921,0.883,1.375,1.327c0.279,0.274,0.573,0.534,0.817,0.833
			c0.192,0.237,0.315,0.529,0.474,0.793c0.044,0.069,0.09,0.151,0.156,0.19c0.305,0.173,0.389,0.479,0.512,0.77
			c0.103,0.236,0.237,0.459,0.355,0.688c0.021,0.038,0.053,0.07,0.058,0.109c0.055,0.381,0.318,0.637,0.518,0.938
			c0.348,0.528,0.537,1.111,0.401,1.754c-0.046,0.223-0.113,0.439-0.16,0.66c-0.076,0.369-0.386,0.576-0.586,0.861
			c-0.05,0.07-0.08,0.156-0.126,0.23c-0.103,0.168-0.206,0.332-0.313,0.498c-0.046,0.074-0.12,0.138-0.141,0.219
			c-0.086,0.304-0.237,0.573-0.46,0.791c-0.184,0.177-0.258,0.392-0.346,0.619c-0.108,0.281-0.29,0.535-0.441,0.8
			c-0.048,0.084-0.131,0.157-0.149,0.242c-0.065,0.318-0.31,0.464-0.536,0.639c-0.124,0.094-0.224,0.223-0.325,0.342
			c-0.492,0.594-1.109,1.021-1.785,1.367c-0.229,0.117-0.48,0.186-0.718,0.286c-0.06,0.027-0.109,0.08-0.165,0.122
			c-0.253,0.195-0.54,0.284-0.856,0.353c-0.403,0.087-0.782,0.285-1.172,0.435c-0.197,0.076-0.393,0.167-0.598,0.213
			c-0.203,0.046-0.279,0.207-0.395,0.339c-0.041,0.05-0.078,0.131-0.132,0.15c-0.27,0.086-0.404,0.274-0.482,0.533
			c-0.031,0.102-0.098,0.196-0.161,0.285c-0.208,0.285-0.385,0.576-0.419,0.945c-0.015,0.161-0.099,0.329-0.19,0.467
			c-0.186,0.287-0.35,0.577-0.475,0.902c-0.136,0.353-0.352,0.681-0.567,0.999c-0.133,0.191-0.327,0.339-0.49,0.511
			c-0.064,0.071-0.145,0.146-0.164,0.229c-0.042,0.195-0.15,0.328-0.306,0.443c-0.085,0.062-0.165,0.147-0.205,0.24
			c-0.111,0.252-0.292,0.426-0.51,0.582c-0.118,0.087-0.2,0.222-0.31,0.326c-0.193,0.184-0.387,0.366-0.592,0.538
			c-0.903,0.767-1.628,1.659-1.899,2.845c-0.056,0.243-0.049,0.516-0.007,0.765c0.12,0.717,0.182,1.435,0.156,2.161
			c-0.022,0.553-0.023,1.104-0.044,1.66c-0.017,0.349-0.06,0.697-0.081,1.049c-0.033,0.544,0.253,0.915,0.647,1.242
			c0.302,0.251,0.611,0.503,0.7,0.92c0.031,0.142,0.04,0.258-0.062,0.385C32.795,44.626,32.789,44.757,32.748,44.886L32.748,44.886z
			 M32.748,44.886"/>
	</g>
</g>
</svg>
