<?xml version="1.0" encoding="utf-8"?>
<!-- Generator: Adobe Illustrator 16.0.0, SVG Export Plug-In . SVG Version: 6.00 Build 0)  -->
<!DOCTYPE svg PUBLIC "-//W3C//DTD SVG 1.1//EN" "http://www.w3.org/Graphics/SVG/1.1/DTD/svg11.dtd">
<svg version="1.1" id="图层_1" xmlns="http://www.w3.org/2000/svg" xmlns:xlink="http://www.w3.org/1999/xlink" x="0px" y="0px"
	 width="48px" height="48px" viewBox="0 0 48 48" enable-background="new 0 0 48 48" xml:space="preserve">
<g>
	<path fill="#57A2D7" d="M21.34,18.099h1.613v-2.816h2.817v-1.611h-2.817v-2.818H21.34v2.818h-2.815v1.611h2.815V18.099z
		 M21.34,18.099"/>
	<path fill="#57A2D7" d="M12.055,21.793h20.247v2.394H12.055V21.793L12.055,21.793z M12.055,21.793"/>
	<path fill="#57A2D7" d="M12.055,37.036h20.247v2.389H12.055V37.036L12.055,37.036z M12.055,37.036"/>
	<path fill="#57A2D7" d="M12.055,29.414h20.247v2.396H12.055V29.414L12.055,29.414z M12.055,29.414"/>
	<path fill="#57A2D7" d="M37.682,9.585h-4.248V7.52c0-1.363-1.106-2.472-2.473-2.472h-2.997C27.576,2.199,25.134,0,22.18,0
		c-2.951,0-5.395,2.199-5.784,5.048h-3.006c-1.367,0-2.475,1.108-2.475,2.472v2.065h-4.25c-1.651,0-2.997,1.343-2.997,2.995v32.36
		c0,1.652,1.346,2.995,2.997,2.995h31.022c1.653,0,2.997-1.343,2.997-2.995V12.58C40.679,10.935,39.331,9.585,37.682,9.585
		L37.682,9.585z M37.646,42.197c0,1.383-1.124,2.505-2.504,2.505H9.214c-1.382,0-2.504-1.122-2.504-2.505V15.153
		c0-1.382,1.122-2.736,2.504-2.736h3.784v-1.726c0-1.143,0.928-2.418,2.07-2.418l2.278-0.058c0.323-2.383,2.367-4.864,4.834-4.864
		c2.467,0,4.51,2.481,4.833,4.864l2.27,0.058c1.141,0,2.066,1.275,2.066,2.418v1.726h3.787c1.376,0,2.505,1.36,2.509,2.736V42.197
		L37.646,42.197L37.646,42.197L37.646,42.197z M37.646,42.197"/>
</g>
</svg>
