<?xml version="1.0" encoding="utf-8"?>
<!-- Generator: Adobe Illustrator 16.0.0, SVG Export Plug-In . SVG Version: 6.00 Build 0)  -->
<!DOCTYPE svg PUBLIC "-//W3C//DTD SVG 1.1//EN" "http://www.w3.org/Graphics/SVG/1.1/DTD/svg11.dtd">
<svg version="1.1" id="图层_1" xmlns="http://www.w3.org/2000/svg" xmlns:xlink="http://www.w3.org/1999/xlink" x="0px" y="0px"
	 width="48px" height="48px" viewBox="0 0 48 48" enable-background="new 0 0 48 48" xml:space="preserve">
<g>
	<path fill="#C9A0C9" d="M4.296,28.794c0,7.815,6.848,10.604,9.316,11.356v2.805h20.776l0,0v-2.798
		c2.48-0.741,9.315-3.531,9.315-11.789v-6.35H4.296V28.794L4.296,28.794z M41.856,28.793c0,8.189-8.39,9.374-8.731,9.438
		l-0.504,0.413v2.462H15.379v-2.462l-0.487-0.41c-0.346-0.069-8.748-1.775-8.748-9.441v-1.232h35.713v0.616V28.793L41.856,28.793z
		 M6.144,26.331v-2.462h35.713v2.462H6.144L6.144,26.331z M20.922,9.09h22.166v1.846H20.922V9.09L20.922,9.09L20.922,9.09z
		 M4.913,9.09h1.848v1.846H4.913V9.09L4.913,9.09L4.913,9.09z M4.913,13.4h1.848v1.848l-1.748-0.006L4.913,13.4L4.913,13.4
		L4.913,13.4z M20.922,13.4h22.166v1.848H20.922V13.4L20.922,13.4L20.922,13.4z M7.565,20.87c2.256-0.489,2.771-2.159,2.888-3.159
		V9.09c0-1.368,1.772-1.504,1.972-1.507V5.395c-1.293,0-3.83,1.19-3.83,3.943v8.005c-0.041,0.211-0.291,1.129-1.476,1.387
		L7.565,20.87L7.565,20.87L7.565,20.87z M11.864,20.87c2.256-0.489,2.782-2.159,2.9-3.159V9.09c0-1.368,1.759-1.504,1.96-1.507
		l-0.002-2.188c-1.292,0-3.828,1.19-3.828,3.943v8.005c-0.042,0.211-0.291,1.129-1.478,1.387L11.864,20.87L11.864,20.87
		L11.864,20.87z M16.163,20.87c2.255-0.489,2.794-2.159,2.911-3.159V9.09c0-1.368,1.748-1.504,1.947-1.507V5.395
		c-1.293,0-3.828,1.19-3.828,3.943v8.005c-0.042,0.211-0.291,1.129-1.478,1.387L16.163,20.87L16.163,20.87L16.163,20.87z
		 M16.163,20.87"/>
</g>
</svg>
