<?xml version="1.0" encoding="utf-8"?>
<!-- Generator: Adobe Illustrator 16.0.0, SVG Export Plug-In . SVG Version: 6.00 Build 0)  -->
<!DOCTYPE svg PUBLIC "-//W3C//DTD SVG 1.1//EN" "http://www.w3.org/Graphics/SVG/1.1/DTD/svg11.dtd">
<svg version="1.1" id="图层_1" xmlns="http://www.w3.org/2000/svg" xmlns:xlink="http://www.w3.org/1999/xlink" x="0px" y="0px"
	 width="48px" height="48px" viewBox="0 0 48 48" enable-background="new 0 0 48 48" xml:space="preserve">
<g>
	<g>
		<path fill="#E4B03E" d="M34.732,47.117c-0.605,0-1.212-0.072-1.81-0.22c-0.073-0.014-0.131-0.027-0.182-0.046
			c-0.646-0.22-0.983-0.956-0.749-1.636c0.186-0.541,0.673-0.901,1.214-0.901c0.127,0,0.256,0.023,0.381,0.066l0.024,0.009h0.008
			c0.37,0.081,0.746,0.122,1.116,0.122c2.954,0,5.364-2.491,5.364-5.561c0-3.065-2.41-5.563-5.364-5.563
			c-2.96,0-5.37,2.497-5.37,5.563c0,0.537,0.076,1.074,0.23,1.597l0.002,0.01l0.005,0.012c0.291,0.605,0.041,1.33-0.572,1.648
			c-0.183,0.095-0.388,0.147-0.593,0.147c-0.469,0-0.892-0.255-1.104-0.662l-0.035-0.078c-0.031-0.075-0.055-0.148-0.071-0.221
			c-0.24-0.801-0.362-1.623-0.362-2.448c0-2.358,0.979-4.598,2.688-6.145l0.088-0.08l-5.483-7.042l-5.48,7.037l0.086,0.082
			c1.714,1.548,2.694,3.789,2.694,6.147c0,4.503-3.528,8.164-7.869,8.164c-4.336,0-7.865-3.662-7.865-8.169
			c0-4.502,3.529-8.164,7.865-8.164c0.979,0,1.931,0.183,2.831,0.546l0.092,0.034l6.035-7.75l-4.536-5.826L6.904,3.559L6.92,3.546
			L6.545,3.069C6.111,2.514,6.206,1.711,6.757,1.277c0.223-0.175,0.492-0.269,0.778-0.269c0.396,0,0.766,0.18,1.012,0.493
			l0.346,0.441l0.262,0.333L9.17,2.301l14.986,19.247L39.385,1.996l0.344-0.47C39.969,1.196,40.358,1,40.763,1
			c0.27,0,0.529,0.086,0.748,0.241c0.563,0.417,0.685,1.218,0.266,1.785l-0.398,0.543l-0.182,0.253
			c-0.035,0.046-0.075,0.092-0.124,0.145L41.066,3.97L25.771,23.617l6.037,7.752l0.09-0.034c0.902-0.363,1.854-0.548,2.835-0.548
			c4.336,0,7.868,3.662,7.868,8.164C42.601,43.458,39.068,47.117,34.732,47.117L34.732,47.117z M13.589,33.389
			c-2.957,0-5.364,2.497-5.364,5.563c0,3.067,2.41,5.561,5.364,5.561c2.959,0,5.367-2.491,5.367-5.561
			C18.956,35.886,16.548,33.389,13.589,33.389L13.589,33.389z M13.589,33.389"/>
	</g>
</g>
</svg>
