<?xml version="1.0" encoding="utf-8"?>
<!-- Generator: Adobe Illustrator 16.0.0, SVG Export Plug-In . SVG Version: 6.00 Build 0)  -->
<!DOCTYPE svg PUBLIC "-//W3C//DTD SVG 1.1//EN" "http://www.w3.org/Graphics/SVG/1.1/DTD/svg11.dtd">
<svg version="1.1" id="图层_1" xmlns="http://www.w3.org/2000/svg" xmlns:xlink="http://www.w3.org/1999/xlink" x="0px" y="0px"
	 width="48px" height="48px" viewBox="0 0 48 48" enable-background="new 0 0 48 48" xml:space="preserve">
<g>
	<g>
		<path fill="#DA506C" d="M43.379,15.37c-0.006-0.093-0.021-0.182-0.054-0.268c-0.012-0.03-0.018-0.058-0.03-0.086
			c-0.047-0.103-0.108-0.204-0.191-0.289L29.457,1.084c-0.084-0.086-0.185-0.147-0.288-0.194c-0.027-0.012-0.055-0.019-0.081-0.028
			c-0.091-0.032-0.182-0.05-0.276-0.057c-0.019-0.003-0.037-0.013-0.057-0.013h-18.19c-4.309,0-7.813,3.505-7.813,7.812v31.839
			c0,4.306,3.504,7.81,7.813,7.81h25.014c4.306,0,7.814-3.504,7.813-7.81V15.426C43.393,15.408,43.379,15.39,43.379,15.37
			L43.379,15.37z M29.746,4.174L40.01,14.436h-7.842c-1.334,0-2.422-1.085-2.422-2.42V4.174L29.746,4.174z M35.578,46.273H10.564
			c-3.215,0-5.832-2.616-5.832-5.831V8.605c0-3.216,2.617-5.831,5.832-5.831h17.204v9.241c0,2.426,1.975,4.401,4.399,4.401h9.241
			v24.025C41.409,43.657,38.793,46.273,35.578,46.273L35.578,46.273z M35.578,46.273"/>
		<path fill="#DA506C" d="M34.441,23.535h-6.971v-6.969c0-0.547-0.44-0.99-0.989-0.99H19.66c-0.547,0-0.988,0.443-0.988,0.99v6.969
			H11.7c-0.546,0-0.988,0.444-0.988,0.989v6.821c0,0.548,0.442,0.991,0.988,0.991h6.972v6.97c0,0.547,0.441,0.989,0.988,0.989h6.821
			c0.549,0,0.989-0.442,0.989-0.989v-6.97h6.971c0.547,0,0.991-0.442,0.991-0.991v-6.821C35.433,23.979,34.988,23.535,34.441,23.535
			L34.441,23.535z M33.451,30.354h-6.969c-0.547,0-0.989,0.442-0.989,0.991v6.969h-4.841v-6.965c0-0.552-0.441-0.992-0.99-0.992
			h-6.969v-4.842h6.969c0.545,0,0.99-0.442,0.99-0.991v-6.97h4.841v6.97c0,0.545,0.442,0.991,0.989,0.991h6.969V30.354
			L33.451,30.354z M33.451,30.354"/>
	</g>
</g>
</svg>
