<?xml version="1.0" encoding="utf-8"?>
<!-- Generator: Adobe Illustrator 16.0.0, SVG Export Plug-In . SVG Version: 6.00 Build 0)  -->
<!DOCTYPE svg PUBLIC "-//W3C//DTD SVG 1.1//EN" "http://www.w3.org/Graphics/SVG/1.1/DTD/svg11.dtd">
<svg version="1.1" id="图层_1" xmlns="http://www.w3.org/2000/svg" xmlns:xlink="http://www.w3.org/1999/xlink" x="0px" y="0px"
	 width="48px" height="48px" viewBox="0 0 48 48" enable-background="new 0 0 48 48" xml:space="preserve">
<g>
	<g>
		<path fill="#1FA096" d="M24.023,44.589H10.06c-2.242,0-4.063-1.866-4.063-4.161V9.513c0-2.293,1.821-4.161,4.063-4.161
			c0.921,0,1.671-0.748,1.671-1.671c0-0.925-0.75-1.673-1.671-1.673c-4.084,0-7.408,3.368-7.408,7.506v30.916
			c0,4.14,3.323,7.506,7.408,7.506h13.963c0.924,0,1.674-0.749,1.674-1.672C25.697,45.339,24.947,44.589,24.023,44.589
			L24.023,44.589z M24.023,44.589"/>
		<path fill="#1FA096" d="M36.436,2.007c-0.925,0-1.673,0.749-1.673,1.673c0,0.923,0.748,1.671,1.673,1.671
			c2.238,0,4.06,1.868,4.06,4.161V24.8c0,0.925,0.749,1.673,1.674,1.673c0.922,0,1.671-0.749,1.671-1.673V9.513
			C43.84,5.375,40.517,2.007,36.436,2.007L36.436,2.007z M36.436,2.007"/>
		<path fill="#1FA096" d="M16.718,14.31c-0.921,0-1.671,0.75-1.671,1.674v1.632c0,0.923,0.75,1.672,1.671,1.672
			c0.928,0,1.676-0.749,1.676-1.672v-1.632C18.394,15.06,17.646,14.31,16.718,14.31L16.718,14.31z M16.718,14.31"/>
		<path fill="#1FA096" d="M29.773,14.31c-0.923,0-1.672,0.75-1.672,1.674v1.632c0,0.923,0.749,1.672,1.672,1.672
			c0.924,0,1.673-0.749,1.673-1.672v-1.632C31.446,15.06,30.697,14.31,29.773,14.31L29.773,14.31z M29.773,14.31"/>
		<path fill="#1FA096" d="M27.371,21.328c-0.766-0.503-1.799-0.289-2.311,0.468c-0.006,0.011-0.729,1.06-1.829,1.06
			c-1.07,0-1.736-0.969-1.782-1.037c-0.488-0.775-1.514-1.007-2.294-0.524c-0.784,0.487-1.024,1.518-0.537,2.304
			c0.599,0.966,2.248,2.6,4.613,2.6c2.353,0,4.021-1.622,4.635-2.581C28.358,22.846,28.135,21.831,27.371,21.328L27.371,21.328z
			 M27.371,21.328"/>
		<path fill="#1FA096" d="M18.229,8.919h10.034c2.459,0,4.46-2,4.46-4.46C32.723,2,30.722,0,28.263,0H18.229
			c-2.458,0-4.46,2-4.46,4.459C13.769,6.918,15.771,8.919,18.229,8.919L18.229,8.919z M18.229,3.345h10.034
			c0.605,0,1.117,0.511,1.117,1.114c0,0.604-0.512,1.115-1.117,1.115H18.229c-0.605,0-1.114-0.512-1.114-1.115
			C17.115,3.856,17.624,3.345,18.229,3.345L18.229,3.345z M18.229,3.345"/>
		<path fill="#1FA096" d="M40.358,28.752c-2.431-1.419-5.523-1.1-7.767,0.737c-2.244-1.837-5.334-2.156-7.764-0.737
			c-1.881,1.1-3.119,2.959-3.404,5.101c-0.283,2.158,0.42,4.276,1.932,5.807l7.416,7.519c0.486,0.491,1.129,0.76,1.818,0.762h0.002
			c0.688,0,1.336-0.271,1.822-0.765l7.416-7.516c1.513-1.531,2.215-3.649,1.93-5.807C43.477,31.712,42.236,29.853,40.358,28.752
			L40.358,28.752z M39.449,37.31l-6.857,6.953l-6.857-6.953c-0.78-0.791-1.143-1.893-0.993-3.018
			c0.149-1.127,0.78-2.069,1.774-2.652c0.482-0.281,1.031-0.417,1.592-0.417c0.956,0,1.949,0.399,2.689,1.15l0.605,0.611
			c0.313,0.319,0.743,0.499,1.189,0.499h0.002c0.447,0,0.877-0.181,1.189-0.499l0.604-0.611c1.172-1.188,2.973-1.499,4.282-0.734
			c0.997,0.583,1.627,1.525,1.774,2.652C40.593,35.417,40.23,36.519,39.449,37.31L39.449,37.31z M39.449,37.31"/>
	</g>
</g>
</svg>
