<?xml version="1.0" encoding="utf-8"?>
<!-- Generator: Adobe Illustrator 16.0.0, SVG Export Plug-In . SVG Version: 6.00 Build 0)  -->
<!DOCTYPE svg PUBLIC "-//W3C//DTD SVG 1.1//EN" "http://www.w3.org/Graphics/SVG/1.1/DTD/svg11.dtd">
<svg version="1.1" id="图层_1" xmlns="http://www.w3.org/2000/svg" xmlns:xlink="http://www.w3.org/1999/xlink" x="0px" y="0px"
	 width="48px" height="48px" viewBox="0 0 48 48" enable-background="new 0 0 48 48" xml:space="preserve">
<g>
	<path fill="#57A2D7" d="M39.036,37.751v-2.968c0-3.324-2.731-6.056-6.056-6.056c-3.323,0-6.056,2.732-6.056,6.056v6.474
		c0,1.72-1.423,3.145-3.144,3.145c-1.723,0-3.148-1.425-3.148-3.145V30.093h0.299c0.415,0,0.71-0.297,0.71-0.712v-0.654
		c2.02-0.177,4.098-0.771,5.82-2.374c2.493-2.198,3.977-5.877,4.688-11.636c0.715-5.641,0.3-8.963-1.364-10.864
		c-1.365-1.544-3.323-1.781-5.344-1.841c-0.414-0.593-1.128-0.949-1.899-0.949c-1.307,0-2.376,1.069-2.376,2.375
		c0,1.305,1.069,2.374,2.376,2.374c0.771,0,1.426-0.356,1.899-0.95c1.544,0,2.553,0.18,3.147,0.832
		c1.009,1.129,1.248,4.038,0.654,8.548c-0.596,4.929-1.841,8.135-3.741,9.796c-0.772,0.713-1.783,1.306-3.919,1.604V24.87
		c0-0.417-0.297-0.714-0.714-0.714h-3.501c-0.417,0-0.712,0.297-0.712,0.714v0.771c-1.248-0.238-2.494-0.654-3.503-1.543
		c-1.9-1.663-3.087-4.869-3.741-9.796C8.82,9.73,9.055,6.88,10.066,5.755c0.595-0.654,1.604-0.833,3.146-0.833
		c0.415,0.533,1.127,0.95,1.897,0.95c1.307,0,2.378-1.069,2.378-2.375c0-1.307-1.071-2.375-2.378-2.375
		c-0.771,0-1.423,0.358-1.897,0.951c-1.96,0.059-3.918,0.296-5.344,1.84C6.206,5.755,5.792,9.135,6.504,14.778
		c0.712,5.757,2.196,9.438,4.688,11.634c1.664,1.484,3.563,2.08,5.402,2.315v0.713c0,0.417,0.3,0.713,0.716,0.713h0.295v11.104
		c0,3.323,2.732,6.054,6.056,6.054c3.324,0,6.056-2.731,6.056-6.054v-6.474c0-1.72,1.424-3.146,3.147-3.146
		c1.721,0,3.146,1.427,3.146,3.146v2.968c-1.664,0.594-2.85,2.199-2.85,4.038c0,2.374,1.957,4.334,4.333,4.334
		c2.374,0,4.334-1.96,4.334-4.334C41.886,39.95,40.7,38.345,39.036,37.751L39.036,37.751L39.036,37.751z M37.553,43.213
		c-0.771,0-1.426-0.653-1.426-1.425c0-0.77,0.655-1.424,1.426-1.424c0.772,0,1.426,0.654,1.426,1.424
		C38.979,42.561,38.325,43.213,37.553,43.213L37.553,43.213L37.553,43.213z M37.553,43.213"/>
</g>
</svg>
