<svg xmlns="http://www.w3.org/2000/svg" style="width:0; height:0; visibility:hidden;">
    <symbol id="icom_nav_bmi" viewBox="0 0 48 48">
       <g> <path fill="#37B198" d="M45.833,29.79h-8.734c-0.804,0-1.455-0.653-1.455-1.456c0-0.802,0.651-1.454,1.455-1.454h8.734
		c0.801,0,1.456,0.652,1.456,1.454C47.289,29.137,46.634,29.79,45.833,29.79L45.833,29.79z M45.833,21.056H34.188
		c-0.805,0-1.456-0.65-1.456-1.455c0-0.803,0.651-1.456,1.456-1.456h11.645c0.801,0,1.456,0.653,1.456,1.456
		C47.289,20.405,46.634,21.056,45.833,21.056L45.833,21.056z M45.833,12.323H34.188c-0.805,0-1.456-0.651-1.456-1.457
		c0-0.802,0.651-1.455,1.456-1.455h11.645c0.801,0,1.456,0.653,1.456,1.455C47.289,11.672,46.634,12.323,45.833,12.323
		L45.833,12.323z M32.732,32.701v5.821c0,4.823-3.911,8.734-8.732,8.734H9.444c-4.824,0-8.732-3.911-8.732-8.734v-5.821
		c0-3.823,2.472-7.038,5.893-8.221c-1.864-2.514-2.982-5.734-2.982-9.245c0-8.041,5.865-14.555,13.098-14.555
		c7.237,0,13.1,6.515,13.1,14.555c0,3.511-1.117,6.731-2.981,9.245C30.261,25.663,32.732,28.877,32.732,32.701L32.732,32.701z
		 M26.91,15.234c0-6.432-4.562-11.645-10.19-11.645c-5.626,0-10.188,5.213-10.188,11.645c0,6.43,4.562,11.645,10.188,11.645
		C22.349,26.879,26.91,21.665,26.91,15.234L26.91,15.234z M29.82,33.428c0-3.093-2.347-5.672-5.495-6.356
		c-2.146,1.704-4.766,2.718-7.605,2.718c-2.836,0-5.457-1.014-7.602-2.718c-3.148,0.684-5.497,3.264-5.497,6.356v4.367
		c0,3.616,3.199,6.551,7.145,6.551h11.909c3.947,0,7.145-2.935,7.145-6.551V33.428L29.82,33.428z M37.099,35.611h8.734
		c0.801,0,1.456,0.653,1.456,1.455c0,0.806-0.654,1.456-1.456,1.456h-8.734c-0.804,0-1.455-0.65-1.455-1.456
		C35.644,36.264,36.295,35.611,37.099,35.611L37.099,35.611z M37.099,35.611"/> </g> 
    </symbol>
    <symbol id="icon_nav_body" viewBox="0 0 48 48">
       <g> <g> <path fill="none" stroke="#87538A" stroke-miterlimit="10" d="M32.748,44.886H16.784c-0.05-0.12-0.078-0.245-0.145-0.344
			c-0.157-0.234-0.099-0.466,0.046-0.649c0.213-0.267,0.459-0.509,0.713-0.737c0.329-0.296,0.587-0.627,0.559-1.093
			c-0.042-0.681-0.125-1.356-0.154-2.034c-0.018-0.398,0.024-0.8,0.06-1.197c0.035-0.381,0.149-0.765,0.123-1.142
			c-0.025-0.416-0.143-0.835-0.271-1.235c-0.249-0.779-0.697-1.457-1.189-2.103c-0.184-0.241-0.389-0.467-0.597-0.684
			c-0.581-0.605-1.187-1.188-1.75-1.806c-0.403-0.441-0.758-0.923-1.132-1.389c-0.026-0.032-0.061-0.064-0.068-0.102
			c-0.067-0.329-0.247-0.582-0.469-0.828c-0.111-0.124-0.159-0.309-0.225-0.47c-0.118-0.298-0.207-0.611-0.352-0.896
			c-0.244-0.481-0.496-0.968-0.794-1.417c-0.345-0.518-0.834-0.86-1.452-1.023c-0.554-0.148-1.118-0.256-1.633-0.536
			c-0.472-0.256-0.966-0.466-1.439-0.711c-0.358-0.185-0.711-0.361-0.985-0.689c-0.235-0.282-0.57-0.474-0.84-0.725
			c-0.399-0.372-0.736-0.785-0.915-1.317c-0.064-0.193-0.229-0.35-0.34-0.531c-0.124-0.202-0.236-0.41-0.355-0.614
			c-0.076-0.128-0.149-0.258-0.228-0.383c-0.087-0.132-0.216-0.251-0.253-0.393c-0.07-0.258-0.24-0.425-0.407-0.608
			c-0.101-0.108-0.163-0.248-0.242-0.375c-0.02-0.029-0.018-0.074-0.041-0.094c-0.406-0.332-0.349-0.775-0.256-1.203
			c0.078-0.343,0.203-0.678,0.33-1.009c0.054-0.142,0.155-0.274,0.255-0.394c0.392-0.463,0.554-1.035,0.795-1.572
			c0.136-0.298,0.247-0.613,0.544-0.807c0.074-0.047,0.138-0.146,0.158-0.233c0.061-0.324,0.262-0.567,0.443-0.823
			c0.12-0.166,0.224-0.347,0.311-0.529c0.076-0.162,0.177-0.271,0.327-0.377c0.191-0.135,0.335-0.334,0.491-0.514
			c0.295-0.343,0.572-0.704,0.881-1.036C6.729,9.785,7.2,9.335,7.642,8.856c0.227-0.247,0.432-0.517,0.623-0.79
			C8.486,7.755,8.8,7.584,9.127,7.422c0.219-0.109,0.422-0.257,0.646-0.348s0.466-0.167,0.705-0.193
			c0.715-0.074,1.413,0.065,2.107,0.213c0.467,0.101,0.945,0.173,1.396,0.327c0.68,0.231,1.171,0.681,1.326,1.42
			c0.101,0.48-0.1,0.879-0.389,1.232c-0.312,0.381-0.724,0.629-1.21,0.691c-0.242,0.029-0.524-0.028-0.754-0.125
			c-0.386-0.163-0.734-0.406-1.113-0.584c-0.524-0.249-1.058-0.271-1.583,0.015c-0.38,0.208-0.604,0.557-0.799,0.921
			c-0.238,0.449-0.39,0.926-0.47,1.436c-0.057,0.361-0.223,0.703-0.341,1.051c-0.248,0.732-0.528,1.456-0.729,2.201
			c-0.096,0.353-0.047,0.746-0.04,1.121c0,0.08,0.096,0.166,0.164,0.231c0.271,0.263,0.583,0.4,0.979,0.388
			c0.527-0.01,1.026,0.154,1.517,0.336c0.118,0.044,0.211,0.149,0.318,0.22c0.152,0.101,0.313,0.193,0.463,0.295
			c0.098,0.069,0.215,0.134,0.27,0.232c0.215,0.387,0.589,0.558,0.956,0.743c0.494,0.248,1.021,0.28,1.563,0.301
			c0.358,0.014,0.77,0.032,1.05,0.214c0.371,0.24,0.786,0.37,1.152,0.604c0.55,0.35,0.99,0.797,1.364,1.323
			c0.179,0.252,0.412,0.459,0.722,0.564c0.094,0.033,0.199,0.083,0.261,0.156c0.231,0.291,0.535,0.254,0.827,0.177
			c0.385-0.101,0.701-0.328,1.007-0.58c0.27-0.223,0.518-0.456,0.669-0.772c0.258-0.545,0.285-1.117,0.226-1.71
			c-0.05-0.51-0.184-0.98-0.427-1.428c-0.139-0.251-0.282-0.507-0.369-0.776c-0.171-0.529-0.06-1.058,0.048-1.585
			c0.086-0.415,0.195-0.829,0.224-1.249c0.02-0.308-0.063-0.626-0.121-0.935c-0.12-0.628,0.045-1.188,0.405-1.692
			c0.455-0.643,1.151-0.893,1.87-1.111c0.587-0.178,1.158-0.091,1.748-0.017c0.567,0.071,1.105,0.202,1.635,0.393
			c0.584,0.21,1.139,0.474,1.577,0.938c0.333,0.349,0.476,0.76,0.442,1.235c-0.024,0.344-0.058,0.687-0.091,1.028
			c-0.057,0.562,0.125,1.084,0.272,1.613c0.198,0.701,0.194,1.382-0.199,2.023c-0.146,0.233-0.291,0.465-0.441,0.693
			c-0.226,0.348-0.394,0.733-0.368,1.138c0.032,0.592,0.129,1.175,0.583,1.644c0.365,0.375,0.713,0.75,1.159,1.044
			c0.466,0.307,0.891,0.285,1.327,0.002c0.236-0.152,0.504-0.306,0.646-0.533c0.204-0.323,0.524-0.521,0.742-0.814
			c0.129-0.177,0.243-0.342,0.462-0.413c0.066-0.022,0.152-0.077,0.172-0.138c0.085-0.233,0.28-0.298,0.481-0.378
			c0.135-0.053,0.269-0.129,0.379-0.225c0.31-0.271,0.682-0.368,1.076-0.4c0.495-0.041,0.988-0.069,1.479-0.124
			c0.508-0.058,0.899-0.351,1.272-0.673c0.334-0.288,0.649-0.598,0.998-0.864c0.316-0.24,0.699-0.334,1.095-0.385
			c0.448-0.055,0.899-0.105,1.336-0.215c0.567-0.141,0.77-0.536,0.762-1.04c-0.006-0.424-0.072-0.864-0.192-1.272
			c-0.39-1.335-0.813-2.662-1.494-3.886c-0.04-0.07-0.057-0.153-0.074-0.233c-0.03-0.154-0.113-0.254-0.263-0.317
			c-0.082-0.036-0.178-0.106-0.211-0.185c-0.122-0.331-0.415-0.411-0.701-0.509c-0.527-0.179-0.994-0.017-1.442,0.258
			c-0.372,0.229-0.737,0.488-1.14,0.645c-0.695,0.275-1.447,0.121-1.999-0.373c-0.38-0.339-0.446-0.832-0.366-1.317
			c0.043-0.252,0.142-0.504,0.262-0.73c0.079-0.152,0.232-0.277,0.377-0.383c0.188-0.133,0.407-0.224,0.599-0.35
			c0.353-0.225,0.745-0.294,1.143-0.376c0.299-0.062,0.592-0.158,0.884-0.256c0.816-0.274,1.645-0.379,2.484-0.116
			c0.132,0.042,0.237,0.172,0.354,0.264c0.125,0.102,0.25,0.205,0.379,0.307c0.107,0.086,0.236,0.155,0.323,0.259
			c0.124,0.15,0.232,0.298,0.437,0.357c0.083,0.021,0.19,0.102,0.217,0.178c0.104,0.313,0.385,0.439,0.609,0.625
			c0.438,0.362,0.895,0.707,1.316,1.086c0.474,0.425,0.921,0.883,1.375,1.327c0.279,0.274,0.573,0.534,0.817,0.833
			c0.192,0.237,0.315,0.529,0.474,0.793c0.044,0.069,0.09,0.151,0.156,0.19c0.305,0.173,0.389,0.479,0.512,0.77
			c0.103,0.236,0.237,0.459,0.355,0.688c0.021,0.038,0.053,0.07,0.058,0.109c0.055,0.381,0.318,0.637,0.518,0.938
			c0.348,0.528,0.537,1.111,0.401,1.754c-0.046,0.223-0.113,0.439-0.16,0.66c-0.076,0.369-0.386,0.576-0.586,0.861
			c-0.05,0.07-0.08,0.156-0.126,0.23c-0.103,0.168-0.206,0.332-0.313,0.498c-0.046,0.074-0.12,0.138-0.141,0.219
			c-0.086,0.304-0.237,0.573-0.46,0.791c-0.184,0.177-0.258,0.392-0.346,0.619c-0.108,0.281-0.29,0.535-0.441,0.8
			c-0.048,0.084-0.131,0.157-0.149,0.242c-0.065,0.318-0.31,0.464-0.536,0.639c-0.124,0.094-0.224,0.223-0.325,0.342
			c-0.492,0.594-1.109,1.021-1.785,1.367c-0.229,0.117-0.48,0.186-0.718,0.286c-0.06,0.027-0.109,0.08-0.165,0.122
			c-0.253,0.195-0.54,0.284-0.856,0.353c-0.403,0.087-0.782,0.285-1.172,0.435c-0.197,0.076-0.393,0.167-0.598,0.213
			c-0.203,0.046-0.279,0.207-0.395,0.339c-0.041,0.05-0.078,0.131-0.132,0.15c-0.27,0.086-0.404,0.274-0.482,0.533
			c-0.031,0.102-0.098,0.196-0.161,0.285c-0.208,0.285-0.385,0.576-0.419,0.945c-0.015,0.161-0.099,0.329-0.19,0.467
			c-0.186,0.287-0.35,0.577-0.475,0.902c-0.136,0.353-0.352,0.681-0.567,0.999c-0.133,0.191-0.327,0.339-0.49,0.511
			c-0.064,0.071-0.145,0.146-0.164,0.229c-0.042,0.195-0.15,0.328-0.306,0.443c-0.085,0.062-0.165,0.147-0.205,0.24
			c-0.111,0.252-0.292,0.426-0.51,0.582c-0.118,0.087-0.2,0.222-0.31,0.326c-0.193,0.184-0.387,0.366-0.592,0.538
			c-0.903,0.767-1.628,1.659-1.899,2.845c-0.056,0.243-0.049,0.516-0.007,0.765c0.12,0.717,0.182,1.435,0.156,2.161
			c-0.022,0.553-0.023,1.104-0.044,1.66c-0.017,0.349-0.06,0.697-0.081,1.049c-0.033,0.544,0.253,0.915,0.647,1.242
			c0.302,0.251,0.611,0.503,0.7,0.92c0.031,0.142,0.04,0.258-0.062,0.385C32.795,44.626,32.789,44.757,32.748,44.886L32.748,44.886z
			 M32.748,44.886"/> </g> </g> 
    </symbol>
    <symbol id="icon_nav_calorie" viewBox="0 0 48 48">
       <g> <path fill="#C9A0C9" d="M4.296,28.794c0,7.815,6.848,10.604,9.316,11.356v2.805h20.776l0,0v-2.798
		c2.48-0.741,9.315-3.531,9.315-11.789v-6.35H4.296V28.794L4.296,28.794z M41.856,28.793c0,8.189-8.39,9.374-8.731,9.438
		l-0.504,0.413v2.462H15.379v-2.462l-0.487-0.41c-0.346-0.069-8.748-1.775-8.748-9.441v-1.232h35.713v0.616V28.793L41.856,28.793z
		 M6.144,26.331v-2.462h35.713v2.462H6.144L6.144,26.331z M20.922,9.09h22.166v1.846H20.922V9.09L20.922,9.09L20.922,9.09z
		 M4.913,9.09h1.848v1.846H4.913V9.09L4.913,9.09L4.913,9.09z M4.913,13.4h1.848v1.848l-1.748-0.006L4.913,13.4L4.913,13.4
		L4.913,13.4z M20.922,13.4h22.166v1.848H20.922V13.4L20.922,13.4L20.922,13.4z M7.565,20.87c2.256-0.489,2.771-2.159,2.888-3.159
		V9.09c0-1.368,1.772-1.504,1.972-1.507V5.395c-1.293,0-3.83,1.19-3.83,3.943v8.005c-0.041,0.211-0.291,1.129-1.476,1.387
		L7.565,20.87L7.565,20.87L7.565,20.87z M11.864,20.87c2.256-0.489,2.782-2.159,2.9-3.159V9.09c0-1.368,1.759-1.504,1.96-1.507
		l-0.002-2.188c-1.292,0-3.828,1.19-3.828,3.943v8.005c-0.042,0.211-0.291,1.129-1.478,1.387L11.864,20.87L11.864,20.87
		L11.864,20.87z M16.163,20.87c2.255-0.489,2.794-2.159,2.911-3.159V9.09c0-1.368,1.748-1.504,1.947-1.507V5.395
		c-1.293,0-3.828,1.19-3.828,3.943v8.005c-0.042,0.211-0.291,1.129-1.478,1.387L16.163,20.87L16.163,20.87L16.163,20.87z
		 M16.163,20.87"/> </g> 
    </symbol>
    <symbol id="icon_nav_diagnose" viewBox="0 0 48 48">
       <g> <path fill="#57A2D7" d="M39.036,37.751v-2.968c0-3.324-2.731-6.056-6.056-6.056c-3.323,0-6.056,2.732-6.056,6.056v6.474
		c0,1.72-1.423,3.145-3.144,3.145c-1.723,0-3.148-1.425-3.148-3.145V30.093h0.299c0.415,0,0.71-0.297,0.71-0.712v-0.654
		c2.02-0.177,4.098-0.771,5.82-2.374c2.493-2.198,3.977-5.877,4.688-11.636c0.715-5.641,0.3-8.963-1.364-10.864
		c-1.365-1.544-3.323-1.781-5.344-1.841c-0.414-0.593-1.128-0.949-1.899-0.949c-1.307,0-2.376,1.069-2.376,2.375
		c0,1.305,1.069,2.374,2.376,2.374c0.771,0,1.426-0.356,1.899-0.95c1.544,0,2.553,0.18,3.147,0.832
		c1.009,1.129,1.248,4.038,0.654,8.548c-0.596,4.929-1.841,8.135-3.741,9.796c-0.772,0.713-1.783,1.306-3.919,1.604V24.87
		c0-0.417-0.297-0.714-0.714-0.714h-3.501c-0.417,0-0.712,0.297-0.712,0.714v0.771c-1.248-0.238-2.494-0.654-3.503-1.543
		c-1.9-1.663-3.087-4.869-3.741-9.796C8.82,9.73,9.055,6.88,10.066,5.755c0.595-0.654,1.604-0.833,3.146-0.833
		c0.415,0.533,1.127,0.95,1.897,0.95c1.307,0,2.378-1.069,2.378-2.375c0-1.307-1.071-2.375-2.378-2.375
		c-0.771,0-1.423,0.358-1.897,0.951c-1.96,0.059-3.918,0.296-5.344,1.84C6.206,5.755,5.792,9.135,6.504,14.778
		c0.712,5.757,2.196,9.438,4.688,11.634c1.664,1.484,3.563,2.08,5.402,2.315v0.713c0,0.417,0.3,0.713,0.716,0.713h0.295v11.104
		c0,3.323,2.732,6.054,6.056,6.054c3.324,0,6.056-2.731,6.056-6.054v-6.474c0-1.72,1.424-3.146,3.147-3.146
		c1.721,0,3.146,1.427,3.146,3.146v2.968c-1.664,0.594-2.85,2.199-2.85,4.038c0,2.374,1.957,4.334,4.333,4.334
		c2.374,0,4.334-1.96,4.334-4.334C41.886,39.95,40.7,38.345,39.036,37.751L39.036,37.751L39.036,37.751z M37.553,43.213
		c-0.771,0-1.426-0.653-1.426-1.425c0-0.77,0.655-1.424,1.426-1.424c0.772,0,1.426,0.654,1.426,1.424
		C38.979,42.561,38.325,43.213,37.553,43.213L37.553,43.213L37.553,43.213z M37.553,43.213"/> </g> 
    </symbol>
    <symbol id="icon_nav_disease_erecord" viewBox="0 0 48 48">
       <g> <g> <path fill="#1FA096" d="M24.023,44.589H10.06c-2.242,0-4.063-1.866-4.063-4.161V9.513c0-2.293,1.821-4.161,4.063-4.161
			c0.921,0,1.671-0.748,1.671-1.671c0-0.925-0.75-1.673-1.671-1.673c-4.084,0-7.408,3.368-7.408,7.506v30.916
			c0,4.14,3.323,7.506,7.408,7.506h13.963c0.924,0,1.674-0.749,1.674-1.672C25.697,45.339,24.947,44.589,24.023,44.589
			L24.023,44.589z M24.023,44.589"/> <path fill="#1FA096" d="M36.436,2.007c-0.925,0-1.673,0.749-1.673,1.673c0,0.923,0.748,1.671,1.673,1.671
			c2.238,0,4.06,1.868,4.06,4.161V24.8c0,0.925,0.749,1.673,1.674,1.673c0.922,0,1.671-0.749,1.671-1.673V9.513
			C43.84,5.375,40.517,2.007,36.436,2.007L36.436,2.007z M36.436,2.007"/> <path fill="#1FA096" d="M16.718,14.31c-0.921,0-1.671,0.75-1.671,1.674v1.632c0,0.923,0.75,1.672,1.671,1.672
			c0.928,0,1.676-0.749,1.676-1.672v-1.632C18.394,15.06,17.646,14.31,16.718,14.31L16.718,14.31z M16.718,14.31"/> <path fill="#1FA096" d="M29.773,14.31c-0.923,0-1.672,0.75-1.672,1.674v1.632c0,0.923,0.749,1.672,1.672,1.672
			c0.924,0,1.673-0.749,1.673-1.672v-1.632C31.446,15.06,30.697,14.31,29.773,14.31L29.773,14.31z M29.773,14.31"/> <path fill="#1FA096" d="M27.371,21.328c-0.766-0.503-1.799-0.289-2.311,0.468c-0.006,0.011-0.729,1.06-1.829,1.06
			c-1.07,0-1.736-0.969-1.782-1.037c-0.488-0.775-1.514-1.007-2.294-0.524c-0.784,0.487-1.024,1.518-0.537,2.304
			c0.599,0.966,2.248,2.6,4.613,2.6c2.353,0,4.021-1.622,4.635-2.581C28.358,22.846,28.135,21.831,27.371,21.328L27.371,21.328z
			 M27.371,21.328"/> <path fill="#1FA096" d="M18.229,8.919h10.034c2.459,0,4.46-2,4.46-4.46C32.723,2,30.722,0,28.263,0H18.229
			c-2.458,0-4.46,2-4.46,4.459C13.769,6.918,15.771,8.919,18.229,8.919L18.229,8.919z M18.229,3.345h10.034
			c0.605,0,1.117,0.511,1.117,1.114c0,0.604-0.512,1.115-1.117,1.115H18.229c-0.605,0-1.114-0.512-1.114-1.115
			C17.115,3.856,17.624,3.345,18.229,3.345L18.229,3.345z M18.229,3.345"/> <path fill="#1FA096" d="M40.358,28.752c-2.431-1.419-5.523-1.1-7.767,0.737c-2.244-1.837-5.334-2.156-7.764-0.737
			c-1.881,1.1-3.119,2.959-3.404,5.101c-0.283,2.158,0.42,4.276,1.932,5.807l7.416,7.519c0.486,0.491,1.129,0.76,1.818,0.762h0.002
			c0.688,0,1.336-0.271,1.822-0.765l7.416-7.516c1.513-1.531,2.215-3.649,1.93-5.807C43.477,31.712,42.236,29.853,40.358,28.752
			L40.358,28.752z M39.449,37.31l-6.857,6.953l-6.857-6.953c-0.78-0.791-1.143-1.893-0.993-3.018
			c0.149-1.127,0.78-2.069,1.774-2.652c0.482-0.281,1.031-0.417,1.592-0.417c0.956,0,1.949,0.399,2.689,1.15l0.605,0.611
			c0.313,0.319,0.743,0.499,1.189,0.499h0.002c0.447,0,0.877-0.181,1.189-0.499l0.604-0.611c1.172-1.188,2.973-1.499,4.282-0.734
			c0.997,0.583,1.627,1.525,1.774,2.652C40.593,35.417,40.23,36.519,39.449,37.31L39.449,37.31z M39.449,37.31"/> </g> </g> 
    </symbol>
    <symbol id="icon_nav_disease_record" viewBox="0 0 48 48">
       <g> <g> <path fill="#DA506C" d="M43.379,15.37c-0.006-0.093-0.021-0.182-0.054-0.268c-0.012-0.03-0.018-0.058-0.03-0.086
			c-0.047-0.103-0.108-0.204-0.191-0.289L29.457,1.084c-0.084-0.086-0.185-0.147-0.288-0.194c-0.027-0.012-0.055-0.019-0.081-0.028
			c-0.091-0.032-0.182-0.05-0.276-0.057c-0.019-0.003-0.037-0.013-0.057-0.013h-18.19c-4.309,0-7.813,3.505-7.813,7.812v31.839
			c0,4.306,3.504,7.81,7.813,7.81h25.014c4.306,0,7.814-3.504,7.813-7.81V15.426C43.393,15.408,43.379,15.39,43.379,15.37
			L43.379,15.37z M29.746,4.174L40.01,14.436h-7.842c-1.334,0-2.422-1.085-2.422-2.42V4.174L29.746,4.174z M35.578,46.273H10.564
			c-3.215,0-5.832-2.616-5.832-5.831V8.605c0-3.216,2.617-5.831,5.832-5.831h17.204v9.241c0,2.426,1.975,4.401,4.399,4.401h9.241
			v24.025C41.409,43.657,38.793,46.273,35.578,46.273L35.578,46.273z M35.578,46.273"/> <path fill="#DA506C" d="M34.441,23.535h-6.971v-6.969c0-0.547-0.44-0.99-0.989-0.99H19.66c-0.547,0-0.988,0.443-0.988,0.99v6.969
			H11.7c-0.546,0-0.988,0.444-0.988,0.989v6.821c0,0.548,0.442,0.991,0.988,0.991h6.972v6.97c0,0.547,0.441,0.989,0.988,0.989h6.821
			c0.549,0,0.989-0.442,0.989-0.989v-6.97h6.971c0.547,0,0.991-0.442,0.991-0.991v-6.821C35.433,23.979,34.988,23.535,34.441,23.535
			L34.441,23.535z M33.451,30.354h-6.969c-0.547,0-0.989,0.442-0.989,0.991v6.969h-4.841v-6.965c0-0.552-0.441-0.992-0.99-0.992
			h-6.969v-4.842h6.969c0.545,0,0.99-0.442,0.99-0.991v-6.97h4.841v6.97c0,0.545,0.442,0.991,0.989,0.991h6.969V30.354
			L33.451,30.354z M33.451,30.354"/> </g> </g> 
    </symbol>
    <symbol id="icon_nav_operation" viewBox="0 0 48 48">
       <g> <g> <path fill="#E4B03E" d="M34.732,47.117c-0.605,0-1.212-0.072-1.81-0.22c-0.073-0.014-0.131-0.027-0.182-0.046
			c-0.646-0.22-0.983-0.956-0.749-1.636c0.186-0.541,0.673-0.901,1.214-0.901c0.127,0,0.256,0.023,0.381,0.066l0.024,0.009h0.008
			c0.37,0.081,0.746,0.122,1.116,0.122c2.954,0,5.364-2.491,5.364-5.561c0-3.065-2.41-5.563-5.364-5.563
			c-2.96,0-5.37,2.497-5.37,5.563c0,0.537,0.076,1.074,0.23,1.597l0.002,0.01l0.005,0.012c0.291,0.605,0.041,1.33-0.572,1.648
			c-0.183,0.095-0.388,0.147-0.593,0.147c-0.469,0-0.892-0.255-1.104-0.662l-0.035-0.078c-0.031-0.075-0.055-0.148-0.071-0.221
			c-0.24-0.801-0.362-1.623-0.362-2.448c0-2.358,0.979-4.598,2.688-6.145l0.088-0.08l-5.483-7.042l-5.48,7.037l0.086,0.082
			c1.714,1.548,2.694,3.789,2.694,6.147c0,4.503-3.528,8.164-7.869,8.164c-4.336,0-7.865-3.662-7.865-8.169
			c0-4.502,3.529-8.164,7.865-8.164c0.979,0,1.931,0.183,2.831,0.546l0.092,0.034l6.035-7.75l-4.536-5.826L6.904,3.559L6.92,3.546
			L6.545,3.069C6.111,2.514,6.206,1.711,6.757,1.277c0.223-0.175,0.492-0.269,0.778-0.269c0.396,0,0.766,0.18,1.012,0.493
			l0.346,0.441l0.262,0.333L9.17,2.301l14.986,19.247L39.385,1.996l0.344-0.47C39.969,1.196,40.358,1,40.763,1
			c0.27,0,0.529,0.086,0.748,0.241c0.563,0.417,0.685,1.218,0.266,1.785l-0.398,0.543l-0.182,0.253
			c-0.035,0.046-0.075,0.092-0.124,0.145L41.066,3.97L25.771,23.617l6.037,7.752l0.09-0.034c0.902-0.363,1.854-0.548,2.835-0.548
			c4.336,0,7.868,3.662,7.868,8.164C42.601,43.458,39.068,47.117,34.732,47.117L34.732,47.117z M13.589,33.389
			c-2.957,0-5.364,2.497-5.364,5.563c0,3.067,2.41,5.561,5.364,5.561c2.959,0,5.367-2.491,5.367-5.561
			C18.956,35.886,16.548,33.389,13.589,33.389L13.589,33.389z M13.589,33.389"/> </g> </g> 
    </symbol>
    <symbol id="icon_nav_test" viewBox="0 0 48 48">
       <g> <g> <path fill="#E58B51" d="M39.489,2.481h-2.608c-0.721,0-1.551,0.505-1.551,1.321c0,0.815,0.83,1.634,1.551,1.634h2.608
			c1.554,0,2.606,1.193,2.606,2.954V42.39c0,1.76-1.052,2.953-2.606,2.953H11.423c-1.553,0-3.272-1.193-3.272-2.953V8.391
			c0-1.761,1.053-2.954,2.605-2.954h3.273c0.721,0,1-0.818,1-1.634c0-0.816-0.278-1.321-1-1.321h-3.273
			c-3.658,0-5.213,2.576-5.213,5.971v33.621c0,3.646,1.941,6.223,5.491,6.223H39.21c3.552,0,5.493-2.136,5.493-6.223V8.452
			C44.703,5.058,42.872,2.481,39.489,2.481L39.489,2.481L39.489,2.481z M14.029,15.804c0,0.818,0.611,1.51,1.332,1.51h19.58
			c0.721,0,1.331-0.691,1.331-1.51c0-0.816-0.609-1.508-1.331-1.508h-19.58C14.64,14.296,14.029,14.987,14.029,15.804L14.029,15.804
			L14.029,15.804z M34.885,22.467H15.361c-0.721,0-1.332,0.691-1.332,1.508c0,0.817,0.611,1.51,1.332,1.51h19.58
			c0.721,0,1.331-0.692,1.331-1.51C36.216,23.097,35.605,22.467,34.885,22.467L34.885,22.467L34.885,22.467z M34.885,31.327H15.361
			c-0.721,0-1.332,0.693-1.332,1.51s0.611,1.508,1.332,1.508h19.58c0.721,0,1.331-0.691,1.331-1.508
			C36.216,31.956,35.605,31.327,34.885,31.327L34.885,31.327L34.885,31.327z M20.63,6.19h9.096c1.055,0,1.942-1.195,1.942-2.578
			c0-1.382-0.887-2.576-1.997-2.576H20.63c-1.109,0-1.997,1.194-1.997,2.576C18.633,4.995,19.521,6.19,20.63,6.19L20.63,6.19
			L20.63,6.19z M20.63,6.19"/> </g> </g> 
    </symbol>
    <symbol id="icon_nav_treatment" viewBox="0 0 48 48">
       <g> <path fill="#57A2D7" d="M21.34,18.099h1.613v-2.816h2.817v-1.611h-2.817v-2.818H21.34v2.818h-2.815v1.611h2.815V18.099z
		 M21.34,18.099"/> <path fill="#57A2D7" d="M12.055,21.793h20.247v2.394H12.055V21.793L12.055,21.793z M12.055,21.793"/> <path fill="#57A2D7" d="M12.055,37.036h20.247v2.389H12.055V37.036L12.055,37.036z M12.055,37.036"/> <path fill="#57A2D7" d="M12.055,29.414h20.247v2.396H12.055V29.414L12.055,29.414z M12.055,29.414"/> <path fill="#57A2D7" d="M37.682,9.585h-4.248V7.52c0-1.363-1.106-2.472-2.473-2.472h-2.997C27.576,2.199,25.134,0,22.18,0
		c-2.951,0-5.395,2.199-5.784,5.048h-3.006c-1.367,0-2.475,1.108-2.475,2.472v2.065h-4.25c-1.651,0-2.997,1.343-2.997,2.995v32.36
		c0,1.652,1.346,2.995,2.997,2.995h31.022c1.653,0,2.997-1.343,2.997-2.995V12.58C40.679,10.935,39.331,9.585,37.682,9.585
		L37.682,9.585z M37.646,42.197c0,1.383-1.124,2.505-2.504,2.505H9.214c-1.382,0-2.504-1.122-2.504-2.505V15.153
		c0-1.382,1.122-2.736,2.504-2.736h3.784v-1.726c0-1.143,0.928-2.418,2.07-2.418l2.278-0.058c0.323-2.383,2.367-4.864,4.834-4.864
		c2.467,0,4.51,2.481,4.833,4.864l2.27,0.058c1.141,0,2.066,1.275,2.066,2.418v1.726h3.787c1.376,0,2.505,1.36,2.509,2.736V42.197
		L37.646,42.197L37.646,42.197L37.646,42.197z M37.646,42.197"/> </g> 
    </symbol></svg>