<svg xmlns="http://www.w3.org/2000/svg" style="width:0; height:0; visibility:hidden;">
    <symbol id="icon_nav_-service" viewBox="0 0 48 48">
       <g> <g> <path fill="#76CAE3" d="M28.615,13.046c-2.25,0-3.732,0.996-4.586,1.824l-0.057,0.057l-0.058-0.057
			c-0.883-0.828-2.422-1.824-4.644-1.824c-3.532,0-5.44,3.277-5.44,6.383c0,4.387,3.305,8.402,9.771,11.965l0.37,0.199l0.37-0.199
			c6.524-3.563,9.831-7.605,9.831-12.023C34.172,16.267,32.092,13.046,28.615,13.046L28.615,13.046z M24.028,29.798L24,29.827
			l-0.028-0.029c-5.698-3.191-8.575-6.695-8.575-10.398c0-1.881,1.054-4.844,3.902-4.844c2.678,0,4.017,1.852,4.074,1.938
			l0.655,0.969l0.627-0.969c0-0.027,1.252-1.91,3.988-1.91c2.905,0,3.989,2.965,3.989,4.816
			C32.633,23.046,29.64,26.636,24.028,29.798L24.028,29.798z M24.028,29.798"/> <path fill="#76CAE3" d="M18.957,32.392h0.057v2.563h1.567v-4.045h-0.769c-0.058,0-5.043-0.057-5.214-2.564l-1.538,0.057
			C13.203,31.563,17.247,32.249,18.957,32.392L18.957,32.392z M18.957,32.392"/> <path fill="#76CAE3" d="M34.94,28.372l-1.537-0.055c-0.172,2.506-5.157,2.563-5.216,2.563h-0.77v4.074h1.539v-2.563h0.057
			C30.752,32.249,34.797,31.563,34.94,28.372L34.94,28.372z M34.94,28.372"/> <path fill="#76CAE3" d="M16.935,18.688c0,0.512,0.114,2.934,2.45,4.215l0.713-1.367c-1.511-0.826-1.625-2.393-1.625-2.791
			L16.935,18.688L16.935,18.688z M16.935,18.688"/> </g> </g> 
    </symbol>
    <symbol id="icon_nav_activity" viewBox="0 0 48 48">
       <g> <path fill="#DA506C" d="M29.879,25.867H8.54c-0.289,0-0.524-0.232-0.524-0.521v-4.289c0-0.289,0.235-0.521,0.524-0.521h21.339
		c0.287,0,0.523,0.232,0.523,0.521v4.289C30.402,25.635,30.166,25.867,29.879,25.867L29.879,25.867z M9.063,24.822h20.294V21.58
		H9.063V24.822L9.063,24.822z M9.063,24.822"/> <path fill="#DA506C" d="M28.623,37.244H9.847c-0.288,0-0.523-0.234-0.523-0.523V25.555c0-0.289,0.235-0.523,0.523-0.523
		c0.289,0,0.523,0.234,0.523,0.523v10.643H28.1V25.555c0-0.289,0.234-0.523,0.523-0.523s0.523,0.234,0.523,0.523v11.166
		C29.146,37.01,28.912,37.244,28.623,37.244L28.623,37.244z M28.623,37.244"/> <path fill="#DA506C" d="M19.278,36.904c-0.289,0-0.523-0.234-0.523-0.523V17.736c0-0.289,0.234-0.523,0.523-0.523
		c0.29,0,0.524,0.234,0.524,0.523v18.645C19.802,36.67,19.568,36.904,19.278,36.904L19.278,36.904z M19.278,36.904"/> <path fill="#DA506C" d="M23.884,21.313c-0.143,0-0.285-0.057-0.387-0.17c-0.197-0.213-0.18-0.545,0.033-0.738
		c0.477-0.436,0.75-1.057,0.75-1.701c0-1.313-0.988-2.301-2.301-2.301c-0.926,0-1.758,0.551-2.119,1.404
		c-0.113,0.268-0.42,0.391-0.686,0.279c-0.266-0.113-0.391-0.42-0.278-0.686c0.525-1.242,1.736-2.045,3.083-2.045
		c0.922,0,1.773,0.35,2.398,0.984c0.613,0.623,0.95,1.463,0.95,2.363c0,0.939-0.399,1.84-1.092,2.475
		C24.134,21.27,24.009,21.313,23.884,21.313L23.884,21.313z M23.884,21.313"/> <path fill="#DA506C" d="M14.704,21.313c-0.125,0-0.252-0.043-0.353-0.135c-0.694-0.635-1.093-1.535-1.093-2.475
		c0-0.9,0.338-1.74,0.951-2.363c0.623-0.635,1.475-0.984,2.396-0.984c1.348,0,2.559,0.803,3.084,2.045
		c0.111,0.266-0.014,0.572-0.28,0.686c-0.265,0.111-0.572-0.012-0.686-0.279c-0.359-0.854-1.192-1.404-2.119-1.404
		c-1.313,0-2.301,0.988-2.301,2.301c0,0.645,0.273,1.266,0.75,1.701c0.214,0.193,0.229,0.525,0.035,0.738
		C14.987,21.256,14.847,21.313,14.704,21.313L14.704,21.313z M14.704,21.313"/> </g> 
    </symbol>
    <symbol id="icon_nav_circle" viewBox="0 0 48 48">
       <g> <g> <path fill="#DDA872" d="M25.079,12.922c-6.108,0-11.077,4.971-11.077,11.078s4.969,11.078,11.077,11.078S36.156,30.107,36.156,24
			S31.188,12.922,25.079,12.922L25.079,12.922z M25.079,33.912c-5.466,0-9.911-4.447-9.911-9.912s4.445-9.912,9.911-9.912
			c5.465,0,9.911,4.447,9.911,9.912S30.544,33.912,25.079,33.912L25.079,33.912z M25.079,33.912"/> <path fill="#DDA872" d="M22.342,23.201c0.322,0,0.584-0.262,0.584-0.584s-0.262-0.584-0.584-0.584
			c-0.918,0-1.666-0.752-1.666-1.678c0-0.928,0.748-1.68,1.666-1.68c0.228,0,0.447,0.045,0.653,0.133
			c0.296,0.129,0.639-0.008,0.766-0.303c0.127-0.297-0.009-0.641-0.306-0.768c-0.354-0.152-0.728-0.229-1.113-0.229
			c-1.561,0-2.832,1.277-2.832,2.846c0,0.723,0.271,1.379,0.715,1.883c-2.855,1.35-2.977,4.021-2.98,4.145
			c-0.011,0.322,0.242,0.592,0.564,0.602c0.006,0,0.013,0,0.019,0c0.313,0,0.572-0.248,0.583-0.566c0-0.023,0.111-2.449,2.975-3.389
			C21.685,23.139,22.006,23.201,22.342,23.201L22.342,23.201z M22.342,23.201"/> <path fill="#DDA872" d="M31.922,26.494c-0.474-0.906-1.385-2.066-3.09-2.852c0.65-0.621,1.058-1.492,1.058-2.457
			c0-1.881-1.538-3.41-3.427-3.41c-1.89,0-3.427,1.529-3.427,3.41c0,0.938,0.382,1.787,0.998,2.404
			c-3.706,1.635-3.862,5.098-3.864,5.135c-0.01,0.32,0.24,0.588,0.561,0.6c0.008,0,0.016,0,0.022,0c0.311,0,0.569-0.246,0.583-0.561
			c0.005-0.131,0.178-3.209,3.919-4.391c0.376,0.141,0.782,0.223,1.208,0.223c0.394,0,0.771-0.068,1.125-0.191
			c3.647,1.203,3.822,4.223,3.828,4.359c0.012,0.314,0.27,0.563,0.582,0.563c0.006,0,0.014,0,0.018,0
			c0.323-0.012,0.574-0.281,0.566-0.602C32.58,28.682,32.539,27.67,31.922,26.494L31.922,26.494z M26.463,23.43
			c-1.246,0-2.26-1.006-2.26-2.246c0-1.236,1.014-2.244,2.26-2.244s2.26,1.008,2.26,2.244C28.723,22.424,27.709,23.43,26.463,23.43
			L26.463,23.43z M26.463,23.43"/> <path fill="#DDA872" d="M27.941,21.344c-0.148-0.059-0.317,0.014-0.377,0.164c-0.145,0.361-0.445,0.791-1.073,0.791
			c-0.623,0-0.925-0.424-1.069-0.779c-0.061-0.148-0.23-0.223-0.381-0.162c-0.148,0.063-0.221,0.23-0.16,0.379
			c0.295,0.729,0.881,1.145,1.61,1.145c0.733,0,1.323-0.422,1.615-1.158C28.166,21.574,28.092,21.404,27.941,21.344L27.941,21.344z
			 M27.941,21.344"/> </g> </g> 
    </symbol>
    <symbol id="icon_nav_health-_manage" viewBox="0 0 48 48">
       <g> <path fill="#86C6A0" d="M19.156,25.623h4.787c0.396,0,0.718-0.32,0.718-0.717s-0.321-0.719-0.718-0.719h-4.787
		c-0.396,0-0.718,0.322-0.718,0.719S18.76,25.623,19.156,25.623L19.156,25.623z M19.156,25.623"/> <path fill="#86C6A0" d="M27.293,28.043h-8.137c-0.396,0-0.718,0.322-0.718,0.719c0,0.396,0.321,0.717,0.718,0.717h8.137
		c0.397,0,0.719-0.321,0.719-0.717C28.012,28.365,27.69,28.043,27.293,28.043L27.293,28.043z M27.293,28.043"/> <path fill="#86C6A0" d="M32.318,11.512H17.002c-0.793,0-1.436,0.643-1.436,1.436v18.178c0,0.793,0.643,1.436,1.436,1.436h15.316
		c0.794,0,1.437-0.643,1.437-1.436V12.947C33.755,12.154,33.112,11.512,32.318,11.512L32.318,11.512z M32.318,14.721v15.927
		c0,0.264-0.214,0.478-0.479,0.478H17.481c-0.265,0-0.479-0.214-0.479-0.478V13.425c0-0.264,0.215-0.478,0.479-0.478H31.84
		c0.265,0,0.479,0.214,0.479,0.478V14.721L32.318,14.721z M32.318,14.721"/> <path fill="#86C6A0" d="M28.36,14.39c-0.646,0-1.295,0.245-1.785,0.736c-0.491-0.491-1.139-0.736-1.786-0.736
		c-0.646,0-1.295,0.245-1.785,0.736c-0.981,0.981-0.981,2.587,0,3.569l0,0l3.571,3.569l0,0l0,0l0,0l3.571-3.569
		c0.981-0.982,0.981-2.588,0-3.569C29.655,14.635,29.008,14.39,28.36,14.39L28.36,14.39z M29.131,17.681l-2.556,2.554l-2.557-2.554
		c-0.424-0.425-0.424-1.116,0.001-1.54c0.203-0.203,0.477-0.316,0.77-0.316c0.294,0.001,0.566,0.113,0.771,0.316l1.015,1.014
		l1.015-1.014c0.204-0.203,0.478-0.316,0.771-0.316s0.566,0.113,0.771,0.316c0.203,0.203,0.315,0.477,0.315,0.77
		S29.334,17.477,29.131,17.681L29.131,17.681z M29.131,17.681"/> </g> 
    </symbol>
    <symbol id="icon_nav_inquiry" viewBox="0 0 48 48">
       <g> <path fill="#E4715D" d="M21.782,35.64c6.109,0,11.078-4.471,11.078-9.967s-4.969-9.966-11.078-9.966s-11.08,4.47-11.08,9.966
		c0,3.227,1.748,6.268,4.676,8.135l0.066,0.043l-0.002,4.797l4.225-3.188l0.061,0.01C20.401,35.583,21.093,35.64,21.782,35.64
		L21.782,35.64z M19.312,34.315l-2.566,1.828l0.014-2.75c-3.096-1.596-5.016-4.553-5.016-7.721c0-4.922,4.504-8.927,10.039-8.927
		c5.533,0,10.037,4.005,10.037,8.927s-4.504,8.926-10.037,8.926C20.974,34.599,20.144,34.503,19.312,34.315L19.312,34.315z
		 M19.312,34.315"/> <path fill="#E4715D" d="M26.292,27.538h-8.91c-0.227,0-0.41,0.27-0.41,0.605v0.264c0,0.332,0.184,0.604,0.41,0.604h8.91
		c0.227,0,0.41-0.271,0.41-0.604v-0.264C26.702,27.808,26.519,27.538,26.292,27.538L26.292,27.538z M26.292,27.538"/> <path fill="#E4715D" d="M27.731,22.741H15.94c-0.307,0-0.555,0.27-0.555,0.604v0.266c0,0.334,0.248,0.604,0.555,0.604h11.791
		c0.307,0,0.555-0.27,0.555-0.604v-0.266C28.286,23.011,28.038,22.741,27.731,22.741L27.731,22.741z M27.731,22.741"/> </g> 
    </symbol>
    <symbol id="icon_nav_shop" viewBox="0 0 48 48">
       <g> <path fill="#36B7A6" d="M30.759,17.152H17.235c-0.262,0-0.477,0.215-0.477,0.479s0.215,0.479,0.477,0.479h13.523
		c0.266,0,0.48-0.215,0.48-0.479S31.024,17.152,30.759,17.152L30.759,17.152z M30.759,17.152"/> <path fill="#36B7A6" d="M32.005,14.26c-0.213-0.166-0.467-0.252-0.73-0.252H16.722c-0.264,0-0.518,0.086-0.727,0.25
		c-0.195,0.146-0.342,0.352-0.432,0.594l-2.676,5.395v0.113c0,2.59,1.928,4.695,4.299,4.695c1.377,0,2.627-0.705,3.428-1.873
		c0.805,1.168,2.053,1.873,3.43,1.873c1.342,0,2.576-0.682,3.383-1.811c0.807,1.129,2.041,1.811,3.383,1.811
		c2.371,0,4.301-2.105,4.301-4.695v-0.113l-2.678-5.395C32.347,14.611,32.198,14.406,32.005,14.26L32.005,14.26z M30.81,24.098
		c-1.236,0-2.367-0.758-2.951-1.979c-0.01-0.021-0.025-0.033-0.037-0.053c-0.02-0.027-0.035-0.053-0.061-0.076
		c-0.023-0.025-0.051-0.043-0.078-0.061c-0.02-0.012-0.031-0.027-0.051-0.037c-0.006-0.004-0.014-0.004-0.021-0.006
		c-0.033-0.014-0.066-0.02-0.102-0.025c-0.027-0.004-0.055-0.012-0.082-0.012s-0.057,0.008-0.086,0.014
		c-0.033,0.006-0.064,0.01-0.096,0.023c-0.008,0.002-0.018,0.002-0.025,0.006c-0.018,0.01-0.031,0.025-0.049,0.037
		c-0.027,0.018-0.055,0.035-0.08,0.061c-0.023,0.023-0.039,0.049-0.057,0.076c-0.014,0.02-0.029,0.031-0.039,0.053
		c-0.584,1.221-1.715,1.979-2.951,1.979c-1.275,0-2.42-0.793-2.992-2.066c-0.01-0.021-0.027-0.035-0.039-0.057
		c-0.018-0.029-0.035-0.059-0.063-0.086c-0.023-0.023-0.053-0.039-0.08-0.059c-0.021-0.012-0.037-0.031-0.061-0.041
		c-0.002-0.002-0.008-0.002-0.012-0.004c-0.033-0.012-0.068-0.016-0.102-0.023c-0.027-0.004-0.055-0.012-0.082-0.012
		c-0.023,0-0.051,0.008-0.08,0.012c-0.033,0.008-0.068,0.012-0.102,0.023c-0.004,0.002-0.008,0.002-0.014,0.004
		c-0.021,0.01-0.037,0.029-0.059,0.043c-0.027,0.018-0.057,0.033-0.08,0.057c-0.027,0.027-0.043,0.057-0.063,0.086
		c-0.012,0.021-0.029,0.035-0.039,0.057c-0.57,1.273-1.719,2.066-2.992,2.066c-1.809,0-3.289-1.617-3.342-3.629l2.59-5.219
		l0.025-0.059c0.018-0.053,0.051-0.125,0.119-0.176c0.045-0.035,0.092-0.053,0.143-0.053h14.553c0.051,0,0.1,0.016,0.146,0.055
		c0.066,0.051,0.098,0.119,0.115,0.17l2.617,5.281C34.101,22.48,32.62,24.098,30.81,24.098L30.81,24.098z M30.81,24.098"/> <path fill="#36B7A6" d="M32.425,26.373c-0.264,0-0.477,0.215-0.477,0.479v6.541c0,0.1-0.037,0.193-0.104,0.262
		c-0.063,0.064-0.146,0.1-0.232,0.1H16.386c-0.088,0-0.17-0.035-0.232-0.1c-0.066-0.07-0.104-0.162-0.104-0.262v-6.541
		c0-0.264-0.215-0.479-0.479-0.479c-0.266,0-0.479,0.215-0.479,0.479v6.541c0,0.348,0.133,0.68,0.373,0.926
		c0.244,0.254,0.57,0.393,0.92,0.393h15.227c0.348,0,0.674-0.139,0.92-0.393c0.24-0.248,0.371-0.578,0.371-0.926v-6.541
		C32.903,26.588,32.69,26.373,32.425,26.373L32.425,26.373z M32.425,26.373"/> </g> 
    </symbol></svg>