<?xml version="1.0" encoding="utf-8"?><!DOCTYPE svg PUBLIC "-//W3C//DTD SVG 1.1//EN" "http://www.w3.org/Graphics/SVG/1.1/DTD/svg11.dtd"><svg xmlns="http://www.w3.org/2000/svg" xmlns:xlink="http://www.w3.org/1999/xlink"><symbol viewBox="0 0 48 48" id="icon_nav_appointment"><g fill-rule="evenodd" clip-rule="evenodd" fill="#C68982"><path d="M9.624 10.37h25.859v2.873H9.624V10.37zM9.624 16.119h25.859v2.873H9.624v-2.873zM9.624 21.864h11.494v2.872H9.624v-2.872zM32.608 41.136l-6.758-6.764 2.027-2.029 4.731 4.729 7.609-7.601 2.03 2.029-9.639 9.636z"/><path d="M1 1.749v43.103l14.371-14.367h-4.043l-7.453 7.441V4.621h34.483v14.371h2.875V1.749H1z"/><path d="M34.048 24.736c2.685 0 5.212 1.05 7.112 2.948a9.992 9.992 0 0 1 2.945 7.113c0 2.685-1.048 5.208-2.945 7.111a10.001 10.001 0 0 1-7.112 2.943 9.993 9.993 0 0 1-7.113-2.943 10 10 0 0 1-2.945-7.111 9.986 9.986 0 0 1 2.945-7.113 9.996 9.996 0 0 1 7.113-2.948zm0-2.872c-7.144 0-12.93 5.79-12.93 12.933 0 7.142 5.786 12.932 12.93 12.932 7.143 0 12.93-5.79 12.93-12.932 0-7.143-5.788-12.933-12.93-12.933"/></g></symbol><symbol viewBox="0 0 48 48" id="icon_nav_ask"><path fill-rule="evenodd" clip-rule="evenodd" fill="#57A3D6" d="M45.506 29.017a2.132 2.132 0 0 1-2.131-2.133l-.02-21.356-31.906.019a2.13 2.13 0 0 1 0-4.263l29.726-.014v.014h2.265a4.263 4.263 0 0 1 4.176 3.413l.016 22.187a2.132 2.132 0 0 1-2.126 2.133zm-4.26-17.713l.016 13.469c0 .056-.012.108-.016.16l.016 8.798c-.244 2.119-2.027 3.773-4.213 3.773h-2.265v.005l-11.822.014-7.995 7.934a2.13 2.13 0 1 1-3.012-3.013l8.285-8.22a2.124 2.124 0 0 1 1.774-.958h.085l14.9-.019-.004-3.351-.007.451.007-.78-.012-7.007c0-.056.012-.108.016-.16l-.011-7.19c-.044-2.806-.392-3.205-2.832-3.262l2.813.019.019 3.098-.002-3.121h-3.139c.106 0 .214.004.31.004l-.676-.004-25.723.014c-2.23.075-2.656.479-2.73 2.514l.014 16.745c.11 1.688.616 1.974 2.883 2.021l-2.881-.019v.042l8.533-.014a2.129 2.129 0 1 1 0 4.257l-6.29.015v-.015H5.024A4.25 4.25 0 0 1 .781 33.43L.765 11.915A4.246 4.246 0 0 1 4.834 7.7l32.233-.019a4.246 4.246 0 0 1 4.179 3.623zm-36.222.654l.003 1.466.009-1.457 1.364-.009H5.024zm29.329 21.279c2.24-.056 2.587-.427 2.635-2.89l-.019 2.872-2.616.018zm0 0c-.458.01-.987.01-1.619.01l1.619-.01zm-26.428 0l1.409.01c-.533 0-.998 0-1.409-.01zM40.414 5.556l2.882.019.016 2.392c-.063-2.035-.471-2.359-2.898-2.411zm0 0l-1.419-.009c.537 0 1.005 0 1.419.009zm2.909 4.254l-.012-1.842c.012.502.012 1.104.012 1.842z"/></symbol><symbol viewBox="0 0 48 48" id="icon_nav_community"><path fill-rule="evenodd" clip-rule="evenodd" fill="#42B035" d="M7.527 45.618V27.893H9.83v15.424h28.349V27.893h2.303v17.726H7.527v-.001zm8.001-15.21c-1.021-1.205-1.562-2.627-1.562-4.114a6.192 6.192 0 0 1 6.186-6.183c1.355 0 2.692.449 3.759 1.264l.087.066.089-.066a6.23 6.23 0 0 1 3.759-1.264 6.191 6.191 0 0 1 6.186 6.183 6.244 6.244 0 0 1-1.445 3.998l-5.333 4.85-1.622-1.632 5.3-4.811.009-.009c.479-.593.787-1.533.787-2.396 0-2.14-1.742-3.88-3.883-3.88a3.855 3.855 0 0 0-2.965 1.368l-.883 1.045-.881-1.045a3.845 3.845 0 0 0-2.965-1.368 3.887 3.887 0 0 0-3.885 3.88c0 .905.336 1.825.918 2.525l.007.007 8.075 7.48-1.564 1.688-8.174-7.586zm8.471-24.656L4.044 27.036l-1.682-1.575L23.999 2.382l21.638 23.079-1.682 1.575L23.999 5.752z"/></symbol><symbol viewBox="0 0 48 48" id="icon_nav_doctor"><g fill-rule="evenodd" clip-rule="evenodd" fill="#1EA58C"><path d="M41.091 38.246c-2.021-4.45-6.807-8.309-13.504-9.344 3.643-1.869 6.271-6.193 6.125-12.166-.064-2.721-1.346-6.383-2.971-8.238-.305-.349-4.178-1.181-7.377-1.181-3.033 0-6.84.767-7.275 1.181-1.914 1.828-2.988 5.328-3.031 8.232-.086 6.068 2.66 10.535 6.459 12.332-6.674 1.315-11.336 5.416-12.666 9.264a3.96 3.96 0 0 0 .145 2.884c.852 1.894 2.277 1.913 2.277 1.913s7.117.221 14.283.221h.416c5.734 0 13.793-.111 13.793-.111s2.115-.096 3.082-1.807c.718-1.271.549-2.512.244-3.18zM14.847 16.832c.037-2.645 1.004-5.486 2.322-6.884.801-.281 3.709-.845 6.197-.845 2.574 0 5.363.563 6.246.836 1.223 1.595 2.26 4.654 2.314 6.915.008.37-.002.732-.018 1.091-1.566-.461-4.568-1.139-8.543-1.139-4.043 0-6.875.502-8.496.902-.011-.289-.026-.578-.022-.876zm3.187 9.066c-1.586-1.609-2.619-3.809-3.012-6.419 1.414-.372 4.205-.903 8.344-.903 4.143 0 7.154.758 8.367 1.137-.393 2.471-1.371 4.567-2.879 6.112a7.583 7.583 0 0 1-5.49 2.32h-.004c-1.986.001-3.826-.725-5.326-2.247zm21.244 14.741c-.445.791-1.223.844-1.701.944-1.082.03-8.369.229-13.609.239l-.412.002c-6.1 0-12.232-.336-13.807-.336-.682 0-.971-.666-1.066-.873-.234-.681-.285-1.291-.143-1.705 1.43-4.121 7.332-8.501 15.457-8.501 8.543 0 13.672 4.619 15.467 8.575.084.187.24.895-.186 1.655z"/><path d="M25.106 13.842h1.355c.24 0 .434-.194.434-.434v-.027a.434.434 0 0 0-.434-.434h-1.355v-1.355a.432.432 0 0 0-.432-.432h-.027a.433.433 0 0 0-.434.432v1.355h-1.355a.435.435 0 0 0-.434.434v.027c0 .239.195.434.434.434h1.355v1.355c0 .238.193.432.432.432h.027c.24 0 .434-.193.434-.432v-1.355z"/></g></symbol><symbol viewBox="0 0 48 48" id="icon_nav_hospital"><g fill-rule="evenodd" clip-rule="evenodd" fill="#DA6339"><path d="M40.037 20.461H31.18c-.225 0-.426.079-.637.129V10.053a4.132 4.132 0 0 0-4.127-4.127H9.217a4.132 4.132 0 0 0-4.127 4.127v31.555h37.754V23.271a2.812 2.812 0 0 0-2.807-2.81zm-25.32 18.974v-5.937h6.197v5.937h-6.197zm13.654 0h-5.283v-6.288a1.825 1.825 0 0 0-1.822-1.822h-6.898a1.824 1.824 0 0 0-1.822 1.822v6.288H7.262V10.053c0-1.078.879-1.955 1.955-1.955h17.199c1.078 0 1.955.877 1.955 1.955v29.382zm12.301 0H30.543v-4.58h7.223a1.086 1.086 0 1 0 0-2.173h-7.223v-3.168h7.223a1.086 1.086 0 1 0 0-2.172h-7.223v-4.071c0-.345.291-.637.637-.637h8.857c.344 0 .635.292.635.637v16.164z"/><path d="M22.479 18.471h-3.576v-3.576a1.084 1.084 0 1 0-2.17 0v3.576h-3.578c-.602 0-1.086.485-1.086 1.086 0 .6.484 1.086 1.086 1.086h3.578v3.576a1.084 1.084 0 1 0 2.17 0v-3.576h3.576c.6 0 1.088-.486 1.088-1.086a1.089 1.089 0 0 0-1.088-1.086z"/></g></symbol><symbol viewBox="0 0 48 48" id="icon_nav_nurse"><g fill-rule="evenodd" clip-rule="evenodd" fill="#E85F95" stroke="#D85C8C" stroke-width=".5" stroke-miterlimit="10"><path d="M32.083 35.283h-1.725v-1.731c0-.245-.197-.444-.441-.444s-.441.199-.441.444v1.731h-1.725c-.244 0-.441.198-.441.443s.197.443.441.443h1.725v1.732c0 .244.197.443.441.443s.441-.199.441-.443v-1.732h1.725a.442.442 0 1 0 0-.886z"/><path d="M39.669 36.822c-.568-2.49-3.785-4.816-9.061-6.551-1.219-.401-2.229-.822-2.998-1.252a.44.44 0 0 0-.49.043.419.419 0 0 0-.072.039c-1.238.852-3.295 3.342-4.223 5.311-1.057-2.438-3.715-4.775-3.848-4.892l-.01-.007c1.393-.886 1.814-1.746 1.951-2.567a4.52 4.52 0 0 0 1.848.398c3.35 0 6.075-3.768 6.075-8.397 0-.451-.027-.905-.084-1.378-.02-.116-.563-2.855-4.583-3.095-3.09-.186-4.332-1.814-4.631-2.459h8.854c2.359 1.115 5.105 4.465 5.207 10.324.033 1.938-.189 3.709-.66 5.264-.059.191-.117.373-.18.547a.444.444 0 0 0 .268.566.44.44 0 0 0 .564-.27c.066-.186.131-.381.193-.586.498-1.643.732-3.506.697-5.537-.084-4.88-1.932-8.153-3.969-9.943a.417.417 0 0 0 .012-.101V8.103a2.309 2.309 0 0 0-2.301-2.312H17.303a2.31 2.31 0 0 0-2.301 2.312v4.175c0 .05.008.098.023.142-2.018 1.798-3.838 5.059-3.922 9.901-.08 4.699 1.295 7.406 2.123 8.602.002.004.006.007.01.011-4.018 1.61-6.672 3.744-7.23 5.874-.102.387-.045 2.498-.016 3.389a.442.442 0 0 0 .441.428h32.807c.238 0 .434-.19.441-.43.029-.887.078-2.99-.01-3.373zM24.122 15.358c3.301.198 3.75 2.284 3.764 2.342.047.411.072.831.072 1.247 0 4.141-2.33 7.51-5.192 7.51-2.861 0-5.189-3.369-5.189-7.51 0-2.213.361-5.07 1.166-6.583.437.918 1.933 2.787 5.379 2.994zm-8.237-7.255c0-.786.637-1.425 1.418-1.425h10.926c.781 0 1.418.639 1.418 1.425v3.606a6.662 6.662 0 0 0-.973-.543.447.447 0 0 0-.182-.039H17.098a.454.454 0 0 0-.182.039 6.901 6.901 0 0 0-1.031.583V8.103zm-1.933 22.313c-.766-1.106-2.041-3.628-1.965-8.078.102-5.86 2.848-9.208 5.207-10.324h.734c-.908 1.771-1.234 4.805-1.234 6.933 0 3.313 1.393 6.182 3.414 7.548a.376.376 0 0 0-.037.134c-.076.672-.234 2.071-5.008 3.643-.354.115-.697.235-1.033.359a.446.446 0 0 0-.078-.215zm24.858 9.322H6.86c-.033-1.234-.043-2.495 0-2.703.555-2.114 3.803-4.384 8.479-5.922 1.215-.4 2.166-.796 2.914-1.187a.436.436 0 0 0 .146.263c.035.033 3.699 3.252 3.957 5.779.002.012.004.021.004.033.002.003.002.006.002.01a.439.439 0 0 1 .006.019c0 .007.004.015.006.022 0 .005.002.01.004.014l.01.026a.163.163 0 0 0 .006.013l.012.025.008.014a.077.077 0 0 0 .014.021c.002.006.006.01.01.015l.014.019.012.016a.07.07 0 0 1 .014.016l.018.016.014.012.018.016.014.01.021.014c.002.004.008.006.012.009l.021.013a.06.06 0 0 1 .016.007l.021.009a.178.178 0 0 1 .018.008l.023.007a.146.146 0 0 0 .02.005l.02.005c.008.003.018.003.025.004.006.001.01.003.016.003h.002c.014.002.027.002.043.002.016 0 .029 0 .043-.002h.002c.006 0 .012-.002.016-.003.01-.001.018-.001.025-.004a.146.146 0 0 0 .02-.005l.021-.005.021-.007a.142.142 0 0 0 .018-.008c.008-.002.014-.006.021-.009l.016-.007.021-.013c.004-.003.01-.005.014-.009l.021-.014a.106.106 0 0 0 .012-.01.145.145 0 0 0 .018-.016.087.087 0 0 0 .014-.012l.018-.016c.004-.005.008-.011.014-.016l.012-.015.014-.019c.004-.006.008-.01.01-.016.006-.006.01-.014.014-.021l.008-.014.012-.025.006-.013c.004-.008.006-.017.01-.024.002-.005.004-.01.004-.016.004-.008.004-.014.006-.021l.006-.02v-.008l.006-.035c.15-1.465 2.663-4.904 4.186-6.045.783.411 1.76.811 2.914 1.189 4.895 1.611 7.984 3.764 8.473 5.904.033.21.025 1.478-.006 2.722z"/></g></symbol><symbol viewBox="0 0 48 48" id="icon_nav_package"><g fill-rule="evenodd" clip-rule="evenodd" fill="#D99516"><path d="M27.831 44.572H17.777c-.523 0-1.048.01-1.571-.019-.185-.01-.368-.023-.551-.042-.097-.01-.193-.022-.289-.034-.188-.022.093.012.106.015-.063-.012-.127-.018-.19-.028-.378-.06-.752-.139-1.123-.234a11.69 11.69 0 0 1-1.083-.336c-.176-.063-.349-.137-.524-.204.012.004.263.114.096.039l-.114-.051a12.102 12.102 0 0 1-2.217-1.291c-.07-.052-.316-.26-.043-.03-.063-.053-.13-.102-.193-.154a12.505 12.505 0 0 1-1.783-1.782c-.056-.069-.256-.363-.053-.063-.208-.308-.436-.598-.633-.913a11.585 11.585 0 0 1-.776-1.449c-.036-.078-.159-.386-.024-.046l-.117-.291a11.998 11.998 0 0 1-.661-2.471c-.008-.052-.012-.107-.024-.159.003.013.037.294.015.107a19.045 19.045 0 0 1-.059-.581 12.806 12.806 0 0 1-.035-.919v-.925-5.238-6.536-3.972a12.816 12.816 0 0 1 .071-1.446c.01-.094.07-.461.008-.085.063-.379.125-.755.216-1.129a11.799 11.799 0 0 1 .515-1.617l.047-.116c.068-.17-.035.084-.041.096.047-.092.083-.192.127-.286.315-.685.695-1.34 1.132-1.953l.164-.226c.024-.032.052-.064.075-.098-.167.246-.108.138-.063.081.122-.152.245-.304.374-.451a12.46 12.46 0 0 1 1.62-1.55c.032-.025.066-.05.097-.077-.01.009-.226.17-.08.063l.223-.165a12.184 12.184 0 0 1 1.446-.895c.156-.083.313-.16.473-.235.084-.039.169-.079.255-.116.039-.017.077-.032.114-.05-.315.145-.105.045-.038.017.702-.284 1.43-.501 2.173-.646.188-.038.378-.068.568-.099.071-.011.215-.023-.107.013l.128-.015a12.479 12.479 0 0 1 1.433-.086h10.81c.293 0 .587.004.88.022.195.012.389.027.583.049.086.008.171.02.256.03-.376-.043-.012.001.083.017a11.972 11.972 0 0 1 2.463.681c.08.032.381.169.049.018.18.082.36.16.538.247a12.16 12.16 0 0 1 1.9 1.158c.041.03.081.064.124.092-.011-.007-.222-.174-.081-.062l.192.154a12.685 12.685 0 0 1 1.251 1.184 10.68 10.68 0 0 1 .522.607l.076.097c.144.179-.161-.217-.024-.032.22.299.433.601.628.916a12.552 12.552 0 0 1 .782 1.481c.017.039.032.077.05.115-.005-.012-.109-.266-.041-.096a11.973 11.973 0 0 1 .764 2.768c.013.082.022.253-.009-.076.004.042.011.086.016.128.023.194.042.388.056.581.02.286.029.572.03.857v16.157c0 .393.005.787-.012 1.179a11.485 11.485 0 0 1-.066.842l-.016.128c-.026.228.038-.255.006-.043-.059.378-.13.753-.223 1.126a11.697 11.697 0 0 1-.523 1.613c-.016.039-.033.077-.048.116.107-.288.069-.161.04-.096a12.185 12.185 0 0 1-1.27 2.232l-.165.223c-.042.058-.133.152.063-.08-.026.031-.051.064-.076.097a12.223 12.223 0 0 1-2.004 1.993c-.057.046-.166.105.081-.062-.034.022-.066.05-.099.074-.074.056-.149.11-.224.164a12.156 12.156 0 0 1-1.953 1.132c-.075.035-.151.068-.228.102-.167.075.084-.034.096-.039-.058.022-.116.047-.173.07a12.081 12.081 0 0 1-2.651.718c-.047.007-.197.026-.01.002a5.18 5.18 0 0 0-.042.005l-.257.027c-.389.043-.781.061-1.174.062-.587.001-1.149.515-1.122 1.123.027.606.493 1.124 1.122 1.122a13.297 13.297 0 0 0 9.019-3.59c2.425-2.271 3.893-5.425 4.126-8.733.081-1.141.03-2.301.03-3.444v-6.352-6.016c0-1.472.027-2.921-.248-4.378-.613-3.249-2.525-6.116-5.151-8.087-2.268-1.704-5.08-2.564-7.905-2.564H17.173c-2.634 0-5.211.656-7.432 2.103-2.751 1.794-4.81 4.584-5.635 7.773a13.61 13.61 0 0 0-.42 3.404v13.651c0 1.02-.002 2.039 0 3.06a13.29 13.29 0 0 0 3.591 9.018c2.272 2.425 5.425 3.892 8.732 4.127.57.041 1.143.031 1.713.031H27.83c.587 0 1.15-.517 1.123-1.123-.026-.611-.493-1.125-1.122-1.125zM29.661 15.9"/><path d="M13.585 24.331H28.961c.709 0 1.422.017 2.132 0h.03c.586 0 1.149-.517 1.122-1.123-.027-.608-.493-1.123-1.122-1.123H15.747c-.71 0-1.422-.018-2.132 0h-.03c-.587 0-1.149.517-1.123 1.123.028.608.494 1.123 1.123 1.123zM13.585 30.176H25.276c.587 0 1.149-.516 1.122-1.123-.027-.608-.493-1.122-1.122-1.122H13.585c-.587 0-1.149.515-1.123 1.122.028.609.494 1.123 1.123 1.123zM13.585 36.022H28.961c.709 0 1.422.018 2.132 0h.03c.586 0 1.149-.516 1.122-1.123-.027-.608-.493-1.123-1.122-1.123H15.747c-.71 0-1.422-.018-2.132 0h-.03c-.587 0-1.149.516-1.123 1.123.028.608.494 1.123 1.123 1.123z"/></g></symbol><symbol viewBox="0 0 48 48" id="icon_nav_phone_ask"><g fill-rule="evenodd" clip-rule="evenodd" fill="#4EB390"><path d="M39.878 19.983c-1.288-4.616-3.861-7.199-7.261-7.326V8.87a1.67 1.67 0 0 0-1.674-1.671c-.921 0-1.672.746-1.672 1.671v3.773H18.682V8.87a1.67 1.67 0 0 0-1.674-1.671 1.67 1.67 0 0 0-1.672 1.671v3.783c-3.441.117-5.888 2.578-7.262 7.296L2.008 38.666c-.054.166-.083.34-.083.512C1.925 43.491 5.332 47 9.519 47h28.906c4.184 0 7.591-3.509 7.591-7.823 0-.171-.029-.346-.083-.512l-6.055-18.682zm-1.453 23.674H9.519c-2.264 0-4.121-1.877-4.24-4.231l5.992-18.493c1.29-4.436 3.081-4.947 4.313-4.947h16.77c1.348 0 3.183.858 4.309 4.923l.022.073 5.978 18.444c-.119 2.354-1.974 4.231-4.238 4.231z"/><path d="M17.446 20.953c-.926 0-1.671.746-1.671 1.672v1.632a1.67 1.67 0 1 0 3.341 0v-1.632c0-.927-.748-1.672-1.67-1.672zM30.497 20.953c-.923 0-1.674.746-1.674 1.672v1.632a1.673 1.673 0 0 0 3.345 0v-1.632a1.67 1.67 0 0 0-1.671-1.672zM28.082 28.503a1.676 1.676 0 0 0-2.313.507c-.005.01-.714 1.043-1.816 1.043-1.072 0-1.737-.97-1.782-1.038a1.666 1.666 0 0 0-2.293-.521 1.666 1.666 0 0 0-.536 2.3c.597.965 2.244 2.603 4.611 2.603 2.352 0 4.021-1.624 4.635-2.583a1.673 1.673 0 0 0-.506-2.311zM47.778 11.059c-.107-.229-2.7-5.645-6.768-7.892-2.676-1.482-12.217-1.876-16.889-1.876-5.549 0-14.707.502-17.191 1.876C2.865 5.414.27 10.829.16 11.059a1.672 1.672 0 0 0 .797 2.227 1.67 1.67 0 0 0 2.228-.794c.614-1.292 2.766-4.962 5.367-6.4 1.24-.688 8.161-1.457 15.57-1.457 7.45 0 14.023.77 15.271 1.457 3.114 1.726 5.342 6.356 5.366 6.4a1.666 1.666 0 0 0 2.223.795 1.671 1.671 0 0 0 .796-2.228z"/></g></symbol><symbol viewBox="0 0 48 48" id="icon_nav_private"><g fill-rule="evenodd" clip-rule="evenodd" fill="#18A0B0"><path d="M42.758 47.458H5.316c-.788 0-1.471-.339-1.872-.932-.402-.598-.466-1.36-.175-2.09l4.24-10.605c.462-1.164 1.763-2.05 3.017-2.055l4.101-.011c.17-1.657.589-5.071 1.537-12.351.177-1.375 1.4-2.446 2.787-2.446h10.521c1.372 0 2.604 1.061 2.804 2.42l1.931 13.066a1.32 1.32 0 0 1-1.108 1.493 1.308 1.308 0 0 1-1.488-1.112L29.68 19.773c-.013-.072-.139-.18-.207-.18H18.951c-.064 0-.175.098-.183.16-.61 4.695-1.581 12.366-1.63 13.263a1.315 1.315 0 0 1-1.31 1.374l-5.293.016c-.188 0-.518.221-.584.396l-4.01 10.031h35.957l-5.12-9.751a1.311 1.311 0 0 1 .553-1.771 1.31 1.31 0 0 1 1.773.551l5.52 10.513c.381.721.381 1.488.008 2.111-.373.618-1.058.972-1.874.972z"/><path d="M25.196 43.798h-1.761c-1.403 0-2.618-1.138-2.705-2.539l-.958-15.198a1.314 1.314 0 0 1 2.622-.165l.961 15.198c0 .026.053.078.081.078h1.761c.047 0 .126-.072.131-.119l1.445-15.198a1.311 1.311 0 0 1 1.428-1.184c.724.066 1.258.71 1.188 1.431l-1.444 15.203c-.132 1.396-1.341 2.493-2.749 2.493zM24.063 16.167c-4.286 0-7.773-3.486-7.773-7.769 0-4.289 3.487-7.774 7.773-7.774 4.28 0 7.771 3.485 7.771 7.774.001 4.283-3.49 7.769-7.771 7.769zm0-13.145c-2.963 0-5.375 2.415-5.375 5.375s2.412 5.37 5.375 5.37c2.961 0 5.369-2.409 5.369-5.37s-2.408-5.375-5.369-5.375z"/></g></symbol><symbol viewBox="0 0 48 48" id="icon_nav_registration"><g fill-rule="evenodd" clip-rule="evenodd" fill="#D06539"><path d="M41.793 4.146h-5.724V2.24a1.906 1.906 0 1 0-3.811 0v1.906H17.007V2.24a1.906 1.906 0 0 0-3.811 0v1.906H7.475A5.723 5.723 0 0 0 1.753 9.87v32.413A5.718 5.718 0 0 0 7.475 48h34.318a5.718 5.718 0 0 0 5.719-5.718V9.869a5.722 5.722 0 0 0-5.719-5.723zm3.811 38.136c0 2.1-1.709 3.812-3.812 3.812H7.475a3.817 3.817 0 0 1-3.815-3.812V9.869a3.815 3.815 0 0 1 3.815-3.813h5.721v3.813a1.9 1.9 0 0 0 1.905 1.9 1.901 1.901 0 0 0 1.906-1.9V6.057h15.251V9.87c0 1.052.854 1.9 1.906 1.9a1.9 1.9 0 0 0 1.905-1.9V6.057h5.724a3.815 3.815 0 0 1 3.812 3.813v32.412h-.001z"/><path d="M33.002 18.493L22.215 29.28l-4.045-4.048a1.916 1.916 0 0 0-2.694 0 1.91 1.91 0 0 0 0 2.702l5.393 5.389a1.894 1.894 0 0 0 2.691 0L35.697 21.19a1.907 1.907 0 0 0-2.695-2.697z"/></g></symbol><symbol viewBox="0 0 48 48" id="icon_nav_search"><path fill-rule="evenodd" clip-rule="evenodd" fill="#B2B2B2" d="M42.21 43.417L31.757 33.134c2.737-2.973 4.419-6.904 4.419-11.232 0-9.254-7.623-16.757-17.029-16.757-9.406 0-17.029 7.503-17.029 16.757 0 9.256 7.624 16.76 17.029 16.76 4.063 0 7.791-1.406 10.717-3.745l10.492 10.325c.512.503 1.34.503 1.854 0a1.28 1.28 0 0 0 0-1.825m-23.064-7.336c-7.957 0-14.409-6.348-14.409-14.18 0-7.831 6.452-14.179 14.409-14.179 7.959 0 14.407 6.348 14.407 14.179.001 7.832-6.448 14.18-14.407 14.18m0 0"/></symbol><symbol viewBox="0 0 48 48" id="icon_nav_service"><g fill="#76CAE3"><path d="M34.006.724c-4.783 0-7.929 2.117-9.745 3.875l-.12.12-.125-.12C22.141 2.841 18.872.724 14.152.724c-7.508 0-11.563 6.964-11.563 13.56 0 9.326 7.022 17.856 20.764 25.424l.788.426.783-.426c13.861-7.568 20.889-16.161 20.889-25.544 0-6.595-4.421-13.44-11.807-13.44zm-9.745 35.597l-.063.058-.057-.058C12.03 29.534 5.919 22.096 5.919 14.222c0-3.989 2.239-10.288 8.291-10.288 5.69 0 8.536 3.932 8.658 4.119l1.394 2.054 1.334-2.054c0-.063 2.658-4.063 8.473-4.063 6.171 0 8.474 6.299 8.474 10.231-.001 7.75-6.36 15.381-18.282 22.1zm0 0M13.484 41.83h.12v5.446h3.334v-8.593h-1.636c-.12 0-10.715-.125-11.079-5.451l-3.269.12c.304 6.719 8.897 8.176 12.53 8.478zm0 0M47.443 33.29l-3.269-.12c-.364 5.326-10.954 5.451-11.079 5.451h-1.636v8.655h3.27V41.83h.122c3.696-.302 12.288-1.759 12.592-8.54zm0 0"/><path d="M9.188 12.713c0 1.086.242 6.236 5.204 8.957l1.516-2.903c-3.207-1.758-3.454-5.086-3.454-5.935l-3.266-.119zm0 0"/></g></symbol></svg>