<?xml version="1.0" encoding="utf-8"?><!DOCTYPE svg PUBLIC "-//W3C//DTD SVG 1.1//EN" "http://www.w3.org/Graphics/SVG/1.1/DTD/svg11.dtd"><svg xmlns="http://www.w3.org/2000/svg" width="32" height="32" viewBox="0 0 48 48"><path fill-rule="evenodd" clip-rule="evenodd" fill="#B2B2B2" d="M42.21 43.417L31.757 33.134c2.737-2.973 4.419-6.904 4.419-11.232 0-9.254-7.623-16.757-17.029-16.757-9.406 0-17.029 7.503-17.029 16.757 0 9.256 7.624 16.76 17.029 16.76 4.063 0 7.791-1.406 10.717-3.745l10.492 10.325c.512.503 1.34.503 1.854 0a1.28 1.28 0 0 0 0-1.825m-23.064-7.336c-7.957 0-14.409-6.348-14.409-14.18 0-7.831 6.452-14.179 14.409-14.179 7.959 0 14.407 6.348 14.407 14.179.001 7.832-6.448 14.18-14.407 14.18m0 0"/></svg>