<?xml version="1.0" encoding="utf-8"?><!DOCTYPE svg PUBLIC "-//W3C//DTD SVG 1.1//EN" "http://www.w3.org/Graphics/SVG/1.1/DTD/svg11.dtd"><svg xmlns="http://www.w3.org/2000/svg" width="32" height="32" viewBox="0 0 48 48"><g fill-rule="evenodd" clip-rule="evenodd" fill="#D99516"><path d="M27.831 44.572H17.777c-.523 0-1.048.01-1.571-.019-.185-.01-.368-.023-.551-.042-.097-.01-.193-.022-.289-.034-.188-.022.093.012.106.015-.063-.012-.127-.018-.19-.028-.378-.06-.752-.139-1.123-.234a11.69 11.69 0 0 1-1.083-.336c-.176-.063-.349-.137-.524-.204.012.004.263.114.096.039l-.114-.051a12.102 12.102 0 0 1-2.217-1.291c-.07-.052-.316-.26-.043-.03-.063-.053-.13-.102-.193-.154a12.505 12.505 0 0 1-1.783-1.782c-.056-.069-.256-.363-.053-.063-.208-.308-.436-.598-.633-.913a11.585 11.585 0 0 1-.776-1.449c-.036-.078-.159-.386-.024-.046l-.117-.291a11.998 11.998 0 0 1-.661-2.471c-.008-.052-.012-.107-.024-.159.003.013.037.294.015.107a19.045 19.045 0 0 1-.059-.581 12.806 12.806 0 0 1-.035-.919v-.925-5.238-6.536-3.972a12.816 12.816 0 0 1 .071-1.446c.01-.094.07-.461.008-.085.063-.379.125-.755.216-1.129a11.799 11.799 0 0 1 .515-1.617l.047-.116c.068-.17-.035.084-.041.096.047-.092.083-.192.127-.286.315-.685.695-1.34 1.132-1.953l.164-.226c.024-.032.052-.064.075-.098-.167.246-.108.138-.063.081.122-.152.245-.304.374-.451a12.46 12.46 0 0 1 1.62-1.55c.032-.025.066-.05.097-.077-.01.009-.226.17-.08.063l.223-.165a12.184 12.184 0 0 1 1.446-.895c.156-.083.313-.16.473-.235.084-.039.169-.079.255-.116.039-.017.077-.032.114-.05-.315.145-.105.045-.038.017.702-.284 1.43-.501 2.173-.646.188-.038.378-.068.568-.099.071-.011.215-.023-.107.013l.128-.015a12.479 12.479 0 0 1 1.433-.086h10.81c.293 0 .587.004.88.022.195.012.389.027.583.049.086.008.171.02.256.03-.376-.043-.012.001.083.017a11.972 11.972 0 0 1 2.463.681c.08.032.381.169.049.018.18.082.36.16.538.247a12.16 12.16 0 0 1 1.9 1.158c.041.03.081.064.124.092-.011-.007-.222-.174-.081-.062l.192.154a12.685 12.685 0 0 1 1.251 1.184 10.68 10.68 0 0 1 .522.607l.076.097c.144.179-.161-.217-.024-.032.22.299.433.601.628.916a12.552 12.552 0 0 1 .782 1.481c.017.039.032.077.05.115-.005-.012-.109-.266-.041-.096a11.973 11.973 0 0 1 .764 2.768c.013.082.022.253-.009-.076.004.042.011.086.016.128.023.194.042.388.056.581.02.286.029.572.03.857v16.157c0 .393.005.787-.012 1.179a11.485 11.485 0 0 1-.066.842l-.016.128c-.026.228.038-.255.006-.043-.059.378-.13.753-.223 1.126a11.697 11.697 0 0 1-.523 1.613c-.016.039-.033.077-.048.116.107-.288.069-.161.04-.096a12.185 12.185 0 0 1-1.27 2.232l-.165.223c-.042.058-.133.152.063-.08-.026.031-.051.064-.076.097a12.223 12.223 0 0 1-2.004 1.993c-.057.046-.166.105.081-.062-.034.022-.066.05-.099.074-.074.056-.149.11-.224.164a12.156 12.156 0 0 1-1.953 1.132c-.075.035-.151.068-.228.102-.167.075.084-.034.096-.039-.058.022-.116.047-.173.07a12.081 12.081 0 0 1-2.651.718c-.047.007-.197.026-.01.002a5.18 5.18 0 0 0-.042.005l-.257.027c-.389.043-.781.061-1.174.062-.587.001-1.149.515-1.122 1.123.027.606.493 1.124 1.122 1.122a13.297 13.297 0 0 0 9.019-3.59c2.425-2.271 3.893-5.425 4.126-8.733.081-1.141.03-2.301.03-3.444v-6.352-6.016c0-1.472.027-2.921-.248-4.378-.613-3.249-2.525-6.116-5.151-8.087-2.268-1.704-5.08-2.564-7.905-2.564H17.173c-2.634 0-5.211.656-7.432 2.103-2.751 1.794-4.81 4.584-5.635 7.773a13.61 13.61 0 0 0-.42 3.404v13.651c0 1.02-.002 2.039 0 3.06a13.29 13.29 0 0 0 3.591 9.018c2.272 2.425 5.425 3.892 8.732 4.127.57.041 1.143.031 1.713.031H27.83c.587 0 1.15-.517 1.123-1.123-.026-.611-.493-1.125-1.122-1.125zM29.661 15.9"/><path d="M13.585 24.331H28.961c.709 0 1.422.017 2.132 0h.03c.586 0 1.149-.517 1.122-1.123-.027-.608-.493-1.123-1.122-1.123H15.747c-.71 0-1.422-.018-2.132 0h-.03c-.587 0-1.149.517-1.123 1.123.028.608.494 1.123 1.123 1.123zM13.585 30.176H25.276c.587 0 1.149-.516 1.122-1.123-.027-.608-.493-1.122-1.122-1.122H13.585c-.587 0-1.149.515-1.123 1.122.028.609.494 1.123 1.123 1.123zM13.585 36.022H28.961c.709 0 1.422.018 2.132 0h.03c.586 0 1.149-.516 1.122-1.123-.027-.608-.493-1.123-1.122-1.123H15.747c-.71 0-1.422-.018-2.132 0h-.03c-.587 0-1.149.516-1.123 1.123.028.608.494 1.123 1.123 1.123z"/></g></svg>