<?xml version="1.0" encoding="utf-8"?><!DOCTYPE svg PUBLIC "-//W3C//DTD SVG 1.1//EN" "http://www.w3.org/Graphics/SVG/1.1/DTD/svg11.dtd"><svg xmlns="http://www.w3.org/2000/svg" width="32" height="32" viewBox="0 0 48 48"><g fill-rule="evenodd" clip-rule="evenodd" fill="#E85F95" stroke="#D85C8C" stroke-width=".5" stroke-miterlimit="10"><path d="M32.083 35.283h-1.725v-1.731c0-.245-.197-.444-.441-.444s-.441.199-.441.444v1.731h-1.725c-.244 0-.441.198-.441.443s.197.443.441.443h1.725v1.732c0 .244.197.443.441.443s.441-.199.441-.443v-1.732h1.725a.442.442 0 1 0 0-.886z"/><path d="M39.669 36.822c-.568-2.49-3.785-4.816-9.061-6.551-1.219-.401-2.229-.822-2.998-1.252a.44.44 0 0 0-.49.043.419.419 0 0 0-.072.039c-1.238.852-3.295 3.342-4.223 5.311-1.057-2.438-3.715-4.775-3.848-4.892l-.01-.007c1.393-.886 1.814-1.746 1.951-2.567a4.52 4.52 0 0 0 1.848.398c3.35 0 6.075-3.768 6.075-8.397 0-.451-.027-.905-.084-1.378-.02-.116-.563-2.855-4.583-3.095-3.09-.186-4.332-1.814-4.631-2.459h8.854c2.359 1.115 5.105 4.465 5.207 10.324.033 1.938-.189 3.709-.66 5.264-.059.191-.117.373-.18.547a.444.444 0 0 0 .268.566.44.44 0 0 0 .564-.27c.066-.186.131-.381.193-.586.498-1.643.732-3.506.697-5.537-.084-4.88-1.932-8.153-3.969-9.943a.417.417 0 0 0 .012-.101V8.103a2.309 2.309 0 0 0-2.301-2.312H17.303a2.31 2.31 0 0 0-2.301 2.312v4.175c0 .05.008.098.023.142-2.018 1.798-3.838 5.059-3.922 9.901-.08 4.699 1.295 7.406 2.123 8.602.002.004.006.007.01.011-4.018 1.61-6.672 3.744-7.23 5.874-.102.387-.045 2.498-.016 3.389a.442.442 0 0 0 .441.428h32.807c.238 0 .434-.19.441-.43.029-.887.078-2.99-.01-3.373zM24.122 15.358c3.301.198 3.75 2.284 3.764 2.342.047.411.072.831.072 1.247 0 4.141-2.33 7.51-5.192 7.51-2.861 0-5.189-3.369-5.189-7.51 0-2.213.361-5.07 1.166-6.583.437.918 1.933 2.787 5.379 2.994zm-8.237-7.255c0-.786.637-1.425 1.418-1.425h10.926c.781 0 1.418.639 1.418 1.425v3.606a6.662 6.662 0 0 0-.973-.543.447.447 0 0 0-.182-.039H17.098a.454.454 0 0 0-.182.039 6.901 6.901 0 0 0-1.031.583V8.103zm-1.933 22.313c-.766-1.106-2.041-3.628-1.965-8.078.102-5.86 2.848-9.208 5.207-10.324h.734c-.908 1.771-1.234 4.805-1.234 6.933 0 3.313 1.393 6.182 3.414 7.548a.376.376 0 0 0-.037.134c-.076.672-.234 2.071-5.008 3.643-.354.115-.697.235-1.033.359a.446.446 0 0 0-.078-.215zm24.858 9.322H6.86c-.033-1.234-.043-2.495 0-2.703.555-2.114 3.803-4.384 8.479-5.922 1.215-.4 2.166-.796 2.914-1.187a.436.436 0 0 0 .146.263c.035.033 3.699 3.252 3.957 5.779.002.012.004.021.004.033.002.003.002.006.002.01a.439.439 0 0 1 .006.019c0 .007.004.015.006.022 0 .005.002.01.004.014l.01.026a.163.163 0 0 0 .006.013l.012.025.008.014a.077.077 0 0 0 .014.021c.002.006.006.01.01.015l.014.019.012.016a.07.07 0 0 1 .014.016l.018.016.014.012.018.016.014.01.021.014c.002.004.008.006.012.009l.021.013a.06.06 0 0 1 .016.007l.021.009a.178.178 0 0 1 .018.008l.023.007a.146.146 0 0 0 .02.005l.02.005c.008.003.018.003.025.004.006.001.01.003.016.003h.002c.014.002.027.002.043.002.016 0 .029 0 .043-.002h.002c.006 0 .012-.002.016-.003.01-.001.018-.001.025-.004a.146.146 0 0 0 .02-.005l.021-.005.021-.007a.142.142 0 0 0 .018-.008c.008-.002.014-.006.021-.009l.016-.007.021-.013c.004-.003.01-.005.014-.009l.021-.014a.106.106 0 0 0 .012-.01.145.145 0 0 0 .018-.016.087.087 0 0 0 .014-.012l.018-.016c.004-.005.008-.011.014-.016l.012-.015.014-.019c.004-.006.008-.01.01-.016.006-.006.01-.014.014-.021l.008-.014.012-.025.006-.013c.004-.008.006-.017.01-.024.002-.005.004-.01.004-.016.004-.008.004-.014.006-.021l.006-.02v-.008l.006-.035c.15-1.465 2.663-4.904 4.186-6.045.783.411 1.76.811 2.914 1.189 4.895 1.611 7.984 3.764 8.473 5.904.033.21.025 1.478-.006 2.722z"/></g></svg>