<?xml version="1.0" encoding="utf-8"?><!DOCTYPE svg PUBLIC "-//W3C//DTD SVG 1.1//EN" "http://www.w3.org/Graphics/SVG/1.1/DTD/svg11.dtd"><svg xmlns="http://www.w3.org/2000/svg" width="32" height="32" viewBox="0 0 48 48"><path fill-rule="evenodd" clip-rule="evenodd" fill="#42B035" d="M7.527 45.618V27.893H9.83v15.424h28.349V27.893h2.303v17.726H7.527v-.001zm8.001-15.21c-1.021-1.205-1.562-2.627-1.562-4.114a6.192 6.192 0 0 1 6.186-6.183c1.355 0 2.692.449 3.759 1.264l.087.066.089-.066a6.23 6.23 0 0 1 3.759-1.264 6.191 6.191 0 0 1 6.186 6.183 6.244 6.244 0 0 1-1.445 3.998l-5.333 4.85-1.622-1.632 5.3-4.811.009-.009c.479-.593.787-1.533.787-2.396 0-2.14-1.742-3.88-3.883-3.88a3.855 3.855 0 0 0-2.965 1.368l-.883 1.045-.881-1.045a3.845 3.845 0 0 0-2.965-1.368 3.887 3.887 0 0 0-3.885 3.88c0 .905.336 1.825.918 2.525l.007.007 8.075 7.48-1.564 1.688-8.174-7.586zm8.471-24.656L4.044 27.036l-1.682-1.575L23.999 2.382l21.638 23.079-1.682 1.575L23.999 5.752z"/></svg>