<?xml version="1.0" encoding="utf-8"?><!DOCTYPE svg PUBLIC "-//W3C//DTD SVG 1.1//EN" "http://www.w3.org/Graphics/SVG/1.1/DTD/svg11.dtd"><svg xmlns="http://www.w3.org/2000/svg" width="32" height="32" viewBox="0 0 48 48"><g fill-rule="evenodd" clip-rule="evenodd" fill="#C68982"><path d="M9.624 10.37h25.859v2.873H9.624V10.37zM9.624 16.119h25.859v2.873H9.624v-2.873zM9.624 21.864h11.494v2.872H9.624v-2.872zM32.608 41.136l-6.758-6.764 2.027-2.029 4.731 4.729 7.609-7.601 2.03 2.029-9.639 9.636z"/><path d="M1 1.749v43.103l14.371-14.367h-4.043l-7.453 7.441V4.621h34.483v14.371h2.875V1.749H1z"/><path d="M34.048 24.736c2.685 0 5.212 1.05 7.112 2.948a9.992 9.992 0 0 1 2.945 7.113c0 2.685-1.048 5.208-2.945 7.111a10.001 10.001 0 0 1-7.112 2.943 9.993 9.993 0 0 1-7.113-2.943 10 10 0 0 1-2.945-7.111 9.986 9.986 0 0 1 2.945-7.113 9.996 9.996 0 0 1 7.113-2.948zm0-2.872c-7.144 0-12.93 5.79-12.93 12.933 0 7.142 5.786 12.932 12.93 12.932 7.143 0 12.93-5.79 12.93-12.932 0-7.143-5.788-12.933-12.93-12.933"/></g></svg>