<?xml version="1.0" encoding="utf-8"?><!DOCTYPE svg PUBLIC "-//W3C//DTD SVG 1.1//EN" "http://www.w3.org/Graphics/SVG/1.1/DTD/svg11.dtd"><svg xmlns="http://www.w3.org/2000/svg" width="32" height="32" viewBox="0 0 48 48"><g fill="#76CAE3"><path d="M34.006.724c-4.783 0-7.929 2.117-9.745 3.875l-.12.12-.125-.12C22.141 2.841 18.872.724 14.152.724c-7.508 0-11.563 6.964-11.563 13.56 0 9.326 7.022 17.856 20.764 25.424l.788.426.783-.426c13.861-7.568 20.889-16.161 20.889-25.544 0-6.595-4.421-13.44-11.807-13.44zm-9.745 35.597l-.063.058-.057-.058C12.03 29.534 5.919 22.096 5.919 14.222c0-3.989 2.239-10.288 8.291-10.288 5.69 0 8.536 3.932 8.658 4.119l1.394 2.054 1.334-2.054c0-.063 2.658-4.063 8.473-4.063 6.171 0 8.474 6.299 8.474 10.231-.001 7.75-6.36 15.381-18.282 22.1zm0 0M13.484 41.83h.12v5.446h3.334v-8.593h-1.636c-.12 0-10.715-.125-11.079-5.451l-3.269.12c.304 6.719 8.897 8.176 12.53 8.478zm0 0M47.443 33.29l-3.269-.12c-.364 5.326-10.954 5.451-11.079 5.451h-1.636v8.655h3.27V41.83h.122c3.696-.302 12.288-1.759 12.592-8.54zm0 0"/><path d="M9.188 12.713c0 1.086.242 6.236 5.204 8.957l1.516-2.903c-3.207-1.758-3.454-5.086-3.454-5.935l-3.266-.119zm0 0"/></g></svg>