<?xml version="1.0" encoding="utf-8"?><!DOCTYPE svg PUBLIC "-//W3C//DTD SVG 1.1//EN" "http://www.w3.org/Graphics/SVG/1.1/DTD/svg11.dtd"><svg xmlns="http://www.w3.org/2000/svg" width="32" height="32" viewBox="0 0 48 48"><g fill-rule="evenodd" clip-rule="evenodd" fill="#4EB390"><path d="M39.878 19.983c-1.288-4.616-3.861-7.199-7.261-7.326V8.87a1.67 1.67 0 0 0-1.674-1.671c-.921 0-1.672.746-1.672 1.671v3.773H18.682V8.87a1.67 1.67 0 0 0-1.674-1.671 1.67 1.67 0 0 0-1.672 1.671v3.783c-3.441.117-5.888 2.578-7.262 7.296L2.008 38.666c-.054.166-.083.34-.083.512C1.925 43.491 5.332 47 9.519 47h28.906c4.184 0 7.591-3.509 7.591-7.823 0-.171-.029-.346-.083-.512l-6.055-18.682zm-1.453 23.674H9.519c-2.264 0-4.121-1.877-4.24-4.231l5.992-18.493c1.29-4.436 3.081-4.947 4.313-4.947h16.77c1.348 0 3.183.858 4.309 4.923l.022.073 5.978 18.444c-.119 2.354-1.974 4.231-4.238 4.231z"/><path d="M17.446 20.953c-.926 0-1.671.746-1.671 1.672v1.632a1.67 1.67 0 1 0 3.341 0v-1.632c0-.927-.748-1.672-1.67-1.672zM30.497 20.953c-.923 0-1.674.746-1.674 1.672v1.632a1.673 1.673 0 0 0 3.345 0v-1.632a1.67 1.67 0 0 0-1.671-1.672zM28.082 28.503a1.676 1.676 0 0 0-2.313.507c-.005.01-.714 1.043-1.816 1.043-1.072 0-1.737-.97-1.782-1.038a1.666 1.666 0 0 0-2.293-.521 1.666 1.666 0 0 0-.536 2.3c.597.965 2.244 2.603 4.611 2.603 2.352 0 4.021-1.624 4.635-2.583a1.673 1.673 0 0 0-.506-2.311zM47.778 11.059c-.107-.229-2.7-5.645-6.768-7.892-2.676-1.482-12.217-1.876-16.889-1.876-5.549 0-14.707.502-17.191 1.876C2.865 5.414.27 10.829.16 11.059a1.672 1.672 0 0 0 .797 2.227 1.67 1.67 0 0 0 2.228-.794c.614-1.292 2.766-4.962 5.367-6.4 1.24-.688 8.161-1.457 15.57-1.457 7.45 0 14.023.77 15.271 1.457 3.114 1.726 5.342 6.356 5.366 6.4a1.666 1.666 0 0 0 2.223.795 1.671 1.671 0 0 0 .796-2.228z"/></g></svg>