<?xml version="1.0" encoding="utf-8"?><!DOCTYPE svg PUBLIC "-//W3C//DTD SVG 1.1//EN" "http://www.w3.org/Graphics/SVG/1.1/DTD/svg11.dtd"><svg xmlns="http://www.w3.org/2000/svg" width="32" height="32" viewBox="0 0 48 48"><g fill-rule="evenodd" clip-rule="evenodd" fill="#D06539"><path d="M41.793 4.146h-5.724V2.24a1.906 1.906 0 1 0-3.811 0v1.906H17.007V2.24a1.906 1.906 0 0 0-3.811 0v1.906H7.475A5.723 5.723 0 0 0 1.753 9.87v32.413A5.718 5.718 0 0 0 7.475 48h34.318a5.718 5.718 0 0 0 5.719-5.718V9.869a5.722 5.722 0 0 0-5.719-5.723zm3.811 38.136c0 2.1-1.709 3.812-3.812 3.812H7.475a3.817 3.817 0 0 1-3.815-3.812V9.869a3.815 3.815 0 0 1 3.815-3.813h5.721v3.813a1.9 1.9 0 0 0 1.905 1.9 1.901 1.901 0 0 0 1.906-1.9V6.057h15.251V9.87c0 1.052.854 1.9 1.906 1.9a1.9 1.9 0 0 0 1.905-1.9V6.057h5.724a3.815 3.815 0 0 1 3.812 3.813v32.412h-.001z"/><path d="M33.002 18.493L22.215 29.28l-4.045-4.048a1.916 1.916 0 0 0-2.694 0 1.91 1.91 0 0 0 0 2.702l5.393 5.389a1.894 1.894 0 0 0 2.691 0L35.697 21.19a1.907 1.907 0 0 0-2.695-2.697z"/></g></svg>