<?xml version="1.0" encoding="utf-8"?><!DOCTYPE svg PUBLIC "-//W3C//DTD SVG 1.1//EN" "http://www.w3.org/Graphics/SVG/1.1/DTD/svg11.dtd"><svg xmlns="http://www.w3.org/2000/svg" width="32" height="32" viewBox="0 0 48 48"><g fill-rule="evenodd" clip-rule="evenodd" fill="#DA6339"><path d="M40.037 20.461H31.18c-.225 0-.426.079-.637.129V10.053a4.132 4.132 0 0 0-4.127-4.127H9.217a4.132 4.132 0 0 0-4.127 4.127v31.555h37.754V23.271a2.812 2.812 0 0 0-2.807-2.81zm-25.32 18.974v-5.937h6.197v5.937h-6.197zm13.654 0h-5.283v-6.288a1.825 1.825 0 0 0-1.822-1.822h-6.898a1.824 1.824 0 0 0-1.822 1.822v6.288H7.262V10.053c0-1.078.879-1.955 1.955-1.955h17.199c1.078 0 1.955.877 1.955 1.955v29.382zm12.301 0H30.543v-4.58h7.223a1.086 1.086 0 1 0 0-2.173h-7.223v-3.168h7.223a1.086 1.086 0 1 0 0-2.172h-7.223v-4.071c0-.345.291-.637.637-.637h8.857c.344 0 .635.292.635.637v16.164z"/><path d="M22.479 18.471h-3.576v-3.576a1.084 1.084 0 1 0-2.17 0v3.576h-3.578c-.602 0-1.086.485-1.086 1.086 0 .6.484 1.086 1.086 1.086h3.578v3.576a1.084 1.084 0 1 0 2.17 0v-3.576h3.576c.6 0 1.088-.486 1.088-1.086a1.089 1.089 0 0 0-1.088-1.086z"/></g></svg>