<?xml version="1.0" encoding="utf-8"?><!DOCTYPE svg PUBLIC "-//W3C//DTD SVG 1.1//EN" "http://www.w3.org/Graphics/SVG/1.1/DTD/svg11.dtd"><svg xmlns="http://www.w3.org/2000/svg" width="32" height="32" viewBox="0 0 48 48"><path fill-rule="evenodd" clip-rule="evenodd" fill="#57A3D6" d="M45.506 29.017a2.132 2.132 0 0 1-2.131-2.133l-.02-21.356-31.906.019a2.13 2.13 0 0 1 0-4.263l29.726-.014v.014h2.265a4.263 4.263 0 0 1 4.176 3.413l.016 22.187a2.132 2.132 0 0 1-2.126 2.133zm-4.26-17.713l.016 13.469c0 .056-.012.108-.016.16l.016 8.798c-.244 2.119-2.027 3.773-4.213 3.773h-2.265v.005l-11.822.014-7.995 7.934a2.13 2.13 0 1 1-3.012-3.013l8.285-8.22a2.124 2.124 0 0 1 1.774-.958h.085l14.9-.019-.004-3.351-.007.451.007-.78-.012-7.007c0-.056.012-.108.016-.16l-.011-7.19c-.044-2.806-.392-3.205-2.832-3.262l2.813.019.019 3.098-.002-3.121h-3.139c.106 0 .214.004.31.004l-.676-.004-25.723.014c-2.23.075-2.656.479-2.73 2.514l.014 16.745c.11 1.688.616 1.974 2.883 2.021l-2.881-.019v.042l8.533-.014a2.129 2.129 0 1 1 0 4.257l-6.29.015v-.015H5.024A4.25 4.25 0 0 1 .781 33.43L.765 11.915A4.246 4.246 0 0 1 4.834 7.7l32.233-.019a4.246 4.246 0 0 1 4.179 3.623zm-36.222.654l.003 1.466.009-1.457 1.364-.009H5.024zm29.329 21.279c2.24-.056 2.587-.427 2.635-2.89l-.019 2.872-2.616.018zm0 0c-.458.01-.987.01-1.619.01l1.619-.01zm-26.428 0l1.409.01c-.533 0-.998 0-1.409-.01zM40.414 5.556l2.882.019.016 2.392c-.063-2.035-.471-2.359-2.898-2.411zm0 0l-1.419-.009c.537 0 1.005 0 1.419.009zm2.909 4.254l-.012-1.842c.012.502.012 1.104.012 1.842z"/></svg>