<?xml version="1.0" encoding="utf-8"?><!DOCTYPE svg PUBLIC "-//W3C//DTD SVG 1.1//EN" "http://www.w3.org/Graphics/SVG/1.1/DTD/svg11.dtd"><svg xmlns="http://www.w3.org/2000/svg" width="32" height="32" viewBox="0 0 48 48"><g fill-rule="evenodd" clip-rule="evenodd" fill="#18A0B0"><path d="M42.758 47.458H5.316c-.788 0-1.471-.339-1.872-.932-.402-.598-.466-1.36-.175-2.09l4.24-10.605c.462-1.164 1.763-2.05 3.017-2.055l4.101-.011c.17-1.657.589-5.071 1.537-12.351.177-1.375 1.4-2.446 2.787-2.446h10.521c1.372 0 2.604 1.061 2.804 2.42l1.931 13.066a1.32 1.32 0 0 1-1.108 1.493 1.308 1.308 0 0 1-1.488-1.112L29.68 19.773c-.013-.072-.139-.18-.207-.18H18.951c-.064 0-.175.098-.183.16-.61 4.695-1.581 12.366-1.63 13.263a1.315 1.315 0 0 1-1.31 1.374l-5.293.016c-.188 0-.518.221-.584.396l-4.01 10.031h35.957l-5.12-9.751a1.311 1.311 0 0 1 .553-1.771 1.31 1.31 0 0 1 1.773.551l5.52 10.513c.381.721.381 1.488.008 2.111-.373.618-1.058.972-1.874.972z"/><path d="M25.196 43.798h-1.761c-1.403 0-2.618-1.138-2.705-2.539l-.958-15.198a1.314 1.314 0 0 1 2.622-.165l.961 15.198c0 .026.053.078.081.078h1.761c.047 0 .126-.072.131-.119l1.445-15.198a1.311 1.311 0 0 1 1.428-1.184c.724.066 1.258.71 1.188 1.431l-1.444 15.203c-.132 1.396-1.341 2.493-2.749 2.493zM24.063 16.167c-4.286 0-7.773-3.486-7.773-7.769 0-4.289 3.487-7.774 7.773-7.774 4.28 0 7.771 3.485 7.771 7.774.001 4.283-3.49 7.769-7.771 7.769zm0-13.145c-2.963 0-5.375 2.415-5.375 5.375s2.412 5.37 5.375 5.37c2.961 0 5.369-2.409 5.369-5.37s-2.408-5.375-5.369-5.375z"/></g></svg>