<?xml version="1.0" encoding="utf-8"?><!DOCTYPE svg PUBLIC "-//W3C//DTD SVG 1.1//EN" "http://www.w3.org/Graphics/SVG/1.1/DTD/svg11.dtd"><svg xmlns="http://www.w3.org/2000/svg" width="32" height="32" viewBox="0 0 48 48"><g fill-rule="evenodd" clip-rule="evenodd" fill="#1EA58C"><path d="M41.091 38.246c-2.021-4.45-6.807-8.309-13.504-9.344 3.643-1.869 6.271-6.193 6.125-12.166-.064-2.721-1.346-6.383-2.971-8.238-.305-.349-4.178-1.181-7.377-1.181-3.033 0-6.84.767-7.275 1.181-1.914 1.828-2.988 5.328-3.031 8.232-.086 6.068 2.66 10.535 6.459 12.332-6.674 1.315-11.336 5.416-12.666 9.264a3.96 3.96 0 0 0 .145 2.884c.852 1.894 2.277 1.913 2.277 1.913s7.117.221 14.283.221h.416c5.734 0 13.793-.111 13.793-.111s2.115-.096 3.082-1.807c.718-1.271.549-2.512.244-3.18zM14.847 16.832c.037-2.645 1.004-5.486 2.322-6.884.801-.281 3.709-.845 6.197-.845 2.574 0 5.363.563 6.246.836 1.223 1.595 2.26 4.654 2.314 6.915.008.37-.002.732-.018 1.091-1.566-.461-4.568-1.139-8.543-1.139-4.043 0-6.875.502-8.496.902-.011-.289-.026-.578-.022-.876zm3.187 9.066c-1.586-1.609-2.619-3.809-3.012-6.419 1.414-.372 4.205-.903 8.344-.903 4.143 0 7.154.758 8.367 1.137-.393 2.471-1.371 4.567-2.879 6.112a7.583 7.583 0 0 1-5.49 2.32h-.004c-1.986.001-3.826-.725-5.326-2.247zm21.244 14.741c-.445.791-1.223.844-1.701.944-1.082.03-8.369.229-13.609.239l-.412.002c-6.1 0-12.232-.336-13.807-.336-.682 0-.971-.666-1.066-.873-.234-.681-.285-1.291-.143-1.705 1.43-4.121 7.332-8.501 15.457-8.501 8.543 0 13.672 4.619 15.467 8.575.084.187.24.895-.186 1.655z"/><path d="M25.106 13.842h1.355c.24 0 .434-.194.434-.434v-.027a.434.434 0 0 0-.434-.434h-1.355v-1.355a.432.432 0 0 0-.432-.432h-.027a.433.433 0 0 0-.434.432v1.355h-1.355a.435.435 0 0 0-.434.434v.027c0 .239.195.434.434.434h1.355v1.355c0 .238.193.432.432.432h.027c.24 0 .434-.193.434-.432v-1.355z"/></g></svg>